<?xml version="1.0" encoding="utf-8" standalone="no"?>
<!DOCTYPE svg PUBLIC "-//W3C//DTD SVG 1.1//EN"
  "http://www.w3.org/Graphics/SVG/1.1/DTD/svg11.dtd">
<svg xmlns:xlink="http://www.w3.org/1999/xlink" width="460.8pt" height="345.6pt" viewBox="0 0 460.8 345.6" xmlns="http://www.w3.org/2000/svg" version="1.1">
 <metadata>
  <rdf:RDF xmlns:dc="http://purl.org/dc/elements/1.1/" xmlns:cc="http://creativecommons.org/ns#" xmlns:rdf="http://www.w3.org/1999/02/22-rdf-syntax-ns#">
   <cc:Work>
    <dc:type rdf:resource="http://purl.org/dc/dcmitype/StillImage"/>
    <dc:date>2025-03-13T16:29:03.944140</dc:date>
    <dc:format>image/svg+xml</dc:format>
    <dc:creator>
     <cc:Agent>
      <dc:title>Matplotlib v3.9.2, https://matplotlib.org/</dc:title>
     </cc:Agent>
    </dc:creator>
   </cc:Work>
  </rdf:RDF>
 </metadata>
 <defs>
  <style type="text/css">*{stroke-linejoin: round; stroke-linecap: butt}</style>
 </defs>
 <g id="figure_1">
  <g id="patch_1">
   <path d="M 0 345.6 
L 460.8 345.6 
L 460.8 0 
L 0 0 
z
" style="fill: #ffffff"/>
  </g>
  <g id="axes_1">
   <g id="patch_2">
    <path d="M 63.21 290.436 
L 450 290.436 
L 450 10.8 
L 63.21 10.8 
z
" style="fill: #ffffff"/>
   </g>
   <g id="matplotlib.axis_1">
    <g id="xtick_1">
     <g id="line2d_1">
      <defs>
       <path id="m934b9b1c91" d="M 0 0 
L 0 -10 
" style="stroke: #000000"/>
      </defs>
      <g>
       <use xlink:href="#m934b9b1c91" x="144.723595" y="290.436" style="stroke: #000000"/>
      </g>
     </g>
     <g id="text_1">
      <!-- $f_0$ -->
      <g transform="translate(137.253595 307.436) scale(0.18 -0.18)">
       <defs>
        <path id="DejaVuSans-Oblique-66" d="M 3059 4863 
L 2969 4384 
L 2419 4384 
Q 2106 4384 1964 4261 
Q 1822 4138 1753 3809 
L 1691 3500 
L 2638 3500 
L 2553 3053 
L 1606 3053 
L 1013 0 
L 434 0 
L 1031 3053 
L 481 3053 
L 563 3500 
L 1113 3500 
L 1159 3744 
Q 1278 4363 1576 4613 
Q 1875 4863 2516 4863 
L 3059 4863 
z
" transform="scale(0.015625)"/>
        <path id="DejaVuSans-30" d="M 2034 4250 
Q 1547 4250 1301 3770 
Q 1056 3291 1056 2328 
Q 1056 1369 1301 889 
Q 1547 409 2034 409 
Q 2525 409 2770 889 
Q 3016 1369 3016 2328 
Q 3016 3291 2770 3770 
Q 2525 4250 2034 4250 
z
M 2034 4750 
Q 2819 4750 3233 4129 
Q 3647 3509 3647 2328 
Q 3647 1150 3233 529 
Q 2819 -91 2034 -91 
Q 1250 -91 836 529 
Q 422 1150 422 2328 
Q 422 3509 836 4129 
Q 1250 4750 2034 4750 
z
" transform="scale(0.015625)"/>
       </defs>
       <use xlink:href="#DejaVuSans-Oblique-66" transform="translate(0 0.015625)"/>
       <use xlink:href="#DejaVuSans-30" transform="translate(35.205078 -16.390625) scale(0.7)"/>
      </g>
     </g>
    </g>
    <g id="xtick_2">
     <g id="line2d_2">
      <g>
       <use xlink:href="#m934b9b1c91" x="176.689711" y="290.436" style="stroke: #000000"/>
      </g>
     </g>
     <g id="text_2">
      <!-- $f_1$ -->
      <g transform="translate(169.219711 307.419125) scale(0.18 -0.18)">
       <defs>
        <path id="DejaVuSans-31" d="M 794 531 
L 1825 531 
L 1825 4091 
L 703 3866 
L 703 4441 
L 1819 4666 
L 2450 4666 
L 2450 531 
L 3481 531 
L 3481 0 
L 794 0 
L 794 531 
z
" transform="scale(0.015625)"/>
       </defs>
       <use xlink:href="#DejaVuSans-Oblique-66" transform="translate(0 0.015625)"/>
       <use xlink:href="#DejaVuSans-31" transform="translate(35.205078 -16.390625) scale(0.7)"/>
      </g>
     </g>
    </g>
    <g id="xtick_3">
     <g id="line2d_3">
      <g>
       <use xlink:href="#m934b9b1c91" x="208.655826" y="290.436" style="stroke: #000000"/>
      </g>
     </g>
     <g id="text_3">
      <!-- $f_2$ -->
      <g transform="translate(201.185826 307.419125) scale(0.18 -0.18)">
       <defs>
        <path id="DejaVuSans-32" d="M 1228 531 
L 3431 531 
L 3431 0 
L 469 0 
L 469 531 
Q 828 903 1448 1529 
Q 2069 2156 2228 2338 
Q 2531 2678 2651 2914 
Q 2772 3150 2772 3378 
Q 2772 3750 2511 3984 
Q 2250 4219 1831 4219 
Q 1534 4219 1204 4116 
Q 875 4013 500 3803 
L 500 4441 
Q 881 4594 1212 4672 
Q 1544 4750 1819 4750 
Q 2544 4750 2975 4387 
Q 3406 4025 3406 3419 
Q 3406 3131 3298 2873 
Q 3191 2616 2906 2266 
Q 2828 2175 2409 1742 
Q 1991 1309 1228 531 
z
" transform="scale(0.015625)"/>
       </defs>
       <use xlink:href="#DejaVuSans-Oblique-66" transform="translate(0 0.015625)"/>
       <use xlink:href="#DejaVuSans-32" transform="translate(35.205078 -16.390625) scale(0.7)"/>
      </g>
     </g>
    </g>
    <g id="xtick_4">
     <g id="line2d_4">
      <g>
       <use xlink:href="#m934b9b1c91" x="240.621942" y="290.436" style="stroke: #000000"/>
      </g>
     </g>
     <g id="text_4">
      <!-- $f_3$ -->
      <g transform="translate(233.151942 307.436) scale(0.18 -0.18)">
       <defs>
        <path id="DejaVuSans-33" d="M 2597 2516 
Q 3050 2419 3304 2112 
Q 3559 1806 3559 1356 
Q 3559 666 3084 287 
Q 2609 -91 1734 -91 
Q 1441 -91 1130 -33 
Q 819 25 488 141 
L 488 750 
Q 750 597 1062 519 
Q 1375 441 1716 441 
Q 2309 441 2620 675 
Q 2931 909 2931 1356 
Q 2931 1769 2642 2001 
Q 2353 2234 1838 2234 
L 1294 2234 
L 1294 2753 
L 1863 2753 
Q 2328 2753 2575 2939 
Q 2822 3125 2822 3475 
Q 2822 3834 2567 4026 
Q 2313 4219 1838 4219 
Q 1578 4219 1281 4162 
Q 984 4106 628 3988 
L 628 4550 
Q 988 4650 1302 4700 
Q 1616 4750 1894 4750 
Q 2613 4750 3031 4423 
Q 3450 4097 3450 3541 
Q 3450 3153 3228 2886 
Q 3006 2619 2597 2516 
z
" transform="scale(0.015625)"/>
       </defs>
       <use xlink:href="#DejaVuSans-Oblique-66" transform="translate(0 0.015625)"/>
       <use xlink:href="#DejaVuSans-33" transform="translate(35.205078 -16.390625) scale(0.7)"/>
      </g>
     </g>
    </g>
    <g id="xtick_5">
     <g id="line2d_5">
      <g>
       <use xlink:href="#m934b9b1c91" x="272.588058" y="290.436" style="stroke: #000000"/>
      </g>
     </g>
     <g id="text_5">
      <!-- $f_4$ -->
      <g transform="translate(265.118058 307.419125) scale(0.18 -0.18)">
       <defs>
        <path id="DejaVuSans-34" d="M 2419 4116 
L 825 1625 
L 2419 1625 
L 2419 4116 
z
M 2253 4666 
L 3047 4666 
L 3047 1625 
L 3713 1625 
L 3713 1100 
L 3047 1100 
L 3047 0 
L 2419 0 
L 2419 1100 
L 313 1100 
L 313 1709 
L 2253 4666 
z
" transform="scale(0.015625)"/>
       </defs>
       <use xlink:href="#DejaVuSans-Oblique-66" transform="translate(0 0.015625)"/>
       <use xlink:href="#DejaVuSans-34" transform="translate(35.205078 -16.390625) scale(0.7)"/>
      </g>
     </g>
    </g>
    <g id="xtick_6">
     <g id="line2d_6">
      <g>
       <use xlink:href="#m934b9b1c91" x="304.554174" y="290.436" style="stroke: #000000"/>
      </g>
     </g>
     <g id="text_6">
      <!-- $f_5$ -->
      <g transform="translate(297.084174 307.436) scale(0.18 -0.18)">
       <defs>
        <path id="DejaVuSans-35" d="M 691 4666 
L 3169 4666 
L 3169 4134 
L 1269 4134 
L 1269 2991 
Q 1406 3038 1543 3061 
Q 1681 3084 1819 3084 
Q 2600 3084 3056 2656 
Q 3513 2228 3513 1497 
Q 3513 744 3044 326 
Q 2575 -91 1722 -91 
Q 1428 -91 1123 -41 
Q 819 9 494 109 
L 494 744 
Q 775 591 1075 516 
Q 1375 441 1709 441 
Q 2250 441 2565 725 
Q 2881 1009 2881 1497 
Q 2881 1984 2565 2268 
Q 2250 2553 1709 2553 
Q 1456 2553 1204 2497 
Q 953 2441 691 2322 
L 691 4666 
z
" transform="scale(0.015625)"/>
       </defs>
       <use xlink:href="#DejaVuSans-Oblique-66" transform="translate(0 0.015625)"/>
       <use xlink:href="#DejaVuSans-35" transform="translate(35.205078 -16.390625) scale(0.7)"/>
      </g>
     </g>
    </g>
    <g id="xtick_7">
     <g id="line2d_7">
      <g>
       <use xlink:href="#m934b9b1c91" x="336.520289" y="290.436" style="stroke: #000000"/>
      </g>
     </g>
     <g id="text_7">
      <!-- $f_6$ -->
      <g transform="translate(329.050289 307.436) scale(0.18 -0.18)">
       <defs>
        <path id="DejaVuSans-36" d="M 2113 2584 
Q 1688 2584 1439 2293 
Q 1191 2003 1191 1497 
Q 1191 994 1439 701 
Q 1688 409 2113 409 
Q 2538 409 2786 701 
Q 3034 994 3034 1497 
Q 3034 2003 2786 2293 
Q 2538 2584 2113 2584 
z
M 3366 4563 
L 3366 3988 
Q 3128 4100 2886 4159 
Q 2644 4219 2406 4219 
Q 1781 4219 1451 3797 
Q 1122 3375 1075 2522 
Q 1259 2794 1537 2939 
Q 1816 3084 2150 3084 
Q 2853 3084 3261 2657 
Q 3669 2231 3669 1497 
Q 3669 778 3244 343 
Q 2819 -91 2113 -91 
Q 1303 -91 875 529 
Q 447 1150 447 2328 
Q 447 3434 972 4092 
Q 1497 4750 2381 4750 
Q 2619 4750 2861 4703 
Q 3103 4656 3366 4563 
z
" transform="scale(0.015625)"/>
       </defs>
       <use xlink:href="#DejaVuSans-Oblique-66" transform="translate(0 0.015625)"/>
       <use xlink:href="#DejaVuSans-36" transform="translate(35.205078 -16.390625) scale(0.7)"/>
      </g>
     </g>
    </g>
    <g id="xtick_8">
     <g id="line2d_8">
      <g>
       <use xlink:href="#m934b9b1c91" x="368.486405" y="290.436" style="stroke: #000000"/>
      </g>
     </g>
     <g id="text_8">
      <!-- $f_7$ -->
      <g transform="translate(361.016405 307.419125) scale(0.18 -0.18)">
       <defs>
        <path id="DejaVuSans-37" d="M 525 4666 
L 3525 4666 
L 3525 4397 
L 1831 0 
L 1172 0 
L 2766 4134 
L 525 4134 
L 525 4666 
z
" transform="scale(0.015625)"/>
       </defs>
       <use xlink:href="#DejaVuSans-Oblique-66" transform="translate(0 0.015625)"/>
       <use xlink:href="#DejaVuSans-37" transform="translate(35.205078 -16.390625) scale(0.7)"/>
      </g>
     </g>
    </g>
    <g id="text_9">
     <!-- 周波数 -->
     <g transform="translate(229.605 328.339125) scale(0.18 -0.18)">
      <defs>
       <path id="IPAexGothic-5468" d="M 5638 4984 
L 5638 191 
Q 5638 -75 5534 -188 
Q 5409 -341 4975 -341 
Q 4581 -341 3966 -294 
L 3859 209 
Q 4422 134 4850 134 
Q 5069 134 5131 225 
Q 5169 291 5169 441 
L 5169 4575 
L 1378 4575 
L 1378 2750 
Q 1378 1400 1288 800 
Q 1184 78 781 -500 
L 391 -116 
Q 741 350 838 1106 
Q 909 1650 909 2656 
L 909 4984 
L 5638 4984 
z
M 2463 703 
L 2463 222 
L 2022 222 
L 2022 2119 
L 4447 2119 
L 4447 703 
L 2463 703 
z
M 4006 1075 
L 4006 1747 
L 2463 1747 
L 2463 1075 
L 4006 1075 
z
M 3444 3816 
L 4744 3816 
L 4744 3438 
L 3444 3438 
L 3444 2913 
L 4941 2913 
L 4941 2534 
L 1606 2534 
L 1606 2913 
L 3000 2913 
L 3000 3438 
L 1803 3438 
L 1803 3816 
L 3000 3816 
L 3000 4347 
L 3444 4347 
L 3444 3816 
z
" transform="scale(0.015625)"/>
       <path id="IPAexGothic-6ce2" d="M 4641 838 
Q 5219 381 6097 38 
L 5791 -384 
Q 4919 -6 4325 513 
Q 3591 -144 2794 -500 
L 2488 -103 
Q 3350 188 4006 825 
Q 3397 1472 3056 2400 
L 2756 2400 
L 2756 2344 
Q 2747 1263 2513 563 
Q 2344 53 1963 -453 
L 1613 -122 
Q 2113 525 2238 1288 
Q 2316 1756 2316 2503 
L 2316 4378 
L 3866 4378 
L 3866 5313 
L 4306 5313 
L 4306 4378 
L 5753 4378 
L 6016 4141 
Q 5838 3597 5522 3066 
L 5100 3238 
Q 5322 3584 5466 3969 
L 4306 3969 
L 4306 2797 
L 5425 2797 
L 5688 2547 
Q 5231 1469 4641 838 
z
M 4306 1141 
Q 4850 1797 5113 2400 
L 3519 2400 
Q 3838 1638 4306 1141 
z
M 3866 3969 
L 2756 3969 
L 2756 2797 
L 3866 2797 
L 3866 3969 
z
M 409 6 
Q 1013 769 1525 1919 
L 1856 1563 
Q 1388 463 788 -391 
L 409 6 
z
M 1344 2388 
Q 919 2869 384 3238 
L 684 3597 
Q 1225 3234 1672 2759 
L 1344 2388 
z
M 1525 3866 
Q 1047 4381 597 4703 
L 903 5063 
Q 1384 4738 1844 4250 
L 1525 3866 
z
" transform="scale(0.015625)"/>
       <path id="IPAexGothic-6570" d="M 2847 1553 
Q 2741 1006 2425 534 
Q 2625 441 3091 203 
L 2809 -188 
Q 2541 0 2144 209 
Q 1569 -291 703 -500 
L 422 -125 
Q 1263 19 1747 406 
Q 1222 650 734 816 
Q 975 1172 1147 1503 
L 1172 1553 
L 359 1553 
L 359 1925 
L 1344 1925 
Q 1406 2066 1569 2475 
L 1691 2450 
L 1691 3372 
Q 1250 2738 550 2303 
L 275 2663 
Q 1019 3013 1528 3641 
L 378 3641 
L 378 4006 
L 1691 4006 
L 1691 5313 
L 2113 5313 
L 2113 4006 
L 3297 4006 
L 3297 3641 
L 2113 3641 
L 2113 3513 
Q 2659 3291 3175 2963 
L 2956 2584 
Q 2553 2922 2113 3159 
L 2113 2372 
L 1966 2372 
Q 1928 2288 1872 2141 
Q 1806 1975 1784 1925 
L 3378 1925 
L 3378 1553 
L 2847 1553 
z
M 2419 1553 
L 1613 1553 
Q 1478 1269 1313 997 
Q 1559 909 2047 703 
Q 2313 1047 2419 1553 
z
M 4363 1163 
Q 3953 1781 3738 2638 
Q 3575 2281 3428 2016 
L 3103 2406 
Q 3675 3444 3916 5291 
L 4363 5200 
Q 4284 4666 4197 4197 
L 6009 4197 
L 6009 3775 
L 5503 3775 
Q 5397 2275 4869 1191 
Q 5419 503 6144 75 
L 5822 -378 
Q 5188 106 4631 788 
Q 4113 34 3341 -463 
L 3031 -78 
Q 3888 406 4363 1163 
z
M 4588 1594 
Q 4938 2388 5059 3775 
L 4100 3775 
Q 4041 3519 3972 3288 
Q 3981 3250 3991 3194 
Q 4175 2256 4588 1594 
z
M 1003 4116 
Q 878 4544 638 4934 
L 1053 5094 
Q 1247 4788 1438 4269 
L 1003 4116 
z
M 2316 4269 
Q 2550 4688 2688 5131 
L 3128 4997 
Q 2966 4588 2675 4128 
L 2316 4269 
z
" transform="scale(0.015625)"/>
      </defs>
      <use xlink:href="#IPAexGothic-5468"/>
      <use xlink:href="#IPAexGothic-6ce2" x="100"/>
      <use xlink:href="#IPAexGothic-6570" x="200"/>
     </g>
    </g>
   </g>
   <g id="matplotlib.axis_2">
    <g id="ytick_1">
     <g id="line2d_9">
      <defs>
       <path id="mbaccaf2dfa" d="M 0 0 
L 10 0 
" style="stroke: #000000"/>
      </defs>
      <g>
       <use xlink:href="#mbaccaf2dfa" x="63.21" y="277.725273" style="stroke: #000000"/>
      </g>
     </g>
     <g id="text_10">
      <!-- 0.0 -->
      <g transform="translate(32.279688 284.466835) scale(0.18 -0.18)">
       <defs>
        <path id="IPAexGothic-30" d="M 2038 4725 
Q 2881 4725 3334 3944 
Q 3694 3325 3694 2344 
Q 3694 1372 3334 741 
Q 2888 -31 2016 -31 
Q 1147 -31 700 741 
Q 341 1372 341 2350 
Q 341 3713 1000 4334 
Q 1419 4725 2038 4725 
z
M 2016 4266 
Q 1516 4266 1228 3759 
Q 934 3247 934 2344 
Q 934 1456 1222 947 
Q 1513 447 2016 447 
Q 2619 447 2909 1153 
Q 3100 1622 3100 2375 
Q 3100 3256 2806 3759 
Q 2509 4266 2016 4266 
z
" transform="scale(0.015625)"/>
        <path id="IPAexGothic-2e" d="M 1184 63 
L 494 63 
L 494 753 
L 1184 753 
L 1184 63 
z
" transform="scale(0.015625)"/>
       </defs>
       <use xlink:href="#IPAexGothic-30"/>
       <use xlink:href="#IPAexGothic-2e" x="62.988281"/>
       <use xlink:href="#IPAexGothic-30" x="89.404297"/>
      </g>
     </g>
    </g>
    <g id="ytick_2">
     <g id="line2d_10">
      <g>
       <use xlink:href="#mbaccaf2dfa" x="63.21" y="162.173207" style="stroke: #000000"/>
      </g>
     </g>
     <g id="text_11">
      <!-- 0.5 -->
      <g transform="translate(32.279688 168.914769) scale(0.18 -0.18)">
       <defs>
        <path id="IPAexGothic-35" d="M 1178 2603 
Q 1634 2963 2172 2963 
Q 2816 2963 3241 2528 
Q 3638 2113 3638 1497 
Q 3638 938 3297 513 
Q 2869 -31 2031 -31 
Q 959 -31 469 784 
L 938 1028 
Q 1309 434 2013 434 
Q 2466 434 2769 716 
Q 3081 1013 3081 1503 
Q 3081 1966 2806 2241 
Q 2519 2528 2056 2528 
Q 1406 2528 1072 2028 
L 591 2091 
L 884 4634 
L 3406 4634 
L 3406 4153 
L 1341 4153 
L 1134 2603 
L 1178 2603 
z
" transform="scale(0.015625)"/>
       </defs>
       <use xlink:href="#IPAexGothic-30"/>
       <use xlink:href="#IPAexGothic-2e" x="62.988281"/>
       <use xlink:href="#IPAexGothic-35" x="89.404297"/>
      </g>
     </g>
    </g>
    <g id="ytick_3">
     <g id="line2d_11">
      <g>
       <use xlink:href="#mbaccaf2dfa" x="63.21" y="46.62114" style="stroke: #000000"/>
      </g>
     </g>
     <g id="text_12">
      <!-- 1.0 -->
      <g transform="translate(32.279688 53.362703) scale(0.18 -0.18)">
       <defs>
        <path id="IPAexGothic-31" d="M 2463 63 
L 1900 63 
L 1900 4103 
Q 1372 3922 788 3797 
L 684 4231 
Q 1519 4441 2106 4731 
L 2463 4731 
L 2463 63 
z
" transform="scale(0.015625)"/>
       </defs>
       <use xlink:href="#IPAexGothic-31"/>
       <use xlink:href="#IPAexGothic-2e" x="62.988281"/>
       <use xlink:href="#IPAexGothic-30" x="89.404297"/>
      </g>
     </g>
    </g>
    <g id="text_13">
     <!-- スペクトル強度 -->
     <g transform="translate(24.859688 213.618) rotate(-90) scale(0.18 -0.18)">
      <defs>
       <path id="IPAexGothic-30b9" d="M 4359 4481 
L 4716 4147 
Q 4328 3072 3647 2150 
Q 4659 1434 5659 453 
L 5234 19 
Q 4256 1088 3353 1778 
Q 2372 597 1044 -31 
L 653 403 
Q 3128 1453 4097 4000 
L 1241 3963 
L 1228 4453 
L 4359 4481 
z
" transform="scale(0.015625)"/>
       <path id="IPAexGothic-30da" d="M 428 1938 
Q 1119 2494 2100 3628 
Q 2356 3922 2566 3922 
Q 2772 3922 3181 3531 
Q 4325 2425 5950 1303 
L 5600 813 
Q 3991 2028 2816 3188 
Q 2653 3341 2584 3341 
Q 2513 3341 2291 3072 
Q 1703 2331 775 1478 
L 428 1938 
z
M 4750 4756 
Q 5059 4756 5269 4522 
Q 5453 4319 5453 4053 
Q 5453 3738 5219 3525 
Q 5016 3341 4750 3341 
Q 4434 3341 4222 3575 
Q 4038 3778 4038 4053 
Q 4038 4363 4272 4572 
Q 4478 4756 4750 4756 
z
M 4750 4475 
Q 4559 4475 4428 4334 
Q 4319 4213 4319 4053 
Q 4319 3859 4459 3731 
Q 4584 3622 4750 3622 
Q 4934 3622 5063 3763 
Q 5172 3888 5172 4053 
Q 5172 4238 5031 4366 
Q 4909 4475 4750 4475 
z
" transform="scale(0.015625)"/>
       <path id="IPAexGothic-30af" d="M 4934 4191 
L 5272 3941 
Q 4894 2334 4031 1300 
Q 3275 391 2028 -225 
L 1656 184 
Q 2875 691 3641 1625 
Q 4403 2553 4691 3731 
L 2903 3731 
Q 2188 2653 1356 1959 
L 978 2309 
Q 2328 3400 2931 5022 
L 3422 4881 
Q 3363 4672 3141 4191 
L 4934 4191 
z
" transform="scale(0.015625)"/>
       <path id="IPAexGothic-30c8" d="M 2284 4997 
L 2803 4997 
L 2803 3206 
Q 4088 2619 5216 1888 
L 4878 1369 
Q 3819 2175 2803 2688 
L 2803 -184 
L 2284 -184 
L 2284 4997 
z
" transform="scale(0.015625)"/>
       <path id="IPAexGothic-30eb" d="M 353 331 
Q 1313 994 1544 2022 
Q 1684 2650 1684 4397 
L 2203 4397 
L 2203 4153 
L 2203 4116 
Q 2203 2259 1934 1491 
Q 1619 588 744 -38 
L 353 331 
z
M 3125 4666 
L 3650 4666 
L 3650 769 
Q 4875 1488 5672 2734 
L 6000 2278 
Q 5075 966 3516 63 
L 3125 359 
L 3125 4666 
z
" transform="scale(0.015625)"/>
       <path id="IPAexGothic-5f37" d="M 2144 2222 
Q 2097 375 1928 -141 
Q 1822 -469 1356 -469 
Q 1025 -469 684 -409 
L 622 50 
Q 1050 -41 1256 -41 
Q 1497 -41 1544 159 
Q 1653 597 1703 1759 
L 1703 1831 
L 819 1831 
Q 791 1603 756 1384 
L 353 1478 
Q 528 2644 556 3597 
L 1697 3597 
L 1697 4588 
L 378 4588 
L 378 4978 
L 2106 4978 
L 2106 2888 
L 1697 2888 
L 1697 3213 
L 941 3213 
Q 934 2869 872 2222 
L 2144 2222 
z
M 3931 3394 
L 3375 3347 
Q 2628 3294 2459 3284 
L 2331 3700 
Q 2772 3709 2963 3719 
Q 3431 4450 3778 5325 
L 4231 5172 
Q 3809 4281 3431 3738 
L 3669 3750 
Q 4434 3784 5147 3859 
Q 4888 4225 4675 4456 
L 5000 4678 
Q 5547 4103 5959 3450 
L 5588 3188 
Q 5419 3456 5359 3547 
Q 4900 3478 4347 3431 
L 4347 2784 
L 5666 2784 
L 5666 1209 
L 4347 1209 
L 4347 231 
Q 4872 272 5288 331 
Q 5119 644 4944 881 
L 5322 1056 
Q 5772 475 6094 -238 
L 5678 -500 
Q 5594 -278 5456 13 
L 5416 6 
Q 4275 -225 2406 -359 
L 2259 97 
Q 3019 122 3853 184 
L 3931 191 
L 3931 1209 
L 3053 1209 
L 3053 844 
L 2638 844 
L 2638 2784 
L 3931 2784 
L 3931 3394 
z
M 3931 2413 
L 3053 2413 
L 3053 1581 
L 3931 1581 
L 3931 2413 
z
M 4347 2413 
L 4347 1581 
L 5244 1581 
L 5244 2413 
L 4347 2413 
z
" transform="scale(0.015625)"/>
       <path id="IPAexGothic-5ea6" d="M 3516 4622 
L 5794 4622 
L 5794 4231 
L 1278 4231 
L 1278 3547 
L 2328 3547 
L 2328 4041 
L 2759 4041 
L 2759 3547 
L 4097 3547 
L 4097 4041 
L 4525 4041 
L 4525 3547 
L 5825 3547 
L 5825 3163 
L 4525 3163 
L 4525 2266 
L 2328 2266 
L 2328 3163 
L 1278 3163 
L 1278 2747 
Q 1278 1434 1131 775 
Q 1006 203 606 -441 
L 269 -50 
Q 653 541 763 1381 
Q 825 1869 825 2747 
L 825 4622 
L 3034 4622 
L 3034 5313 
L 3516 5313 
L 3516 4622 
z
M 2759 3163 
L 2759 2619 
L 4097 2619 
L 4097 3163 
L 2759 3163 
z
M 3609 263 
Q 2784 -231 1472 -494 
L 1222 -97 
Q 2444 63 3213 491 
Q 2544 909 2119 1522 
L 1575 1522 
L 1575 1900 
L 4897 1900 
L 5125 1700 
Q 4628 994 3994 516 
Q 4769 200 5925 56 
L 5638 -397 
Q 4434 -163 3609 263 
z
M 2606 1522 
Q 2984 1044 3578 716 
Q 4163 1119 4422 1522 
L 2606 1522 
z
" transform="scale(0.015625)"/>
      </defs>
      <use xlink:href="#IPAexGothic-30b9"/>
      <use xlink:href="#IPAexGothic-30da" x="100"/>
      <use xlink:href="#IPAexGothic-30af" x="200"/>
      <use xlink:href="#IPAexGothic-30c8" x="300"/>
      <use xlink:href="#IPAexGothic-30eb" x="400"/>
      <use xlink:href="#IPAexGothic-5f37" x="500"/>
      <use xlink:href="#IPAexGothic-5ea6" x="600"/>
     </g>
    </g>
   </g>
   <g id="LineCollection_1">
    <path d="M 144.723595 277.725273 
L 144.723595 23.510727 
" clip-path="url(#p3cd0d5be08)" style="fill: none; stroke-dasharray: 2.5,4.125; stroke-dashoffset: 0; stroke: #000000; stroke-width: 2.5"/>
    <path d="M 176.689711 277.725273 
L 176.689711 23.510727 
" clip-path="url(#p3cd0d5be08)" style="fill: none; stroke-dasharray: 2.5,4.125; stroke-dashoffset: 0; stroke: #000000; stroke-width: 2.5"/>
    <path d="M 208.655826 277.725273 
L 208.655826 23.510727 
" clip-path="url(#p3cd0d5be08)" style="fill: none; stroke-dasharray: 2.5,4.125; stroke-dashoffset: 0; stroke: #000000; stroke-width: 2.5"/>
    <path d="M 240.621942 277.725273 
L 240.621942 23.510727 
" clip-path="url(#p3cd0d5be08)" style="fill: none; stroke-dasharray: 2.5,4.125; stroke-dashoffset: 0; stroke: #000000; stroke-width: 2.5"/>
    <path d="M 272.588058 277.725273 
L 272.588058 23.510727 
" clip-path="url(#p3cd0d5be08)" style="fill: none; stroke-dasharray: 2.5,4.125; stroke-dashoffset: 0; stroke: #000000; stroke-width: 2.5"/>
    <path d="M 304.554174 277.725273 
L 304.554174 23.510727 
" clip-path="url(#p3cd0d5be08)" style="fill: none; stroke-dasharray: 2.5,4.125; stroke-dashoffset: 0; stroke: #000000; stroke-width: 2.5"/>
    <path d="M 336.520289 277.725273 
L 336.520289 23.510727 
" clip-path="url(#p3cd0d5be08)" style="fill: none; stroke-dasharray: 2.5,4.125; stroke-dashoffset: 0; stroke: #000000; stroke-width: 2.5"/>
    <path d="M 368.486405 277.725273 
L 368.486405 23.510727 
" clip-path="url(#p3cd0d5be08)" style="fill: none; stroke-dasharray: 2.5,4.125; stroke-dashoffset: 0; stroke: #000000; stroke-width: 2.5"/>
   </g>
   <g id="line2d_12">
    <path d="M 80.791364 277.725273 
L 86.417963 273.346667 
L 88.914766 271.701121 
L 91.024741 270.567628 
L 92.923718 269.795592 
L 94.68203 269.317918 
L 96.37001 269.09052 
L 97.987657 269.09374 
L 99.605304 269.31601 
L 101.258118 269.766224 
L 102.981264 270.465855 
L 104.845074 271.46756 
L 106.919883 272.845852 
L 109.346354 274.739853 
L 112.651981 277.629974 
L 112.827812 277.661696 
L 118.348912 272.8154 
L 120.810549 270.971291 
L 122.850191 269.711897 
L 124.678836 268.838595 
L 126.366816 268.276155 
L 127.949297 267.978716 
L 129.496611 267.91303 
L 131.00876 268.068238 
L 132.556075 268.450866 
L 134.173722 269.08651 
L 135.861702 269.99286 
L 137.690346 271.2302 
L 139.765155 272.911125 
L 142.261958 275.234997 
L 144.723595 277.725273 
L 144.829094 277.616263 
L 150.38536 272.030779 
L 152.741499 269.998201 
L 154.710808 268.580493 
L 156.469121 267.582122 
L 158.086768 266.917284 
L 159.598916 266.534591 
L 161.040732 266.395813 
L 162.447382 266.478921 
L 163.889198 266.789513 
L 165.36618 267.341107 
L 166.913495 268.163409 
L 168.566308 269.300998 
L 170.394953 270.841021 
L 172.469761 272.891348 
L 175.036897 275.759414 
L 176.689711 277.725273 
L 176.760043 277.640496 
L 182.492141 270.90001 
L 184.777947 268.588513 
L 186.676924 266.972639 
L 188.364904 265.82277 
L 189.877052 265.053426 
L 191.283702 264.57854 
L 192.620019 264.354422 
L 193.92117 264.355841 
L 195.222321 264.577242 
L 196.558639 265.033265 
L 197.930122 265.737735 
L 199.407104 266.75398 
L 200.989585 268.120467 
L 202.747897 269.942445 
L 204.752373 272.349852 
L 207.249177 275.715513 
L 208.655826 277.725273 
L 208.726159 277.623533 
L 214.70442 269.16139 
L 216.884728 266.504379 
L 218.713372 264.61265 
L 220.295853 263.280728 
L 221.737669 262.348146 
L 223.073986 261.744802 
L 224.304805 261.424667 
L 225.500457 261.338418 
L 226.69611 261.47863 
L 227.891762 261.847207 
L 229.12258 262.463902 
L 230.423731 263.372311 
L 231.830381 264.639587 
L 233.34253 266.31206 
L 235.030509 268.522657 
L 236.964653 271.436331 
L 239.355957 275.465387 
L 240.621942 277.725273 
L 240.692275 277.598084 
L 247.19803 266.049378 
L 249.272838 262.903492 
L 250.995984 260.675465 
L 252.508133 259.071195 
L 253.84445 257.96373 
L 255.075268 257.224728 
L 256.200588 256.799587 
L 257.290742 256.62574 
L 258.345729 256.686839 
L 259.400716 256.977268 
L 260.455704 257.498391 
L 261.581024 258.30733 
L 262.776676 259.44827 
L 264.077827 261.008839 
L 265.484477 263.050552 
L 267.066958 265.752688 
L 268.860436 269.270367 
L 271.005577 273.988688 
L 272.588058 277.725273 
L 272.65839 277.555656 
L 280.289465 259.417469 
L 282.188442 255.663947 
L 283.770923 252.999435 
L 285.142407 251.097467 
L 286.373225 249.753289 
L 287.463379 248.874297 
L 288.448034 248.34758 
L 289.362356 248.09574 
L 290.241512 248.076064 
L 291.120668 248.279659 
L 291.999824 248.710146 
L 292.949313 249.432315 
L 293.969134 250.506135 
L 295.059288 251.993159 
L 296.25494 254.019707 
L 297.556091 256.679736 
L 298.997907 260.151063 
L 300.615554 264.646456 
L 302.479365 270.511181 
L 304.554174 277.725273 
L 304.624506 277.470755 
L 307.930133 265.0765 
L 312.220415 249.132966 
L 314.365556 242.026332 
L 316.053535 237.161349 
L 317.495351 233.654511 
L 318.72617 231.214944 
L 319.781157 229.577978 
L 320.730646 228.493725 
L 321.574636 227.859246 
L 322.313127 227.57094 
L 323.016452 227.537023 
L 323.68461 227.729213 
L 324.387935 228.17425 
L 325.126426 228.915989 
L 325.93525 230.058039 
L 326.814406 231.697836 
L 327.799061 234.035029 
L 328.854048 237.132823 
L 330.014534 241.253417 
L 331.280519 246.597991 
L 332.652002 253.374434 
L 334.164151 262.001939 
L 335.816964 272.753903 
L 336.520289 277.725273 
L 336.555456 277.470753 
L 338.489599 262.647681 
L 340.705072 243.886509 
L 343.412873 218.94424 
L 347.527324 178.680731 
L 352.345099 132.059838 
L 354.947401 109.02716 
L 357.057376 92.241513 
L 358.88602 79.415774 
L 360.468501 69.806029 
L 361.875151 62.542211 
L 363.141136 57.104997 
L 364.266456 53.189474 
L 365.286277 50.412222 
L 366.165433 48.620019 
L 366.93909 47.510816 
L 367.607249 46.90858 
L 368.205075 46.650584 
L 368.767735 46.650584 
L 369.330395 46.886052 
L 369.928221 47.39375 
L 370.59638 48.273852 
L 371.334871 49.627885 
L 372.178861 51.660171 
L 373.128349 54.554477 
L 374.183336 58.507502 
L 375.378989 63.894272 
L 376.715306 71.001886 
L 378.192288 80.107472 
L 379.880268 91.978832 
L 381.814411 107.263633 
L 384.100217 127.219649 
L 387.019015 154.802409 
L 396.478735 245.74541 
L 398.834873 265.458685 
L 400.452521 277.725273 
L 402.316332 265.064005 
L 404.004311 255.081331 
L 405.51646 247.409858 
L 406.92311 241.38994 
L 408.189094 236.90711 
L 409.34958 233.578579 
L 410.404568 231.196456 
L 411.354056 229.569671 
L 412.198046 228.527321 
L 412.971703 227.898305 
L 413.675028 227.590932 
L 414.343187 227.526143 
L 415.011346 227.676489 
L 415.714671 228.059777 
L 416.488328 228.738003 
L 417.367484 229.820044 
L 418.352139 231.402404 
L 419.477459 233.654511 
L 420.77861 236.790969 
L 422.290758 241.058911 
L 424.084237 246.827524 
L 426.405209 255.103428 
L 432.418636 277.725273 
L 432.418636 277.725273 
" clip-path="url(#p3cd0d5be08)" style="fill: none; stroke: #1f77b4; stroke-width: 3; stroke-linecap: square"/>
   </g>
   <g id="line2d_13">
    <path d="M 80.791364 277.725273 
L 86.417963 272.787028 
L 88.844433 270.971291 
L 90.884076 269.711897 
L 92.71272 268.838595 
L 94.4007 268.276155 
L 95.983181 267.978716 
L 97.530496 267.91303 
L 99.042644 268.068238 
L 100.589959 268.450866 
L 102.207606 269.08651 
L 103.895586 269.99286 
L 105.724231 271.2302 
L 107.799039 272.911125 
L 110.295842 275.234997 
L 112.757479 277.725273 
L 112.862978 277.616263 
L 118.419245 272.030779 
L 120.775383 269.998201 
L 122.744693 268.580493 
L 124.503005 267.582122 
L 126.120652 266.917284 
L 127.632801 266.534591 
L 129.074617 266.395813 
L 130.481266 266.478921 
L 131.923082 266.789513 
L 133.400065 267.341107 
L 134.947379 268.163409 
L 136.600193 269.300998 
L 138.428837 270.841021 
L 140.503646 272.891348 
L 143.070782 275.759414 
L 144.723595 277.725273 
L 144.793928 277.640496 
L 150.526025 270.90001 
L 152.811831 268.588513 
L 154.710808 266.972639 
L 156.398788 265.82277 
L 157.910937 265.053426 
L 159.317586 264.57854 
L 160.653904 264.354422 
L 161.955055 264.355841 
L 163.256206 264.577242 
L 164.592523 265.033265 
L 165.964006 265.737735 
L 167.440989 266.75398 
L 169.02347 268.120467 
L 170.781782 269.942445 
L 172.786258 272.349852 
L 175.283061 275.715513 
L 176.689711 277.725273 
L 176.760043 277.623533 
L 182.738305 269.16139 
L 184.918612 266.504379 
L 186.747256 264.61265 
L 188.329737 263.280728 
L 189.771553 262.348146 
L 191.107871 261.744802 
L 192.338689 261.424667 
L 193.534342 261.338418 
L 194.729994 261.47863 
L 195.925646 261.847207 
L 197.156465 262.463902 
L 198.457616 263.372311 
L 199.864265 264.639587 
L 201.376414 266.31206 
L 203.064394 268.522657 
L 204.998537 271.436331 
L 207.389842 275.465387 
L 208.655826 277.725273 
L 208.726159 277.598084 
L 215.231914 266.049378 
L 217.306722 262.903492 
L 219.029868 260.675465 
L 220.542017 259.071195 
L 221.878334 257.96373 
L 223.109153 257.224728 
L 224.234472 256.799587 
L 225.324626 256.62574 
L 226.379613 256.686839 
L 227.434601 256.977268 
L 228.489588 257.498391 
L 229.614908 258.30733 
L 230.81056 259.44827 
L 232.111711 261.008839 
L 233.518361 263.050552 
L 235.100842 265.752688 
L 236.89432 269.270367 
L 239.039461 273.988688 
L 240.621942 277.725273 
L 240.692275 277.555656 
L 248.32335 259.417469 
L 250.222327 255.663947 
L 251.804808 252.999435 
L 253.176291 251.097467 
L 254.40711 249.753289 
L 255.497263 248.874297 
L 256.481918 248.34758 
L 257.39624 248.09574 
L 258.275397 248.076064 
L 259.154553 248.279659 
L 260.033709 248.710146 
L 260.983197 249.432315 
L 262.003018 250.506135 
L 263.093172 251.993159 
L 264.288824 254.019707 
L 265.589975 256.679736 
L 267.031791 260.151063 
L 268.649439 264.646456 
L 270.513249 270.511181 
L 272.588058 277.725273 
L 272.65839 277.470755 
L 275.964017 265.0765 
L 280.254299 249.132966 
L 282.39944 242.026332 
L 284.08742 237.161349 
L 285.529236 233.654511 
L 286.760054 231.214944 
L 287.815041 229.577978 
L 288.76453 228.493725 
L 289.60852 227.859246 
L 290.347011 227.57094 
L 291.050336 227.537023 
L 291.718495 227.729213 
L 292.421819 228.17425 
L 293.160311 228.915989 
L 293.969134 230.058039 
L 294.84829 231.697836 
L 295.832945 234.035029 
L 296.887932 237.132823 
L 298.048418 241.253417 
L 299.314403 246.597991 
L 300.685887 253.374434 
L 302.198035 262.001939 
L 303.850849 272.753903 
L 304.554174 277.725273 
L 304.58934 277.470753 
L 306.523483 262.647681 
L 308.738957 243.886509 
L 311.446757 218.94424 
L 315.561208 178.680731 
L 320.378983 132.059838 
L 322.981285 109.02716 
L 325.09126 92.241513 
L 326.919905 79.415774 
L 328.502386 69.806029 
L 329.909035 62.542211 
L 331.17502 57.104997 
L 332.30034 53.189474 
L 333.320161 50.412222 
L 334.199317 48.620019 
L 334.972975 47.510816 
L 335.641133 46.90858 
L 336.238959 46.650584 
L 336.801619 46.650584 
L 337.364279 46.886052 
L 337.962105 47.39375 
L 338.630264 48.273852 
L 339.368755 49.627885 
L 340.212745 51.660171 
L 341.162233 54.554477 
L 342.217221 58.507502 
L 343.412873 63.894272 
L 344.74919 71.001886 
L 346.226173 80.107472 
L 347.914152 91.978832 
L 349.848296 107.263633 
L 352.134102 127.219649 
L 355.0529 154.802409 
L 364.512619 245.74541 
L 366.868758 265.458685 
L 368.486405 277.725273 
L 370.350216 265.064005 
L 372.038196 255.081331 
L 373.550344 247.409858 
L 374.956994 241.38994 
L 376.222979 236.90711 
L 377.383465 233.578579 
L 378.438452 231.196456 
L 379.387941 229.569671 
L 380.23193 228.527321 
L 381.005588 227.898305 
L 381.708913 227.590932 
L 382.377071 227.526143 
L 383.04523 227.676489 
L 383.748555 228.059777 
L 384.522212 228.738003 
L 385.401368 229.820044 
L 386.386023 231.402404 
L 387.511343 233.654511 
L 388.812494 236.790969 
L 390.324642 241.058911 
L 392.118121 246.827524 
L 394.439093 255.103428 
L 400.452521 277.725273 
L 400.522853 277.471314 
L 402.98449 269.011883 
L 404.9538 263.01516 
L 406.64178 258.561733 
L 408.118762 255.255876 
L 409.455079 252.778104 
L 410.685898 250.947741 
L 411.811217 249.663268 
L 412.831039 248.823683 
L 413.780527 248.319282 
L 414.694849 248.084078 
L 415.574006 248.08606 
L 416.453162 248.306697 
L 417.40265 248.783215 
L 418.422471 249.55966 
L 419.512625 250.676901 
L 420.743443 252.270317 
L 422.114927 254.422082 
L 423.697408 257.334142 
L 425.596385 261.321909 
L 428.058022 267.049997 
L 432.418636 277.725273 
L 432.418636 277.725273 
" clip-path="url(#p3cd0d5be08)" style="fill: none; stroke: #ff7f0e; stroke-width: 3; stroke-linecap: square"/>
   </g>
   <g id="line2d_14">
    <path d="M 80.791364 277.725273 
L 86.488295 271.998248 
L 88.844433 269.970415 
L 90.813743 268.557911 
L 92.572055 267.564991 
L 94.189703 266.905704 
L 95.701851 266.528546 
L 97.143667 266.395246 
L 98.550317 266.483784 
L 99.992133 266.799923 
L 101.469115 267.357063 
L 103.01643 268.184898 
L 104.669243 269.327941 
L 106.497888 270.873269 
L 108.572696 272.928463 
L 111.174998 275.841692 
L 112.757479 277.725273 
L 112.827812 277.640496 
L 118.55991 270.90001 
L 120.845715 268.588513 
L 122.744693 266.972639 
L 124.432672 265.82277 
L 125.944821 265.053426 
L 127.351471 264.57854 
L 128.687788 264.354422 
L 129.988939 264.355841 
L 131.29009 264.577242 
L 132.626407 265.033265 
L 133.997891 265.737735 
L 135.474873 266.75398 
L 137.057354 268.120467 
L 138.815666 269.942445 
L 140.820142 272.349852 
L 143.316945 275.715513 
L 144.723595 277.725273 
L 144.793928 277.623533 
L 150.772189 269.16139 
L 152.952496 266.504379 
L 154.781141 264.61265 
L 156.363622 263.280728 
L 157.805438 262.348146 
L 159.141755 261.744802 
L 160.372574 261.424667 
L 161.568226 261.338418 
L 162.763878 261.47863 
L 163.95953 261.847207 
L 165.190349 262.463902 
L 166.4915 263.372311 
L 167.89815 264.639587 
L 169.410298 266.31206 
L 171.098278 268.522657 
L 173.032421 271.436331 
L 175.423726 275.465387 
L 176.689711 277.725273 
L 176.760043 277.598084 
L 183.265798 266.049378 
L 185.340607 262.903492 
L 187.063753 260.675465 
L 188.575901 259.071195 
L 189.912218 257.96373 
L 191.143037 257.224728 
L 192.268357 256.799587 
L 193.35851 256.62574 
L 194.413498 256.686839 
L 195.468485 256.977268 
L 196.523472 257.498391 
L 197.648792 258.30733 
L 198.844444 259.44827 
L 200.145595 261.008839 
L 201.552245 263.050552 
L 203.134726 265.752688 
L 204.928205 269.270367 
L 207.073345 273.988688 
L 208.655826 277.725273 
L 208.726159 277.555656 
L 216.357234 259.417469 
L 218.256211 255.663947 
L 219.838692 252.999435 
L 221.210176 251.097467 
L 222.440994 249.753289 
L 223.531148 248.874297 
L 224.515802 248.34758 
L 225.430125 248.09574 
L 226.309281 248.076064 
L 227.188437 248.279659 
L 228.067593 248.710146 
L 229.017082 249.432315 
L 230.036903 250.506135 
L 231.127056 251.993159 
L 232.322709 254.019707 
L 233.62386 256.679736 
L 235.065676 260.151063 
L 236.683323 264.646456 
L 238.547134 270.511181 
L 240.621942 277.725273 
L 240.692275 277.470755 
L 243.997902 265.0765 
L 248.288183 249.132966 
L 250.433324 242.026332 
L 252.121304 237.161349 
L 253.56312 233.654511 
L 254.793938 231.214944 
L 255.848926 229.577978 
L 256.798414 228.493725 
L 257.642404 227.859246 
L 258.380895 227.57094 
L 259.08422 227.537023 
L 259.752379 227.729213 
L 260.455704 228.17425 
L 261.194195 228.915989 
L 262.003018 230.058039 
L 262.882175 231.697836 
L 263.866829 234.035029 
L 264.921817 237.132823 
L 266.082303 241.253417 
L 267.348288 246.597991 
L 268.719771 253.374434 
L 270.23192 262.001939 
L 271.884733 272.753903 
L 272.588058 277.725273 
L 272.623224 277.470753 
L 274.557368 262.647681 
L 276.772841 243.886509 
L 279.480642 218.94424 
L 283.595092 178.680731 
L 288.412868 132.059838 
L 291.01517 109.02716 
L 293.125144 92.241513 
L 294.953789 79.415774 
L 296.53627 69.806029 
L 297.94292 62.542211 
L 299.208904 57.104997 
L 300.334224 53.189474 
L 301.354045 50.412222 
L 302.233201 48.620019 
L 303.006859 47.510816 
L 303.675017 46.90858 
L 304.272844 46.650584 
L 304.835504 46.650584 
L 305.398163 46.886052 
L 305.99599 47.39375 
L 306.664148 48.273852 
L 307.402639 49.627885 
L 308.246629 51.660171 
L 309.196118 54.554477 
L 310.251105 58.507502 
L 311.446757 63.894272 
L 312.783075 71.001886 
L 314.260057 80.107472 
L 315.948037 91.978832 
L 317.88218 107.263633 
L 320.167986 127.219649 
L 323.086784 154.802409 
L 332.546504 245.74541 
L 334.902642 265.458685 
L 336.520289 277.725273 
L 338.3841 265.064005 
L 340.07208 255.081331 
L 341.584228 247.409858 
L 342.990878 241.38994 
L 344.256863 236.90711 
L 345.417349 233.578579 
L 346.472336 231.196456 
L 347.421825 229.569671 
L 348.265815 228.527321 
L 349.039472 227.898305 
L 349.742797 227.590932 
L 350.410956 227.526143 
L 351.079114 227.676489 
L 351.782439 228.059777 
L 352.556096 228.738003 
L 353.435253 229.820044 
L 354.419907 231.402404 
L 355.545227 233.654511 
L 356.846378 236.790969 
L 358.358527 241.058911 
L 360.152005 246.827524 
L 362.472977 255.103428 
L 368.486405 277.725273 
L 368.556737 277.471314 
L 371.018375 269.011883 
L 372.987684 263.01516 
L 374.675664 258.561733 
L 376.152646 255.255876 
L 377.488963 252.778104 
L 378.719782 250.947741 
L 379.845102 249.663268 
L 380.864923 248.823683 
L 381.814411 248.319282 
L 382.728734 248.084078 
L 383.60789 248.08606 
L 384.487046 248.306697 
L 385.436535 248.783215 
L 386.456356 249.55966 
L 387.546509 250.676901 
L 388.777328 252.270317 
L 390.148811 254.422082 
L 391.731292 257.334142 
L 393.630269 261.321909 
L 396.091906 267.049997 
L 400.452521 277.725273 
L 400.522853 277.555905 
L 403.371319 270.992298 
L 405.446127 266.740528 
L 407.204439 263.615447 
L 408.751754 261.292187 
L 410.158404 259.562598 
L 411.459555 258.30733 
L 412.655207 257.45648 
L 413.780527 256.925221 
L 414.835514 256.665499 
L 415.890502 256.634749 
L 416.945489 256.828973 
L 418.035643 257.259375 
L 419.196129 257.96373 
L 420.462113 259.005372 
L 421.833597 260.430714 
L 423.380912 262.369689 
L 425.17439 264.98875 
L 427.389863 268.644576 
L 430.730657 274.64774 
L 432.418636 277.725273 
L 432.418636 277.725273 
" clip-path="url(#p3cd0d5be08)" style="fill: none; stroke: #2ca02c; stroke-width: 3; stroke-linecap: square"/>
   </g>
   <g id="line2d_15">
    <path d="M 80.791364 277.725273 
L 86.62896 270.861972 
L 88.914766 268.555829 
L 90.813743 266.945775 
L 92.466557 265.82277 
L 93.978705 265.053426 
L 95.385355 264.57854 
L 96.721672 264.354422 
L 98.022823 264.355841 
L 99.323974 264.577242 
L 100.660291 265.033265 
L 102.031775 265.737735 
L 103.508757 266.75398 
L 105.091238 268.120467 
L 106.84955 269.942445 
L 108.854026 272.349852 
L 111.35083 275.715513 
L 112.757479 277.725273 
L 112.827812 277.623533 
L 118.806073 269.16139 
L 120.98638 266.504379 
L 122.815025 264.61265 
L 124.397506 263.280728 
L 125.839322 262.348146 
L 127.175639 261.744802 
L 128.406458 261.424667 
L 129.60211 261.338418 
L 130.797762 261.47863 
L 131.993415 261.847207 
L 133.224233 262.463902 
L 134.525384 263.372311 
L 135.932034 264.639587 
L 137.444183 266.31206 
L 139.132162 268.522657 
L 141.066306 271.436331 
L 143.45761 275.465387 
L 144.723595 277.725273 
L 144.793928 277.598084 
L 151.299683 266.049378 
L 153.374491 262.903492 
L 155.097637 260.675465 
L 156.609785 259.071195 
L 157.946103 257.96373 
L 159.176921 257.224728 
L 160.302241 256.799587 
L 161.392395 256.62574 
L 162.447382 256.686839 
L 163.502369 256.977268 
L 164.557357 257.498391 
L 165.682676 258.30733 
L 166.878329 259.44827 
L 168.17948 261.008839 
L 169.586129 263.050552 
L 171.16861 265.752688 
L 172.962089 269.270367 
L 175.10723 273.988688 
L 176.689711 277.725273 
L 176.760043 277.555656 
L 184.391118 259.417469 
L 186.290095 255.663947 
L 187.872576 252.999435 
L 189.24406 251.097467 
L 190.474878 249.753289 
L 191.565032 248.874297 
L 192.549687 248.34758 
L 193.464009 248.09574 
L 194.343165 248.076064 
L 195.222321 248.279659 
L 196.101477 248.710146 
L 197.050966 249.432315 
L 198.070787 250.506135 
L 199.160941 251.993159 
L 200.356593 254.019707 
L 201.657744 256.679736 
L 203.09956 260.151063 
L 204.717207 264.646456 
L 206.581018 270.511181 
L 208.655826 277.725273 
L 208.726159 277.470755 
L 212.031786 265.0765 
L 216.322068 249.132966 
L 218.467208 242.026332 
L 220.155188 237.161349 
L 221.597004 233.654511 
L 222.827823 231.214944 
L 223.88281 229.577978 
L 224.832299 228.493725 
L 225.676288 227.859246 
L 226.41478 227.57094 
L 227.118104 227.537023 
L 227.786263 227.729213 
L 228.489588 228.17425 
L 229.228079 228.915989 
L 230.036903 230.058039 
L 230.916059 231.697836 
L 231.900714 234.035029 
L 232.955701 237.132823 
L 234.116187 241.253417 
L 235.382172 246.597991 
L 236.753655 253.374434 
L 238.265804 262.001939 
L 239.918617 272.753903 
L 240.621942 277.725273 
L 240.657108 277.470753 
L 242.591252 262.647681 
L 244.806725 243.886509 
L 247.514526 218.94424 
L 251.628976 178.680731 
L 256.446752 132.059838 
L 259.049054 109.02716 
L 261.159029 92.241513 
L 262.987673 79.415774 
L 264.570154 69.806029 
L 265.976804 62.542211 
L 267.242789 57.104997 
L 268.368109 53.189474 
L 269.38793 50.412222 
L 270.267086 48.620019 
L 271.040743 47.510816 
L 271.708902 46.90858 
L 272.306728 46.650584 
L 272.869388 46.650584 
L 273.432048 46.886052 
L 274.029874 47.39375 
L 274.698032 48.273852 
L 275.436524 49.627885 
L 276.280513 51.660171 
L 277.230002 54.554477 
L 278.284989 58.507502 
L 279.480642 63.894272 
L 280.816959 71.001886 
L 282.293941 80.107472 
L 283.981921 91.978832 
L 285.916064 107.263633 
L 288.20187 127.219649 
L 291.120668 154.802409 
L 300.580388 245.74541 
L 302.936526 265.458685 
L 304.554174 277.725273 
L 306.417984 265.064005 
L 308.105964 255.081331 
L 309.618113 247.409858 
L 311.024762 241.38994 
L 312.290747 236.90711 
L 313.451233 233.578579 
L 314.506221 231.196456 
L 315.455709 229.569671 
L 316.299699 228.527321 
L 317.073356 227.898305 
L 317.776681 227.590932 
L 318.44484 227.526143 
L 319.112999 227.676489 
L 319.816323 228.059777 
L 320.589981 228.738003 
L 321.469137 229.820044 
L 322.453792 231.402404 
L 323.579112 233.654511 
L 324.880263 236.790969 
L 326.392411 241.058911 
L 328.185889 246.827524 
L 330.506862 255.103428 
L 336.520289 277.725273 
L 336.590622 277.471314 
L 339.052259 269.011883 
L 341.021568 263.01516 
L 342.709548 258.561733 
L 344.18653 255.255876 
L 345.522848 252.778104 
L 346.753666 250.947741 
L 347.878986 249.663268 
L 348.898807 248.823683 
L 349.848296 248.319282 
L 350.762618 248.084078 
L 351.641774 248.08606 
L 352.52093 248.306697 
L 353.470419 248.783215 
L 354.49024 249.55966 
L 355.580393 250.676901 
L 356.811212 252.270317 
L 358.182695 254.422082 
L 359.765176 257.334142 
L 361.664154 261.321909 
L 364.125791 267.049997 
L 368.486405 277.725273 
L 368.556737 277.555905 
L 371.405203 270.992298 
L 373.480012 266.740528 
L 375.238324 263.615447 
L 376.785639 261.292187 
L 378.192288 259.562598 
L 379.493439 258.30733 
L 380.689092 257.45648 
L 381.814411 256.925221 
L 382.869399 256.665499 
L 383.924386 256.634749 
L 384.979373 256.828973 
L 386.069527 257.259375 
L 387.230013 257.96373 
L 388.495998 259.005372 
L 389.867481 260.430714 
L 391.414796 262.369689 
L 393.208274 264.98875 
L 395.423748 268.644576 
L 398.764541 274.64774 
L 400.452521 277.725273 
L 400.487687 277.66173 
L 403.652649 272.175102 
L 405.832956 268.822126 
L 407.661601 266.397221 
L 409.279248 264.604422 
L 410.75623 263.289038 
L 412.127714 262.361205 
L 413.393698 261.765581 
L 414.624517 261.431112 
L 415.820169 261.337781 
L 417.015822 261.470141 
L 418.24664 261.836303 
L 419.512625 262.446633 
L 420.884108 263.359842 
L 422.396257 264.645643 
L 424.084237 266.386057 
L 426.053546 268.75309 
L 428.55035 272.130345 
L 432.418636 277.725273 
L 432.418636 277.725273 
" clip-path="url(#p3cd0d5be08)" style="fill: none; stroke: #d62728; stroke-width: 3; stroke-linecap: square"/>
   </g>
   <g id="line2d_16">
    <path d="M 80.791364 277.725273 
L 86.91029 269.070072 
L 89.090597 266.425381 
L 90.919242 264.547088 
L 92.501723 263.228786 
L 93.943539 262.309971 
L 95.279856 261.720319 
L 96.510675 261.413399 
L 97.706327 261.340364 
L 98.901979 261.493986 
L 100.097632 261.87599 
L 101.32845 262.506333 
L 102.629601 263.428755 
L 104.036251 264.710439 
L 105.548399 266.397221 
L 107.236379 268.621941 
L 109.205689 271.605288 
L 111.63216 275.713205 
L 112.757479 277.725273 
L 112.792646 277.661695 
L 119.368733 265.992554 
L 121.443542 262.854212 
L 123.166688 260.634223 
L 124.678836 259.038182 
L 126.015153 257.938781 
L 127.245972 257.207756 
L 128.371292 256.79028 
L 129.426279 256.62574 
L 130.481266 256.686839 
L 131.536254 256.977268 
L 132.591241 257.498391 
L 133.716561 258.30733 
L 134.912213 259.44827 
L 136.213364 261.008839 
L 137.620014 263.050552 
L 139.202495 265.752688 
L 140.995973 269.270367 
L 143.141114 273.988688 
L 144.723595 277.725273 
L 144.793928 277.555656 
L 152.425002 259.417469 
L 154.32398 255.663947 
L 155.906461 252.999435 
L 157.277944 251.097467 
L 158.508763 249.753289 
L 159.598916 248.874297 
L 160.583571 248.34758 
L 161.497893 248.09574 
L 162.377049 248.076064 
L 163.256206 248.279659 
L 164.135362 248.710146 
L 165.08485 249.432315 
L 166.104671 250.506135 
L 167.194825 251.993159 
L 168.390477 254.019707 
L 169.691628 256.679736 
L 171.133444 260.151063 
L 172.751091 264.646456 
L 174.614902 270.511181 
L 176.689711 277.725273 
L 176.760043 277.470755 
L 180.06567 265.0765 
L 184.355952 249.132966 
L 186.501093 242.026332 
L 188.189072 237.161349 
L 189.630888 233.654511 
L 190.861707 231.214944 
L 191.916694 229.577978 
L 192.866183 228.493725 
L 193.710173 227.859246 
L 194.448664 227.57094 
L 195.151989 227.537023 
L 195.820147 227.729213 
L 196.523472 228.17425 
L 197.261963 228.915989 
L 198.070787 230.058039 
L 198.949943 231.697836 
L 199.934598 234.035029 
L 200.989585 237.132823 
L 202.150071 241.253417 
L 203.416056 246.597991 
L 204.78754 253.374434 
L 206.299688 262.001939 
L 207.952502 272.753903 
L 208.655826 277.725273 
L 208.690993 277.470753 
L 210.625136 262.647681 
L 212.840609 243.886509 
L 215.54841 218.94424 
L 219.662861 178.680731 
L 224.480636 132.059838 
L 227.082938 109.02716 
L 229.192913 92.241513 
L 231.021558 79.415774 
L 232.604039 69.806029 
L 234.010688 62.542211 
L 235.276673 57.104997 
L 236.401993 53.189474 
L 237.421814 50.412222 
L 238.30097 48.620019 
L 239.074627 47.510816 
L 239.742786 46.90858 
L 240.340612 46.650584 
L 240.903272 46.650584 
L 241.465932 46.886052 
L 242.063758 47.39375 
L 242.731917 48.273852 
L 243.470408 49.627885 
L 244.314398 51.660171 
L 245.263886 54.554477 
L 246.318874 58.507502 
L 247.514526 63.894272 
L 248.850843 71.001886 
L 250.327825 80.107472 
L 252.015805 91.978832 
L 253.949949 107.263633 
L 256.235754 127.219649 
L 259.154553 154.802409 
L 268.614272 245.74541 
L 270.970411 265.458685 
L 272.588058 277.725273 
L 274.451869 265.064005 
L 276.139848 255.081331 
L 277.651997 247.409858 
L 279.058647 241.38994 
L 280.324632 236.90711 
L 281.485118 233.578579 
L 282.540105 231.196456 
L 283.489593 229.569671 
L 284.333583 228.527321 
L 285.107241 227.898305 
L 285.810566 227.590932 
L 286.478724 227.526143 
L 287.146883 227.676489 
L 287.850208 228.059777 
L 288.623865 228.738003 
L 289.503021 229.820044 
L 290.487676 231.402404 
L 291.612996 233.654511 
L 292.914147 236.790969 
L 294.426295 241.058911 
L 296.219774 246.827524 
L 298.540746 255.103428 
L 304.554174 277.725273 
L 304.624506 277.471314 
L 307.086143 269.011883 
L 309.055453 263.01516 
L 310.743432 258.561733 
L 312.220415 255.255876 
L 313.556732 252.778104 
L 314.787551 250.947741 
L 315.91287 249.663268 
L 316.932691 248.823683 
L 317.88218 248.319282 
L 318.796502 248.084078 
L 319.675658 248.08606 
L 320.554815 248.306697 
L 321.504303 248.783215 
L 322.524124 249.55966 
L 323.614278 250.676901 
L 324.845096 252.270317 
L 326.21658 254.422082 
L 327.799061 257.334142 
L 329.698038 261.321909 
L 332.159675 267.049997 
L 336.520289 277.725273 
L 336.590622 277.555905 
L 339.439087 270.992298 
L 341.513896 266.740528 
L 343.272208 263.615447 
L 344.819523 261.292187 
L 346.226173 259.562598 
L 347.527324 258.30733 
L 348.722976 257.45648 
L 349.848296 256.925221 
L 350.903283 256.665499 
L 351.95827 256.634749 
L 353.013258 256.828973 
L 354.103411 257.259375 
L 355.263897 257.96373 
L 356.529882 259.005372 
L 357.901366 260.430714 
L 359.44868 262.369689 
L 361.242159 264.98875 
L 363.457632 268.644576 
L 366.798425 274.64774 
L 368.486405 277.725273 
L 368.521571 277.66173 
L 371.686533 272.175102 
L 373.86684 268.822126 
L 375.695485 266.397221 
L 377.313132 264.604422 
L 378.790114 263.289038 
L 380.161598 262.361205 
L 381.427583 261.765581 
L 382.658401 261.431112 
L 383.854054 261.337781 
L 385.049706 261.470141 
L 386.280524 261.836303 
L 387.546509 262.446633 
L 388.917993 263.359842 
L 390.430141 264.645643 
L 392.118121 266.386057 
L 394.087431 268.75309 
L 396.584234 272.130345 
L 400.452521 277.725273 
L 400.558019 277.572832 
L 403.933979 272.894199 
L 406.184618 270.140548 
L 408.083596 268.153903 
L 409.771575 266.699748 
L 411.31889 265.654681 
L 412.760706 264.945984 
L 414.13219 264.518448 
L 415.468507 264.336951 
L 416.769658 264.382793 
L 418.105975 264.654243 
L 419.477459 265.16086 
L 420.954441 265.950336 
L 422.536922 267.053935 
L 424.3304 268.588513 
L 426.405209 270.672807 
L 429.042677 273.660102 
L 432.418636 277.725273 
L 432.418636 277.725273 
" clip-path="url(#p3cd0d5be08)" style="fill: none; stroke: #9467bd; stroke-width: 3; stroke-linecap: square"/>
   </g>
   <g id="line2d_17">
    <path d="M 80.791364 277.725273 
L 87.437784 265.935836 
L 89.512592 262.80508 
L 91.235738 260.59316 
L 92.747887 259.005372 
L 94.084204 257.914053 
L 95.315022 257.191018 
L 96.440342 256.781217 
L 97.495329 256.624115 
L 98.550317 256.692811 
L 99.605304 256.990921 
L 100.695458 257.541323 
L 101.820777 258.366483 
L 103.01643 259.524246 
L 104.317581 261.102368 
L 105.759397 263.217806 
L 107.341878 265.946945 
L 109.170522 269.564293 
L 111.35083 274.395042 
L 112.757479 277.725273 
L 112.827812 277.555656 
L 120.458887 259.417469 
L 122.357864 255.663947 
L 123.940345 252.999435 
L 125.311828 251.097467 
L 126.542647 249.753289 
L 127.632801 248.874297 
L 128.617455 248.34758 
L 129.531778 248.09574 
L 130.410934 248.076064 
L 131.29009 248.279659 
L 132.169246 248.710146 
L 133.118735 249.432315 
L 134.138556 250.506135 
L 135.228709 251.993159 
L 136.424361 254.019707 
L 137.725513 256.679736 
L 139.167329 260.151063 
L 140.784976 264.646456 
L 142.648787 270.511181 
L 144.723595 277.725273 
L 144.793928 277.470755 
L 148.099554 265.0765 
L 152.389836 249.132966 
L 154.534977 242.026332 
L 156.222957 237.161349 
L 157.664773 233.654511 
L 158.895591 231.214944 
L 159.950579 229.577978 
L 160.900067 228.493725 
L 161.744057 227.859246 
L 162.482548 227.57094 
L 163.185873 227.537023 
L 163.854032 227.729213 
L 164.557357 228.17425 
L 165.295848 228.915989 
L 166.104671 230.058039 
L 166.983827 231.697836 
L 167.968482 234.035029 
L 169.02347 237.132823 
L 170.183956 241.253417 
L 171.44994 246.597991 
L 172.821424 253.374434 
L 174.333572 262.001939 
L 175.986386 272.753903 
L 176.689711 277.725273 
L 176.724877 277.470753 
L 178.65902 262.647681 
L 180.874494 243.886509 
L 183.582295 218.94424 
L 187.696745 178.680731 
L 192.51452 132.059838 
L 195.116823 109.02716 
L 197.226797 92.241513 
L 199.055442 79.415774 
L 200.637923 69.806029 
L 202.044573 62.542211 
L 203.310557 57.104997 
L 204.435877 53.189474 
L 205.455698 50.412222 
L 206.334854 48.620019 
L 207.108512 47.510816 
L 207.77667 46.90858 
L 208.374496 46.650584 
L 208.937156 46.650584 
L 209.499816 46.886052 
L 210.097642 47.39375 
L 210.765801 48.273852 
L 211.504292 49.627885 
L 212.348282 51.660171 
L 213.297771 54.554477 
L 214.352758 58.507502 
L 215.54841 63.894272 
L 216.884728 71.001886 
L 218.36171 80.107472 
L 220.049689 91.978832 
L 221.983833 107.263633 
L 224.269639 127.219649 
L 227.188437 154.802409 
L 236.648157 245.74541 
L 239.004295 265.458685 
L 240.621942 277.725273 
L 242.485753 265.064005 
L 244.173733 255.081331 
L 245.685881 247.409858 
L 247.092531 241.38994 
L 248.358516 236.90711 
L 249.519002 233.578579 
L 250.573989 231.196456 
L 251.523478 229.569671 
L 252.367468 228.527321 
L 253.141125 227.898305 
L 253.84445 227.590932 
L 254.512608 227.526143 
L 255.180767 227.676489 
L 255.884092 228.059777 
L 256.657749 228.738003 
L 257.536905 229.820044 
L 258.52156 231.402404 
L 259.64688 233.654511 
L 260.948031 236.790969 
L 262.46018 241.058911 
L 264.253658 246.827524 
L 266.57463 255.103428 
L 272.588058 277.725273 
L 272.65839 277.471314 
L 275.120027 269.011883 
L 277.089337 263.01516 
L 278.777317 258.561733 
L 280.254299 255.255876 
L 281.590616 252.778104 
L 282.821435 250.947741 
L 283.946755 249.663268 
L 284.966576 248.823683 
L 285.916064 248.319282 
L 286.830387 248.084078 
L 287.709543 248.08606 
L 288.588699 248.306697 
L 289.538187 248.783215 
L 290.558008 249.55966 
L 291.648162 250.676901 
L 292.878981 252.270317 
L 294.250464 254.422082 
L 295.832945 257.334142 
L 297.731922 261.321909 
L 300.193559 267.049997 
L 304.554174 277.725273 
L 304.624506 277.555905 
L 307.472972 270.992298 
L 309.54778 266.740528 
L 311.306092 263.615447 
L 312.853407 261.292187 
L 314.260057 259.562598 
L 315.561208 258.30733 
L 316.75686 257.45648 
L 317.88218 256.925221 
L 318.937167 256.665499 
L 319.992155 256.634749 
L 321.047142 256.828973 
L 322.137296 257.259375 
L 323.297782 257.96373 
L 324.563766 259.005372 
L 325.93525 260.430714 
L 327.482565 262.369689 
L 329.276043 264.98875 
L 331.491516 268.644576 
L 334.83231 274.64774 
L 336.520289 277.725273 
L 336.555456 277.66173 
L 339.720417 272.175102 
L 341.900725 268.822126 
L 343.729369 266.397221 
L 345.347016 264.604422 
L 346.823999 263.289038 
L 348.195482 262.361205 
L 349.461467 261.765581 
L 350.692286 261.431112 
L 351.887938 261.337781 
L 353.08359 261.470141 
L 354.314409 261.836303 
L 355.580393 262.446633 
L 356.951877 263.359842 
L 358.464025 264.645643 
L 360.152005 266.386057 
L 362.121315 268.75309 
L 364.618118 272.130345 
L 368.486405 277.725273 
L 368.591904 277.572832 
L 371.967863 272.894199 
L 374.218503 270.140548 
L 376.11748 268.153903 
L 377.80546 266.699748 
L 379.352774 265.654681 
L 380.79459 264.945984 
L 382.166074 264.518448 
L 383.502391 264.336951 
L 384.803542 264.382793 
L 386.139859 264.654243 
L 387.511343 265.16086 
L 388.988325 265.950336 
L 390.570806 267.053935 
L 392.364285 268.588513 
L 394.439093 270.672807 
L 397.076561 273.660102 
L 400.452521 277.725273 
L 400.522853 277.640558 
L 404.10981 273.493419 
L 406.465948 271.101597 
L 408.435258 269.409428 
L 410.19357 268.184898 
L 411.811217 267.325281 
L 413.323366 266.769096 
L 414.765182 266.469601 
L 416.206998 266.398324 
L 417.648814 266.553517 
L 419.125796 266.940819 
L 420.673111 267.582122 
L 422.325924 268.513056 
L 424.154569 269.805471 
L 426.264544 271.580764 
L 428.902012 274.108303 
L 432.418636 277.725273 
L 432.418636 277.725273 
" clip-path="url(#p3cd0d5be08)" style="fill: none; stroke: #8c564b; stroke-width: 3; stroke-linecap: square"/>
   </g>
   <g id="line2d_18">
    <path d="M 80.791364 277.725273 
L 88.563104 259.269212 
L 90.462081 255.53584 
L 92.044562 252.892215 
L 93.416045 251.011079 
L 94.646864 249.687517 
L 95.737017 248.828105 
L 96.721672 248.319986 
L 97.635994 248.08606 
L 98.515151 248.084078 
L 99.394307 248.305711 
L 100.308629 248.777168 
L 101.258118 249.529091 
L 102.277939 250.63479 
L 103.368092 252.15547 
L 104.563745 254.217996 
L 105.864896 256.915503 
L 107.306712 260.425579 
L 108.959525 265.064988 
L 110.858502 271.097439 
L 112.757479 277.725273 
L 112.827812 277.470755 
L 116.133439 265.0765 
L 120.423721 249.132966 
L 122.568861 242.026332 
L 124.256841 237.161349 
L 125.698657 233.654511 
L 126.929476 231.214944 
L 127.984463 229.577978 
L 128.933952 228.493725 
L 129.777941 227.859246 
L 130.516433 227.57094 
L 131.219757 227.537023 
L 131.887916 227.729213 
L 132.591241 228.17425 
L 133.329732 228.915989 
L 134.138556 230.058039 
L 135.017712 231.697836 
L 136.002367 234.035029 
L 137.057354 237.132823 
L 138.21784 241.253417 
L 139.483825 246.597991 
L 140.855308 253.374434 
L 142.367457 262.001939 
L 144.02027 272.753903 
L 144.723595 277.725273 
L 144.758761 277.470753 
L 146.692905 262.647681 
L 148.908378 243.886509 
L 151.616179 218.94424 
L 155.730629 178.680731 
L 160.548405 132.059838 
L 163.150707 109.02716 
L 165.260681 92.241513 
L 167.089326 79.415774 
L 168.671807 69.806029 
L 170.078457 62.542211 
L 171.344442 57.104997 
L 172.469761 53.189474 
L 173.489583 50.412222 
L 174.368739 48.620019 
L 175.142396 47.510816 
L 175.810555 46.90858 
L 176.408381 46.650584 
L 176.971041 46.650584 
L 177.533701 46.886052 
L 178.131527 47.39375 
L 178.799685 48.273852 
L 179.538176 49.627885 
L 180.382166 51.660171 
L 181.331655 54.554477 
L 182.386642 58.507502 
L 183.582295 63.894272 
L 184.918612 71.001886 
L 186.395594 80.107472 
L 188.083574 91.978832 
L 190.017717 107.263633 
L 192.303523 127.219649 
L 195.222321 154.802409 
L 204.682041 245.74541 
L 207.038179 265.458685 
L 208.655826 277.725273 
L 210.519637 265.064005 
L 212.207617 255.081331 
L 213.719766 247.409858 
L 215.126415 241.38994 
L 216.3924 236.90711 
L 217.552886 233.578579 
L 218.607873 231.196456 
L 219.557362 229.569671 
L 220.401352 228.527321 
L 221.175009 227.898305 
L 221.878334 227.590932 
L 222.546493 227.526143 
L 223.214651 227.676489 
L 223.917976 228.059777 
L 224.691634 228.738003 
L 225.57079 229.820044 
L 226.555445 231.402404 
L 227.680764 233.654511 
L 228.981915 236.790969 
L 230.494064 241.058911 
L 232.287542 246.827524 
L 234.608514 255.103428 
L 240.621942 277.725273 
L 240.692275 277.471314 
L 243.153912 269.011883 
L 245.123221 263.01516 
L 246.811201 258.561733 
L 248.288183 255.255876 
L 249.624501 252.778104 
L 250.855319 250.947741 
L 251.980639 249.663268 
L 253.00046 248.823683 
L 253.949949 248.319282 
L 254.864271 248.084078 
L 255.743427 248.08606 
L 256.622583 248.306697 
L 257.572072 248.783215 
L 258.591893 249.55966 
L 259.682046 250.676901 
L 260.912865 252.270317 
L 262.284348 254.422082 
L 263.866829 257.334142 
L 265.765807 261.321909 
L 268.227444 267.049997 
L 272.588058 277.725273 
L 272.65839 277.555905 
L 275.506856 270.992298 
L 277.581664 266.740528 
L 279.339977 263.615447 
L 280.887291 261.292187 
L 282.293941 259.562598 
L 283.595092 258.30733 
L 284.790744 257.45648 
L 285.916064 256.925221 
L 286.971052 256.665499 
L 288.026039 256.634749 
L 289.081026 256.828973 
L 290.17118 257.259375 
L 291.331666 257.96373 
L 292.597651 259.005372 
L 293.969134 260.430714 
L 295.516449 262.369689 
L 297.309927 264.98875 
L 299.525401 268.644576 
L 302.866194 274.64774 
L 304.554174 277.725273 
L 304.58934 277.66173 
L 307.754302 272.175102 
L 309.934609 268.822126 
L 311.763254 266.397221 
L 313.380901 264.604422 
L 314.857883 263.289038 
L 316.229367 262.361205 
L 317.495351 261.765581 
L 318.72617 261.431112 
L 319.921822 261.337781 
L 321.117474 261.470141 
L 322.348293 261.836303 
L 323.614278 262.446633 
L 324.985761 263.359842 
L 326.49791 264.645643 
L 328.185889 266.386057 
L 330.155199 268.75309 
L 332.652002 272.130345 
L 336.520289 277.725273 
L 336.625788 277.572832 
L 340.001747 272.894199 
L 342.252387 270.140548 
L 344.151364 268.153903 
L 345.839344 266.699748 
L 347.386659 265.654681 
L 348.828475 264.945984 
L 350.199958 264.518448 
L 351.536275 264.336951 
L 352.837426 264.382793 
L 354.173744 264.654243 
L 355.545227 265.16086 
L 357.022209 265.950336 
L 358.60469 267.053935 
L 360.398169 268.588513 
L 362.472977 270.672807 
L 365.110446 273.660102 
L 368.486405 277.725273 
L 368.556737 277.640558 
L 372.143694 273.493419 
L 374.499833 271.101597 
L 376.469142 269.409428 
L 378.227455 268.184898 
L 379.845102 267.325281 
L 381.35725 266.769096 
L 382.799066 266.469601 
L 384.240882 266.398324 
L 385.682698 266.553517 
L 387.15968 266.940819 
L 388.706995 267.582122 
L 390.359809 268.513056 
L 392.188453 269.805471 
L 394.298428 271.580764 
L 396.935896 274.108303 
L 400.452521 277.725273 
L 400.558019 277.616366 
L 404.320807 273.891887 
L 406.747278 271.797576 
L 408.78692 270.323857 
L 410.615565 269.272933 
L 412.303545 268.556582 
L 413.886026 268.12107 
L 415.433341 267.923475 
L 416.980655 267.953196 
L 418.52797 268.206636 
L 420.145617 268.701355 
L 421.868763 269.469381 
L 423.732574 270.551177 
L 425.842549 272.041411 
L 428.444851 274.169473 
L 432.418636 277.725273 
L 432.418636 277.725273 
" clip-path="url(#p3cd0d5be08)" style="fill: none; stroke: #e377c2; stroke-width: 3; stroke-linecap: square"/>
   </g>
   <g id="line2d_19">
    <path d="M 80.791364 277.725273 
L 84.026658 265.613377 
L 88.457605 249.132966 
L 90.602746 242.026332 
L 92.290725 237.161349 
L 93.732541 233.654511 
L 94.96336 231.214944 
L 96.018347 229.577978 
L 96.967836 228.493725 
L 97.811826 227.859246 
L 98.550317 227.57094 
L 99.253642 227.537023 
L 99.9218 227.729213 
L 100.625125 228.17425 
L 101.363616 228.915989 
L 102.17244 230.058039 
L 103.051596 231.697836 
L 104.036251 234.035029 
L 105.091238 237.132823 
L 106.251724 241.253417 
L 107.517709 246.597991 
L 108.889193 253.374434 
L 110.401341 262.001939 
L 112.054154 272.753903 
L 112.757479 277.725273 
L 112.792646 277.470753 
L 114.726789 262.647681 
L 116.942262 243.886509 
L 119.650063 218.94424 
L 123.764514 178.680731 
L 128.582289 132.059838 
L 131.184591 109.02716 
L 133.294566 92.241513 
L 135.12321 79.415774 
L 136.705691 69.806029 
L 138.112341 62.542211 
L 139.378326 57.104997 
L 140.503646 53.189474 
L 141.523467 50.412222 
L 142.402623 48.620019 
L 143.17628 47.510816 
L 143.844439 46.90858 
L 144.442265 46.650584 
L 145.004925 46.650584 
L 145.567585 46.886052 
L 146.165411 47.39375 
L 146.83357 48.273852 
L 147.572061 49.627885 
L 148.416051 51.660171 
L 149.365539 54.554477 
L 150.420527 58.507502 
L 151.616179 63.894272 
L 152.952496 71.001886 
L 154.429478 80.107472 
L 156.117458 91.978832 
L 158.051601 107.263633 
L 160.337407 127.219649 
L 163.256206 154.802409 
L 172.715925 245.74541 
L 175.072064 265.458685 
L 176.689711 277.725273 
L 178.553522 265.064005 
L 180.241501 255.081331 
L 181.75365 247.409858 
L 183.1603 241.38994 
L 184.426284 236.90711 
L 185.58677 233.578579 
L 186.641758 231.196456 
L 187.591246 229.569671 
L 188.435236 228.527321 
L 189.208894 227.898305 
L 189.912218 227.590932 
L 190.580377 227.526143 
L 191.248536 227.676489 
L 191.951861 228.059777 
L 192.725518 228.738003 
L 193.604674 229.820044 
L 194.589329 231.402404 
L 195.714649 233.654511 
L 197.0158 236.790969 
L 198.527948 241.058911 
L 200.321427 246.827524 
L 202.642399 255.103428 
L 208.655826 277.725273 
L 208.726159 277.471314 
L 211.187796 269.011883 
L 213.157106 263.01516 
L 214.845085 258.561733 
L 216.322068 255.255876 
L 217.658385 252.778104 
L 218.889203 250.947741 
L 220.014523 249.663268 
L 221.034344 248.823683 
L 221.983833 248.319282 
L 222.898155 248.084078 
L 223.777311 248.08606 
L 224.656467 248.306697 
L 225.605956 248.783215 
L 226.625777 249.55966 
L 227.715931 250.676901 
L 228.946749 252.270317 
L 230.318233 254.422082 
L 231.900714 257.334142 
L 233.799691 261.321909 
L 236.261328 267.049997 
L 240.621942 277.725273 
L 240.692275 277.555905 
L 243.54074 270.992298 
L 245.615549 266.740528 
L 247.373861 263.615447 
L 248.921176 261.292187 
L 250.327825 259.562598 
L 251.628976 258.30733 
L 252.824629 257.45648 
L 253.949949 256.925221 
L 255.004936 256.665499 
L 256.059923 256.634749 
L 257.114911 256.828973 
L 258.205064 257.259375 
L 259.36555 257.96373 
L 260.631535 259.005372 
L 262.003018 260.430714 
L 263.550333 262.369689 
L 265.343812 264.98875 
L 267.559285 268.644576 
L 270.900078 274.64774 
L 272.588058 277.725273 
L 272.623224 277.66173 
L 275.788186 272.175102 
L 277.968493 268.822126 
L 279.797138 266.397221 
L 281.414785 264.604422 
L 282.891767 263.289038 
L 284.263251 262.361205 
L 285.529236 261.765581 
L 286.760054 261.431112 
L 287.955706 261.337781 
L 289.151359 261.470141 
L 290.382177 261.836303 
L 291.648162 262.446633 
L 293.019646 263.359842 
L 294.531794 264.645643 
L 296.219774 266.386057 
L 298.189083 268.75309 
L 300.685887 272.130345 
L 304.554174 277.725273 
L 304.659672 277.572832 
L 308.035632 272.894199 
L 310.286271 270.140548 
L 312.185248 268.153903 
L 313.873228 266.699748 
L 315.420543 265.654681 
L 316.862359 264.945984 
L 318.233842 264.518448 
L 319.57016 264.336951 
L 320.871311 264.382793 
L 322.207628 264.654243 
L 323.579112 265.16086 
L 325.056094 265.950336 
L 326.638575 267.053935 
L 328.432053 268.588513 
L 330.506862 270.672807 
L 333.14433 273.660102 
L 336.520289 277.725273 
L 336.590622 277.640558 
L 340.177579 273.493419 
L 342.533717 271.101597 
L 344.503027 269.409428 
L 346.261339 268.184898 
L 347.878986 267.325281 
L 349.391135 266.769096 
L 350.832951 266.469601 
L 352.274767 266.398324 
L 353.716583 266.553517 
L 355.193565 266.940819 
L 356.740879 267.582122 
L 358.393693 268.513056 
L 360.222338 269.805471 
L 362.332312 271.580764 
L 364.969781 274.108303 
L 368.486405 277.725273 
L 368.591904 277.616366 
L 372.354692 273.891887 
L 374.781163 271.797576 
L 376.820805 270.323857 
L 378.649449 269.272933 
L 380.337429 268.556582 
L 381.91991 268.12107 
L 383.467225 267.923475 
L 385.01454 267.953196 
L 386.561854 268.206636 
L 388.179502 268.701355 
L 389.902647 269.469381 
L 391.766458 270.551177 
L 393.876433 272.041411 
L 396.478735 274.169473 
L 400.593186 277.598227 
L 404.531805 274.193099 
L 407.028608 272.326404 
L 409.103417 271.041868 
L 411.002394 270.123572 
L 412.760706 269.518159 
L 414.448686 269.172768 
L 416.101499 269.06485 
L 417.754313 269.184867 
L 419.442292 269.536552 
L 421.200605 270.135701 
L 423.099582 271.025832 
L 425.209556 272.270026 
L 427.70636 274.012985 
L 431.293317 276.819608 
L 432.418636 277.725273 
L 432.418636 277.725273 
" clip-path="url(#p3cd0d5be08)" style="fill: none; stroke: #7f7f7f; stroke-width: 3; stroke-linecap: square"/>
   </g>
   <g id="patch_3">
    <path d="M 63.21 290.436 
L 63.21 10.8 
" style="fill: none; stroke: #000000; stroke-width: 0.8; stroke-linejoin: miter; stroke-linecap: square"/>
   </g>
   <g id="patch_4">
    <path d="M 450 290.436 
L 450 10.8 
" style="fill: none; stroke: #000000; stroke-width: 0.8; stroke-linejoin: miter; stroke-linecap: square"/>
   </g>
   <g id="patch_5">
    <path d="M 63.21 290.436 
L 450 290.436 
" style="fill: none; stroke: #000000; stroke-width: 0.8; stroke-linejoin: miter; stroke-linecap: square"/>
   </g>
   <g id="patch_6">
    <path d="M 63.21 10.8 
L 450 10.8 
" style="fill: none; stroke: #000000; stroke-width: 0.8; stroke-linejoin: miter; stroke-linecap: square"/>
   </g>
  </g>
 </g>
 <defs>
  <clipPath id="p3cd0d5be08">
   <rect x="63.21" y="10.8" width="386.79" height="279.636"/>
  </clipPath>
 </defs>
</svg>
