<?xml version="1.0" encoding="utf-8" standalone="no"?>
<!DOCTYPE svg PUBLIC "-//W3C//DTD SVG 1.1//EN"
  "http://www.w3.org/Graphics/SVG/1.1/DTD/svg11.dtd">
<svg xmlns:xlink="http://www.w3.org/1999/xlink" width="460.8pt" height="345.6pt" viewBox="0 0 460.8 345.6" xmlns="http://www.w3.org/2000/svg" version="1.1">
 <metadata>
  <rdf:RDF xmlns:dc="http://purl.org/dc/elements/1.1/" xmlns:cc="http://creativecommons.org/ns#" xmlns:rdf="http://www.w3.org/1999/02/22-rdf-syntax-ns#">
   <cc:Work>
    <dc:type rdf:resource="http://purl.org/dc/dcmitype/StillImage"/>
    <dc:date>2025-02-10T00:02:23.231787</dc:date>
    <dc:format>image/svg+xml</dc:format>
    <dc:creator>
     <cc:Agent>
      <dc:title>Matplotlib v3.9.2, https://matplotlib.org/</dc:title>
     </cc:Agent>
    </dc:creator>
   </cc:Work>
  </rdf:RDF>
 </metadata>
 <defs>
  <style type="text/css">*{stroke-linejoin: round; stroke-linecap: butt}</style>
 </defs>
 <g id="figure_1">
  <g id="patch_1">
   <path d="M 0 345.6 
L 460.8 345.6 
L 460.8 0 
L 0 0 
z
" style="fill: #ffffff"/>
  </g>
  <g id="axes_1">
   <g id="patch_2">
    <path d="M 51.93 282.74 
L 450 282.74 
L 450 10.8 
L 51.93 10.8 
z
" style="fill: #ffffff"/>
   </g>
   <g id="matplotlib.axis_1">
    <g id="xtick_1">
     <g id="line2d_1">
      <defs>
       <path id="m9377d00a99" d="M 0 0 
L 0 10 
" style="stroke: #000000"/>
      </defs>
      <g>
       <use xlink:href="#m9377d00a99" x="135.820785" y="282.74" style="stroke: #000000"/>
      </g>
     </g>
     <g id="text_1">
      <!-- f0 -->
      <g transform="translate(127.397348 309.723125) scale(0.18 -0.18)">
       <defs>
        <path id="IPAexGothic-66" d="M 2456 4622 
L 2228 4244 
Q 1991 4422 1741 4422 
Q 1184 4422 1184 3672 
L 1184 3250 
L 2053 3250 
L 2053 2859 
L 1184 2859 
L 1184 63 
L 641 63 
L 641 2859 
L 122 2859 
L 122 3250 
L 641 3250 
L 641 3659 
Q 641 4188 891 4484 
Q 1200 4844 1709 4844 
Q 2116 4844 2456 4622 
z
" transform="scale(0.015625)"/>
        <path id="IPAexGothic-30" d="M 2038 4725 
Q 2881 4725 3334 3944 
Q 3694 3325 3694 2344 
Q 3694 1372 3334 741 
Q 2888 -31 2016 -31 
Q 1147 -31 700 741 
Q 341 1372 341 2350 
Q 341 3713 1000 4334 
Q 1419 4725 2038 4725 
z
M 2016 4266 
Q 1516 4266 1228 3759 
Q 934 3247 934 2344 
Q 934 1456 1222 947 
Q 1513 447 2016 447 
Q 2619 447 2909 1153 
Q 3100 1622 3100 2375 
Q 3100 3256 2806 3759 
Q 2509 4266 2016 4266 
z
" transform="scale(0.015625)"/>
       </defs>
       <use xlink:href="#IPAexGothic-66"/>
       <use xlink:href="#IPAexGothic-30" x="30.615234"/>
      </g>
     </g>
    </g>
    <g id="xtick_2">
     <g id="line2d_2">
      <g>
       <use xlink:href="#m9377d00a99" x="168.719132" y="282.74" style="stroke: #000000"/>
      </g>
     </g>
     <g id="text_2">
      <!-- f1 -->
      <g transform="translate(160.295695 309.723125) scale(0.18 -0.18)">
       <defs>
        <path id="IPAexGothic-31" d="M 2463 63 
L 1900 63 
L 1900 4103 
Q 1372 3922 788 3797 
L 684 4231 
Q 1519 4441 2106 4731 
L 2463 4731 
L 2463 63 
z
" transform="scale(0.015625)"/>
       </defs>
       <use xlink:href="#IPAexGothic-66"/>
       <use xlink:href="#IPAexGothic-31" x="30.615234"/>
      </g>
     </g>
    </g>
    <g id="xtick_3">
     <g id="line2d_3">
      <g>
       <use xlink:href="#m9377d00a99" x="201.617479" y="282.74" style="stroke: #000000"/>
      </g>
     </g>
     <g id="text_3">
      <!-- f2 -->
      <g transform="translate(193.194042 309.723125) scale(0.18 -0.18)">
       <defs>
        <path id="IPAexGothic-32" d="M 3659 63 
L 447 63 
L 447 594 
Q 825 1475 1894 2203 
L 2072 2322 
Q 2619 2697 2791 2906 
Q 2988 3153 2988 3444 
Q 2988 3772 2756 4003 
Q 2500 4259 2084 4259 
Q 1250 4259 991 3328 
L 497 3506 
Q 853 4725 2116 4725 
Q 2806 4725 3216 4316 
Q 3575 3947 3575 3425 
Q 3575 3038 3344 2722 
Q 3131 2416 2366 1938 
L 2231 1856 
Q 1256 1253 978 569 
L 3659 569 
L 3659 63 
z
" transform="scale(0.015625)"/>
       </defs>
       <use xlink:href="#IPAexGothic-66"/>
       <use xlink:href="#IPAexGothic-32" x="30.615234"/>
      </g>
     </g>
    </g>
    <g id="xtick_4">
     <g id="line2d_4">
      <g>
       <use xlink:href="#m9377d00a99" x="234.515826" y="282.74" style="stroke: #000000"/>
      </g>
     </g>
     <g id="text_4">
      <!-- f3 -->
      <g transform="translate(226.092389 309.723125) scale(0.18 -0.18)">
       <defs>
        <path id="IPAexGothic-33" d="M 2381 2419 
Q 3506 2216 3506 1278 
Q 3506 716 3128 356 
Q 2709 -31 1944 -31 
Q 797 -31 288 881 
L 756 1131 
Q 1109 441 1938 441 
Q 2425 441 2694 691 
Q 2950 928 2950 1291 
Q 2950 1719 2566 1978 
Q 2216 2213 1644 2213 
L 1363 2213 
L 1363 2669 
L 1656 2669 
Q 2231 2669 2534 2888 
Q 2859 3119 2859 3509 
Q 2859 3934 2494 4138 
Q 2259 4278 1931 4278 
Q 1238 4278 903 3578 
L 434 3803 
Q 897 4725 1938 4725 
Q 2597 4725 3006 4394 
Q 3416 4069 3416 3534 
Q 3416 3028 3019 2706 
Q 2763 2500 2381 2444 
L 2381 2419 
z
" transform="scale(0.015625)"/>
       </defs>
       <use xlink:href="#IPAexGothic-66"/>
       <use xlink:href="#IPAexGothic-33" x="30.615234"/>
      </g>
     </g>
    </g>
    <g id="xtick_5">
     <g id="line2d_5">
      <g>
       <use xlink:href="#m9377d00a99" x="267.414174" y="282.74" style="stroke: #000000"/>
      </g>
     </g>
     <g id="text_5">
      <!-- f4 -->
      <g transform="translate(258.990736 309.723125) scale(0.18 -0.18)">
       <defs>
        <path id="IPAexGothic-34" d="M 3813 1159 
L 3059 1159 
L 3059 63 
L 2547 63 
L 2547 1159 
L 197 1159 
L 197 1672 
L 2456 4678 
L 3059 4678 
L 3059 1634 
L 3813 1634 
L 3813 1159 
z
M 2578 4109 
L 2559 4109 
Q 2278 3656 2003 3284 
L 759 1634 
L 2547 1634 
L 2547 3144 
Q 2547 3481 2578 4109 
z
" transform="scale(0.015625)"/>
       </defs>
       <use xlink:href="#IPAexGothic-66"/>
       <use xlink:href="#IPAexGothic-34" x="30.615234"/>
      </g>
     </g>
    </g>
    <g id="xtick_6">
     <g id="line2d_6">
      <g>
       <use xlink:href="#m9377d00a99" x="300.312521" y="282.74" style="stroke: #000000"/>
      </g>
     </g>
     <g id="text_6">
      <!-- f5 -->
      <g transform="translate(291.889083 309.723125) scale(0.18 -0.18)">
       <defs>
        <path id="IPAexGothic-35" d="M 1178 2603 
Q 1634 2963 2172 2963 
Q 2816 2963 3241 2528 
Q 3638 2113 3638 1497 
Q 3638 938 3297 513 
Q 2869 -31 2031 -31 
Q 959 -31 469 784 
L 938 1028 
Q 1309 434 2013 434 
Q 2466 434 2769 716 
Q 3081 1013 3081 1503 
Q 3081 1966 2806 2241 
Q 2519 2528 2056 2528 
Q 1406 2528 1072 2028 
L 591 2091 
L 884 4634 
L 3406 4634 
L 3406 4153 
L 1341 4153 
L 1134 2603 
L 1178 2603 
z
" transform="scale(0.015625)"/>
       </defs>
       <use xlink:href="#IPAexGothic-66"/>
       <use xlink:href="#IPAexGothic-35" x="30.615234"/>
      </g>
     </g>
    </g>
    <g id="xtick_7">
     <g id="line2d_7">
      <g>
       <use xlink:href="#m9377d00a99" x="333.210868" y="282.74" style="stroke: #000000"/>
      </g>
     </g>
     <g id="text_7">
      <!-- f6 -->
      <g transform="translate(324.78743 309.723125) scale(0.18 -0.18)">
       <defs>
        <path id="IPAexGothic-36" d="M 1056 2328 
Q 1509 2981 2234 2981 
Q 2906 2981 3316 2513 
Q 3675 2106 3675 1522 
Q 3675 884 3272 434 
Q 2853 -31 2178 -31 
Q 1375 -31 922 581 
Q 481 1178 481 2228 
Q 481 3425 1013 4109 
Q 1494 4725 2272 4725 
Q 3191 4725 3609 4025 
L 3150 3775 
Q 2894 4266 2300 4266 
Q 1119 4266 1031 2328 
L 1056 2328 
z
M 2141 2547 
Q 1684 2547 1384 2206 
Q 1116 1900 1116 1541 
Q 1116 1156 1353 844 
Q 1672 428 2159 428 
Q 2669 428 2941 844 
Q 3125 1128 3125 1503 
Q 3125 1944 2881 2228 
Q 2600 2547 2141 2547 
z
" transform="scale(0.015625)"/>
       </defs>
       <use xlink:href="#IPAexGothic-66"/>
       <use xlink:href="#IPAexGothic-36" x="30.615234"/>
      </g>
     </g>
    </g>
    <g id="xtick_8">
     <g id="line2d_8">
      <g>
       <use xlink:href="#m9377d00a99" x="366.109215" y="282.74" style="stroke: #000000"/>
      </g>
     </g>
     <g id="text_8">
      <!-- f7 -->
      <g transform="translate(357.685777 309.723125) scale(0.18 -0.18)">
       <defs>
        <path id="IPAexGothic-37" d="M 3597 4263 
Q 2238 2106 1778 63 
L 1131 63 
Q 1581 1834 2950 4128 
L 428 4128 
L 428 4634 
L 3597 4634 
L 3597 4263 
z
" transform="scale(0.015625)"/>
       </defs>
       <use xlink:href="#IPAexGothic-66"/>
       <use xlink:href="#IPAexGothic-37" x="30.615234"/>
      </g>
     </g>
    </g>
    <g id="text_9">
     <!-- f[Hz] -->
     <g transform="translate(231.804844 330.62625) scale(0.18 -0.18)">
      <defs>
       <path id="IPAexGothic-5b" d="M 1706 -991 
L 581 -991 
L 581 4750 
L 1706 4750 
L 1706 4438 
L 1028 4438 
L 1028 -678 
L 1706 -678 
L 1706 -991 
z
" transform="scale(0.015625)"/>
       <path id="IPAexGothic-48" d="M 4181 63 
L 3619 63 
L 3619 2200 
L 1172 2200 
L 1172 63 
L 609 63 
L 609 4634 
L 1172 4634 
L 1172 2669 
L 3619 2669 
L 3619 4634 
L 4181 4634 
L 4181 63 
z
" transform="scale(0.015625)"/>
       <path id="IPAexGothic-7a" d="M 2778 63 
L 206 63 
L 206 381 
L 1575 2175 
Q 1822 2500 2081 2797 
L 2081 2816 
L 366 2816 
L 366 3250 
L 2703 3250 
L 2703 2900 
L 1378 1138 
Q 1256 975 872 522 
L 872 503 
L 2778 503 
L 2778 63 
z
" transform="scale(0.015625)"/>
       <path id="IPAexGothic-5d" d="M 1322 -991 
L 197 -991 
L 197 -678 
L 875 -678 
L 875 4438 
L 197 4438 
L 197 4750 
L 1322 4750 
L 1322 -991 
z
" transform="scale(0.015625)"/>
      </defs>
      <use xlink:href="#IPAexGothic-66"/>
      <use xlink:href="#IPAexGothic-5b" x="30.615234"/>
      <use xlink:href="#IPAexGothic-48" x="60.595703"/>
      <use xlink:href="#IPAexGothic-7a" x="135.595703"/>
      <use xlink:href="#IPAexGothic-5d" x="182.910156"/>
     </g>
    </g>
   </g>
   <g id="matplotlib.axis_2">
    <g id="ytick_1">
     <g id="line2d_9">
      <defs>
       <path id="mfeb8257567" d="M 0 0 
L -10 0 
" style="stroke: #000000"/>
      </defs>
      <g>
       <use xlink:href="#mfeb8257567" x="51.93" y="270.379091" style="stroke: #000000"/>
      </g>
     </g>
     <g id="text_10">
      <!-- 0.0 -->
      <g transform="translate(10.999688 277.120653) scale(0.18 -0.18)">
       <defs>
        <path id="IPAexGothic-2e" d="M 1184 63 
L 494 63 
L 494 753 
L 1184 753 
L 1184 63 
z
" transform="scale(0.015625)"/>
       </defs>
       <use xlink:href="#IPAexGothic-30"/>
       <use xlink:href="#IPAexGothic-2e" x="62.988281"/>
       <use xlink:href="#IPAexGothic-30" x="89.404297"/>
      </g>
     </g>
    </g>
    <g id="ytick_2">
     <g id="line2d_10">
      <g>
       <use xlink:href="#mfeb8257567" x="51.93" y="158.00719" style="stroke: #000000"/>
      </g>
     </g>
     <g id="text_11">
      <!-- 0.5 -->
      <g transform="translate(10.999688 164.748753) scale(0.18 -0.18)">
       <use xlink:href="#IPAexGothic-30"/>
       <use xlink:href="#IPAexGothic-2e" x="62.988281"/>
       <use xlink:href="#IPAexGothic-35" x="89.404297"/>
      </g>
     </g>
    </g>
    <g id="ytick_3">
     <g id="line2d_11">
      <g>
       <use xlink:href="#mfeb8257567" x="51.93" y="45.635289" style="stroke: #000000"/>
      </g>
     </g>
     <g id="text_12">
      <!-- 1.0 -->
      <g transform="translate(10.999688 52.376852) scale(0.18 -0.18)">
       <use xlink:href="#IPAexGothic-31"/>
       <use xlink:href="#IPAexGothic-2e" x="62.988281"/>
       <use xlink:href="#IPAexGothic-30" x="89.404297"/>
      </g>
     </g>
    </g>
   </g>
   <g id="LineCollection_1">
    <path d="M 135.820785 270.379091 
L 135.820785 23.160909 
" clip-path="url(#pcae8c0bebe)" style="fill: none; stroke-dasharray: 2.5,4.125; stroke-dashoffset: 0; stroke: #000000; stroke-width: 2.5"/>
    <path d="M 168.719132 270.379091 
L 168.719132 23.160909 
" clip-path="url(#pcae8c0bebe)" style="fill: none; stroke-dasharray: 2.5,4.125; stroke-dashoffset: 0; stroke: #000000; stroke-width: 2.5"/>
    <path d="M 201.617479 270.379091 
L 201.617479 23.160909 
" clip-path="url(#pcae8c0bebe)" style="fill: none; stroke-dasharray: 2.5,4.125; stroke-dashoffset: 0; stroke: #000000; stroke-width: 2.5"/>
    <path d="M 234.515826 270.379091 
L 234.515826 23.160909 
" clip-path="url(#pcae8c0bebe)" style="fill: none; stroke-dasharray: 2.5,4.125; stroke-dashoffset: 0; stroke: #000000; stroke-width: 2.5"/>
    <path d="M 267.414174 270.379091 
L 267.414174 23.160909 
" clip-path="url(#pcae8c0bebe)" style="fill: none; stroke-dasharray: 2.5,4.125; stroke-dashoffset: 0; stroke: #000000; stroke-width: 2.5"/>
    <path d="M 300.312521 270.379091 
L 300.312521 23.160909 
" clip-path="url(#pcae8c0bebe)" style="fill: none; stroke-dasharray: 2.5,4.125; stroke-dashoffset: 0; stroke: #000000; stroke-width: 2.5"/>
    <path d="M 333.210868 270.379091 
L 333.210868 23.160909 
" clip-path="url(#pcae8c0bebe)" style="fill: none; stroke-dasharray: 2.5,4.125; stroke-dashoffset: 0; stroke: #000000; stroke-width: 2.5"/>
    <path d="M 366.109215 270.379091 
L 366.109215 23.160909 
" clip-path="url(#pcae8c0bebe)" style="fill: none; stroke-dasharray: 2.5,4.125; stroke-dashoffset: 0; stroke: #000000; stroke-width: 2.5"/>
   </g>
   <g id="line2d_12">
    <path d="M 70.024091 270.379091 
L 75.814779 266.120991 
L 78.420589 264.5003 
L 80.592097 263.40234 
L 82.546454 262.65611 
L 84.356044 262.196223 
L 86.093251 261.979791 
L 87.794265 261.990082 
L 89.49528 262.22272 
L 91.232486 262.686235 
L 93.042076 263.401156 
L 94.996434 264.418298 
L 97.167942 265.808674 
L 99.73756 267.733172 
L 103.067205 270.255405 
L 108.676934 265.604345 
L 111.21036 263.810989 
L 113.309485 262.586255 
L 115.191459 261.736988 
L 116.928665 261.190027 
L 118.593488 260.896892 
L 120.185927 260.838004 
L 121.778366 260.999994 
L 123.406997 261.393203 
L 125.07182 262.026271 
L 126.845218 262.94324 
L 128.763384 264.190914 
L 130.934892 265.87747 
L 133.576893 268.226915 
L 135.893169 270.308428 
L 141.647665 264.841318 
L 144.108708 262.837659 
L 146.135448 261.464029 
L 147.945038 260.498436 
L 149.609861 259.857293 
L 151.166109 259.490515 
L 152.686164 259.360464 
L 154.170028 259.456841 
L 155.653892 259.775062 
L 157.173948 260.32764 
L 158.766387 261.143433 
L 160.503593 262.292111 
L 162.385567 263.810288 
L 164.557075 265.859351 
L 167.27146 268.748012 
L 168.719132 270.379091 
L 168.791516 270.296647 
L 174.690779 263.74167 
L 177.043246 261.493788 
L 178.997604 259.922385 
L 180.73481 258.804163 
L 182.327249 258.041631 
L 183.811113 257.57726 
L 185.222593 257.368421 
L 186.597882 257.390545 
L 187.97317 257.638442 
L 189.348459 258.111339 
L 190.796131 258.847047 
L 192.316186 259.871277 
L 193.981009 261.268846 
L 195.826791 263.119958 
L 197.962107 265.591972 
L 200.676493 269.10246 
L 201.617479 270.379091 
L 201.689863 270.280151 
L 207.842469 262.050899 
L 210.086361 259.467013 
L 211.968334 257.627347 
L 213.596965 256.332082 
L 215.080829 255.425166 
L 216.456118 254.838426 
L 217.759023 254.52153 
L 219.025736 254.44512 
L 220.256257 254.594514 
L 221.486778 254.966004 
L 222.753491 255.578999 
L 224.092588 256.476035 
L 225.54026 257.722445 
L 227.096507 259.362804 
L 228.833714 261.526297 
L 230.824263 264.372667 
L 233.285305 268.301784 
L 234.515826 270.379091 
L 234.552018 270.317263 
L 241.319885 258.969274 
L 243.455201 255.917304 
L 245.2286 253.758412 
L 246.784847 252.206297 
L 248.160135 251.137153 
L 249.426848 250.426247 
L 250.584986 250.02026 
L 251.706932 249.858668 
L 252.792686 249.925474 
L 253.87844 250.21538 
L 255.000386 250.750634 
L 256.158523 251.553084 
L 257.389045 252.678983 
L 258.728141 254.213674 
L 260.212005 256.270891 
L 261.840636 258.92492 
L 263.686418 262.371034 
L 265.93031 267.061284 
L 267.414174 270.379091 
L 267.486557 270.214143 
L 275.303986 252.647466 
L 277.258343 248.987525 
L 278.886974 246.386246 
L 280.298455 244.526538 
L 281.565168 243.209366 
L 282.687114 242.34507 
L 283.736676 241.809916 
L 284.713854 241.560131 
L 285.654841 241.553666 
L 286.559636 241.769199 
L 287.500623 242.227681 
L 288.477802 242.95891 
L 289.527364 244.034179 
L 290.64931 245.513008 
L 291.879831 247.518769 
L 293.218928 250.142037 
L 294.702792 253.555511 
L 296.367614 257.965101 
L 298.28578 263.70501 
L 300.312521 270.379091 
L 300.384904 270.131578 
L 303.750742 258.208967 
L 308.166141 242.693604 
L 310.33765 235.874793 
L 312.074856 231.113743 
L 313.55872 227.67245 
L 314.825433 225.269877 
L 315.947379 223.602981 
L 316.924557 222.534841 
L 317.793161 221.904931 
L 318.553188 221.61279 
L 319.277024 221.568205 
L 319.964669 221.743763 
L 320.688505 222.164306 
L 321.448532 222.872474 
L 322.280944 223.968385 
L 323.185739 225.546778 
L 324.162918 227.711722 
L 325.248672 230.684305 
L 326.443001 234.647462 
L 327.745906 239.797266 
L 329.157386 246.336569 
L 330.677442 254.465861 
L 332.342265 264.604527 
L 333.210868 270.379091 
L 333.24706 270.131576 
L 335.201417 255.991965 
L 337.445308 238.075709 
L 340.159694 214.517075 
L 344.176983 177.448277 
L 349.424795 129.35568 
L 352.066796 107.187634 
L 354.238304 90.769954 
L 356.084086 78.425577 
L 357.712717 68.954473 
L 359.160389 61.769376 
L 360.463294 56.366367 
L 361.621432 52.451811 
L 362.670994 49.651482 
L 363.575789 47.821205 
L 364.372008 46.664711 
L 365.095844 45.985897 
L 365.711105 45.689422 
L 366.290174 45.646474 
L 366.869243 45.832546 
L 367.484503 46.280796 
L 368.172148 47.086116 
L 368.932175 48.347475 
L 369.800779 50.261334 
L 370.741765 52.894306 
L 371.827519 56.639156 
L 373.021849 61.605407 
L 374.360946 68.182095 
L 375.844809 76.639846 
L 377.509632 87.472031 
L 379.391606 101.231006 
L 381.599306 119.080822 
L 384.349883 143.238378 
L 389.054817 186.923119 
L 393.325449 225.726634 
L 396.039834 248.39204 
L 398.283726 265.327013 
L 399.007562 270.379091 
L 399.043754 270.13212 
L 400.925727 258.06628 
L 402.626742 248.545957 
L 404.18299 241.057873 
L 405.59447 235.311289 
L 406.897375 230.903806 
L 408.091704 227.622945 
L 409.177458 225.266852 
L 410.154637 223.649841 
L 411.059432 222.570104 
L 411.855651 221.944757 
L 412.615679 221.624522 
L 413.339515 221.56405 
L 414.063351 221.735023 
L 414.823379 222.155244 
L 415.65579 222.887161 
L 416.560585 223.989381 
L 417.610148 225.643941 
L 418.768285 227.902328 
L 420.107382 231.022471 
L 421.663629 235.241669 
L 423.545603 241.03193 
L 425.970454 249.269097 
L 431.905909 270.379091 
L 431.905909 270.379091 
" clip-path="url(#pcae8c0bebe)" style="fill: none; stroke: #1f77b4; stroke-width: 3; stroke-linecap: square"/>
   </g>
   <g id="line2d_13">
    <path d="M 70.024091 270.379091 
L 75.814779 265.576754 
L 78.348205 263.787665 
L 80.44733 262.56758 
L 82.329303 261.723192 
L 84.06651 261.181199 
L 85.731333 260.893122 
L 87.323772 260.839226 
L 88.916211 261.006245 
L 90.544842 261.404516 
L 92.209665 262.042544 
L 93.983063 262.964417 
L 95.901229 264.216789 
L 98.072737 265.907699 
L 100.714738 268.260778 
L 102.994822 270.308428 
L 108.749318 264.841318 
L 111.21036 262.837659 
L 113.237101 261.464029 
L 115.046691 260.498436 
L 116.711514 259.857293 
L 118.267762 259.490515 
L 119.787817 259.360464 
L 121.271681 259.456841 
L 122.755545 259.775062 
L 124.275601 260.32764 
L 125.86804 261.143433 
L 127.605246 262.292111 
L 129.48722 263.810288 
L 131.658728 265.859351 
L 134.373113 268.748012 
L 135.820785 270.379091 
L 135.893169 270.296647 
L 141.792432 263.74167 
L 144.144899 261.493788 
L 146.099257 259.922385 
L 147.836463 258.804163 
L 149.428902 258.041631 
L 150.912766 257.57726 
L 152.324246 257.368421 
L 153.699535 257.390545 
L 155.074823 257.638442 
L 156.450112 258.111339 
L 157.897784 258.847047 
L 159.417839 259.871277 
L 161.082662 261.268846 
L 162.928444 263.119958 
L 165.06376 265.591972 
L 167.778145 269.10246 
L 168.719132 270.379091 
L 168.791516 270.280151 
L 174.944122 262.050899 
L 177.188014 259.467013 
L 179.069987 257.627347 
L 180.698618 256.332082 
L 182.182482 255.425166 
L 183.557771 254.838426 
L 184.860675 254.52153 
L 186.127389 254.44512 
L 187.35791 254.594514 
L 188.588431 254.966004 
L 189.855144 255.578999 
L 191.194241 256.476035 
L 192.641913 257.722445 
L 194.19816 259.362804 
L 195.935367 261.526297 
L 197.925916 264.372667 
L 200.386958 268.301784 
L 201.617479 270.379091 
L 201.653671 270.317263 
L 208.421538 258.969274 
L 210.556854 255.917304 
L 212.330252 253.758412 
L 213.8865 252.206297 
L 215.261788 251.137153 
L 216.528501 250.426247 
L 217.686639 250.02026 
L 218.808585 249.858668 
L 219.894339 249.925474 
L 220.980093 250.21538 
L 222.102039 250.750634 
L 223.260176 251.553084 
L 224.490698 252.678983 
L 225.829794 254.213674 
L 227.313658 256.270891 
L 228.942289 258.92492 
L 230.788071 262.371034 
L 233.031963 267.061284 
L 234.515826 270.379091 
L 234.58821 270.214143 
L 242.405639 252.647466 
L 244.359996 248.987525 
L 245.988627 246.386246 
L 247.400108 244.526538 
L 248.666821 243.209366 
L 249.788766 242.34507 
L 250.838329 241.809916 
L 251.815507 241.560131 
L 252.756494 241.553666 
L 253.661289 241.769199 
L 254.602276 242.227681 
L 255.579455 242.95891 
L 256.629017 244.034179 
L 257.750963 245.513008 
L 258.981484 247.518769 
L 260.320581 250.142037 
L 261.804444 253.555511 
L 263.469267 257.965101 
L 265.387433 263.70501 
L 267.414174 270.379091 
L 267.486557 270.131578 
L 270.852395 258.208967 
L 275.267794 242.693604 
L 277.439302 235.874793 
L 279.176509 231.113743 
L 280.660373 227.67245 
L 281.927086 225.269877 
L 283.049032 223.602981 
L 284.02621 222.534841 
L 284.894813 221.904931 
L 285.654841 221.61279 
L 286.378677 221.568205 
L 287.066321 221.743763 
L 287.790158 222.164306 
L 288.550185 222.872474 
L 289.382597 223.968385 
L 290.287392 225.546778 
L 291.26457 227.711722 
L 292.350324 230.684305 
L 293.544654 234.647462 
L 294.847559 239.797266 
L 296.259039 246.336569 
L 297.779095 254.465861 
L 299.443917 264.604527 
L 300.312521 270.379091 
L 300.348712 270.131576 
L 302.30307 255.991965 
L 304.546961 238.075709 
L 307.261346 214.517075 
L 311.278636 177.448277 
L 316.526448 129.35568 
L 319.168449 107.187634 
L 321.339957 90.769954 
L 323.185739 78.425577 
L 324.81437 68.954473 
L 326.262042 61.769376 
L 327.564947 56.366367 
L 328.723084 52.451811 
L 329.772647 49.651482 
L 330.677442 47.821205 
L 331.473661 46.664711 
L 332.197497 45.985897 
L 332.812758 45.689422 
L 333.391827 45.646474 
L 333.970896 45.832546 
L 334.586156 46.280796 
L 335.2738 47.086116 
L 336.033828 48.347475 
L 336.902431 50.261334 
L 337.843418 52.894306 
L 338.929172 56.639156 
L 340.123502 61.605407 
L 341.462598 68.182095 
L 342.946462 76.639846 
L 344.611285 87.472031 
L 346.493259 101.231006 
L 348.700959 119.080822 
L 351.451535 143.238378 
L 356.15647 186.923119 
L 360.427102 225.726634 
L 363.141487 248.39204 
L 365.385379 265.327013 
L 366.109215 270.379091 
L 366.145407 270.13212 
L 368.02738 258.06628 
L 369.728395 248.545957 
L 371.284642 241.057873 
L 372.696123 235.311289 
L 373.999027 230.903806 
L 375.193357 227.622945 
L 376.279111 225.266852 
L 377.25629 223.649841 
L 378.161085 222.570104 
L 378.957304 221.944757 
L 379.717332 221.624522 
L 380.441168 221.56405 
L 381.165004 221.735023 
L 381.925032 222.155244 
L 382.757443 222.887161 
L 383.662238 223.989381 
L 384.711801 225.643941 
L 385.869938 227.902328 
L 387.209035 231.022471 
L 388.765282 235.241669 
L 390.647256 241.03193 
L 393.072107 249.269097 
L 399.007562 270.379091 
L 399.079946 270.132122 
L 401.57718 262.016382 
L 403.567729 256.268405 
L 405.304935 251.909867 
L 406.824991 248.668298 
L 408.200279 246.23309 
L 409.466992 244.428654 
L 410.62513 243.156779 
L 411.674692 242.319579 
L 412.651871 241.809854 
L 413.592858 241.562852 
L 414.497653 241.547542 
L 415.43864 241.757567 
L 416.415818 242.21221 
L 417.46538 242.958304 
L 418.587326 244.035763 
L 419.854039 245.575932 
L 421.26552 247.659137 
L 422.894151 250.481899 
L 424.812316 254.275801 
L 427.30955 259.75033 
L 431.905909 270.379091 
L 431.905909 270.379091 
" clip-path="url(#pcae8c0bebe)" style="fill: none; stroke: #ff7f0e; stroke-width: 3; stroke-linecap: square"/>
   </g>
   <g id="line2d_14">
    <path d="M 70.024091 270.379091 
L 75.887163 264.809683 
L 78.312013 262.837659 
L 80.338754 261.464029 
L 82.148344 260.498436 
L 83.813167 259.857293 
L 85.369415 259.490515 
L 86.88947 259.360464 
L 88.373334 259.456841 
L 89.857198 259.775062 
L 91.377253 260.32764 
L 92.969693 261.143433 
L 94.706899 262.292111 
L 96.588873 263.810288 
L 98.760381 265.859351 
L 101.474766 268.748012 
L 102.922438 270.379091 
L 102.994822 270.296647 
L 108.894085 263.74167 
L 111.246552 261.493788 
L 113.20091 259.922385 
L 114.938116 258.804163 
L 116.530555 258.041631 
L 118.014419 257.57726 
L 119.425899 257.368421 
L 120.801188 257.390545 
L 122.176476 257.638442 
L 123.551765 258.111339 
L 124.999437 258.847047 
L 126.519492 259.871277 
L 128.184315 261.268846 
L 130.030097 263.119958 
L 132.165413 265.591972 
L 134.879798 269.10246 
L 135.820785 270.379091 
L 135.893169 270.280151 
L 142.045775 262.050899 
L 144.289667 259.467013 
L 146.17164 257.627347 
L 147.800271 256.332082 
L 149.284135 255.425166 
L 150.659424 254.838426 
L 151.962328 254.52153 
L 153.229041 254.44512 
L 154.459563 254.594514 
L 155.690084 254.966004 
L 156.956797 255.578999 
L 158.295894 256.476035 
L 159.743566 257.722445 
L 161.299813 259.362804 
L 163.037019 261.526297 
L 165.027569 264.372667 
L 167.488611 268.301784 
L 168.719132 270.379091 
L 168.755324 270.317263 
L 175.523191 258.969274 
L 177.658507 255.917304 
L 179.431905 253.758412 
L 180.988153 252.206297 
L 182.363441 251.137153 
L 183.630154 250.426247 
L 184.788292 250.02026 
L 185.910238 249.858668 
L 186.995992 249.925474 
L 188.081746 250.21538 
L 189.203692 250.750634 
L 190.361829 251.553084 
L 191.59235 252.678983 
L 192.931447 254.213674 
L 194.415311 256.270891 
L 196.043942 258.92492 
L 197.889724 262.371034 
L 200.133615 267.061284 
L 201.617479 270.379091 
L 201.689863 270.214143 
L 209.507292 252.647466 
L 211.461649 248.987525 
L 213.09028 246.386246 
L 214.50176 244.526538 
L 215.768474 243.209366 
L 216.890419 242.34507 
L 217.939982 241.809916 
L 218.91716 241.560131 
L 219.858147 241.553666 
L 220.762942 241.769199 
L 221.703929 242.227681 
L 222.681108 242.95891 
L 223.73067 244.034179 
L 224.852616 245.513008 
L 226.083137 247.518769 
L 227.422233 250.142037 
L 228.906097 253.555511 
L 230.57092 257.965101 
L 232.489086 263.70501 
L 234.515826 270.379091 
L 234.58821 270.131578 
L 237.954048 258.208967 
L 242.369447 242.693604 
L 244.540955 235.874793 
L 246.278162 231.113743 
L 247.762026 227.67245 
L 249.028739 225.269877 
L 250.150684 223.602981 
L 251.127863 222.534841 
L 251.996466 221.904931 
L 252.756494 221.61279 
L 253.48033 221.568205 
L 254.167974 221.743763 
L 254.89181 222.164306 
L 255.651838 222.872474 
L 256.48425 223.968385 
L 257.389045 225.546778 
L 258.366223 227.711722 
L 259.451977 230.684305 
L 260.646307 234.647462 
L 261.949212 239.797266 
L 263.360692 246.336569 
L 264.880747 254.465861 
L 266.54557 264.604527 
L 267.414174 270.379091 
L 267.450365 270.131576 
L 269.404723 255.991965 
L 271.648614 238.075709 
L 274.362999 214.517075 
L 278.380289 177.448277 
L 283.6281 129.35568 
L 286.270102 107.187634 
L 288.44161 90.769954 
L 290.287392 78.425577 
L 291.916023 68.954473 
L 293.363695 61.769376 
L 294.6666 56.366367 
L 295.824737 52.451811 
L 296.8743 49.651482 
L 297.779095 47.821205 
L 298.575314 46.664711 
L 299.29915 45.985897 
L 299.914411 45.689422 
L 300.49348 45.646474 
L 301.072548 45.832546 
L 301.687809 46.280796 
L 302.375453 47.086116 
L 303.135481 48.347475 
L 304.004084 50.261334 
L 304.945071 52.894306 
L 306.030825 56.639156 
L 307.225155 61.605407 
L 308.564251 68.182095 
L 310.048115 76.639846 
L 311.712938 87.472031 
L 313.594912 101.231006 
L 315.802611 119.080822 
L 318.553188 143.238378 
L 323.258122 186.923119 
L 327.528755 225.726634 
L 330.24314 248.39204 
L 332.487032 265.327013 
L 333.210868 270.379091 
L 333.24706 270.13212 
L 335.129033 258.06628 
L 336.830048 248.545957 
L 338.386295 241.057873 
L 339.797776 235.311289 
L 341.10068 230.903806 
L 342.29501 227.622945 
L 343.380764 225.266852 
L 344.357942 223.649841 
L 345.262738 222.570104 
L 346.058957 221.944757 
L 346.818985 221.624522 
L 347.542821 221.56405 
L 348.266657 221.735023 
L 349.026685 222.155244 
L 349.859096 222.887161 
L 350.763891 223.989381 
L 351.813453 225.643941 
L 352.971591 227.902328 
L 354.310688 231.022471 
L 355.866935 235.241669 
L 357.748909 241.03193 
L 360.17376 249.269097 
L 366.109215 270.379091 
L 366.181598 270.132122 
L 368.678833 262.016382 
L 370.669382 256.268405 
L 372.406588 251.909867 
L 373.926644 248.668298 
L 375.301932 246.23309 
L 376.568645 244.428654 
L 377.726783 243.156779 
L 378.776345 242.319579 
L 379.753524 241.809854 
L 380.694511 241.562852 
L 381.599306 241.547542 
L 382.540293 241.757567 
L 383.517471 242.21221 
L 384.567033 242.958304 
L 385.688979 244.035763 
L 386.955692 245.575932 
L 388.367172 247.659137 
L 389.995804 250.481899 
L 391.913969 254.275801 
L 394.411203 259.75033 
L 399.007562 270.379091 
L 399.079946 270.214384 
L 401.97529 263.905865 
L 404.110606 259.762115 
L 405.920196 256.713644 
L 407.512635 254.444974 
L 408.960307 252.753812 
L 410.299404 251.524199 
L 411.529925 250.68838 
L 412.688063 250.163767 
L 413.810009 249.898914 
L 414.895763 249.86901 
L 415.981517 250.057889 
L 417.103462 250.476446 
L 418.297792 251.161416 
L 419.600697 252.17439 
L 421.012177 253.560504 
L 422.604616 255.446116 
L 424.450398 257.993097 
L 426.69429 261.489175 
L 430.060127 267.198428 
L 431.905909 270.379091 
L 431.905909 270.379091 
" clip-path="url(#pcae8c0bebe)" style="fill: none; stroke: #2ca02c; stroke-width: 3; stroke-linecap: square"/>
   </g>
   <g id="line2d_15">
    <path d="M 70.024091 270.379091 
L 76.03193 263.704679 
L 78.384397 261.462004 
L 80.338754 259.896261 
L 82.075961 258.783941 
L 83.632208 258.041631 
L 85.116072 257.57726 
L 86.527552 257.368421 
L 87.902841 257.390545 
L 89.278129 257.638442 
L 90.653417 258.111339 
L 92.10109 258.847047 
L 93.621145 259.871277 
L 95.285968 261.268846 
L 97.13175 263.119958 
L 99.267066 265.591972 
L 101.981451 269.10246 
L 102.922438 270.379091 
L 102.994822 270.280151 
L 109.147428 262.050899 
L 111.391319 259.467013 
L 113.273293 257.627347 
L 114.901924 256.332082 
L 116.385788 255.425166 
L 117.761076 254.838426 
L 119.063981 254.52153 
L 120.330694 254.44512 
L 121.561216 254.594514 
L 122.791737 254.966004 
L 124.05845 255.578999 
L 125.397546 256.476035 
L 126.845218 257.722445 
L 128.401466 259.362804 
L 130.138672 261.526297 
L 132.129221 264.372667 
L 134.590264 268.301784 
L 135.820785 270.379091 
L 135.856977 270.317263 
L 142.624844 258.969274 
L 144.76016 255.917304 
L 146.533558 253.758412 
L 148.089806 252.206297 
L 149.465094 251.137153 
L 150.731807 250.426247 
L 151.889945 250.02026 
L 153.011891 249.858668 
L 154.097645 249.925474 
L 155.183399 250.21538 
L 156.305344 250.750634 
L 157.463482 251.553084 
L 158.694003 252.678983 
L 160.0331 254.213674 
L 161.516964 256.270891 
L 163.145595 258.92492 
L 164.991377 262.371034 
L 167.235268 267.061284 
L 168.719132 270.379091 
L 168.791516 270.214143 
L 176.608945 252.647466 
L 178.563302 248.987525 
L 180.191933 246.386246 
L 181.603413 244.526538 
L 182.870126 243.209366 
L 183.992072 242.34507 
L 185.041634 241.809916 
L 186.018813 241.560131 
L 186.9598 241.553666 
L 187.864595 241.769199 
L 188.805582 242.227681 
L 189.78276 242.95891 
L 190.832323 244.034179 
L 191.954268 245.513008 
L 193.18479 247.518769 
L 194.523886 250.142037 
L 196.00775 253.555511 
L 197.672573 257.965101 
L 199.590738 263.70501 
L 201.617479 270.379091 
L 201.689863 270.131578 
L 205.0557 258.208967 
L 209.4711 242.693604 
L 211.642608 235.874793 
L 213.379815 231.113743 
L 214.863679 227.67245 
L 216.130392 225.269877 
L 217.252337 223.602981 
L 218.229516 222.534841 
L 219.098119 221.904931 
L 219.858147 221.61279 
L 220.581983 221.568205 
L 221.269627 221.743763 
L 221.993463 222.164306 
L 222.753491 222.872474 
L 223.585903 223.968385 
L 224.490698 225.546778 
L 225.467876 227.711722 
L 226.55363 230.684305 
L 227.74796 234.647462 
L 229.050864 239.797266 
L 230.462345 246.336569 
L 231.9824 254.465861 
L 233.647223 264.604527 
L 234.515826 270.379091 
L 234.552018 270.131576 
L 236.506376 255.991965 
L 238.750267 238.075709 
L 241.464652 214.517075 
L 245.481942 177.448277 
L 250.729753 129.35568 
L 253.371755 107.187634 
L 255.543263 90.769954 
L 257.389045 78.425577 
L 259.017676 68.954473 
L 260.465348 61.769376 
L 261.768253 56.366367 
L 262.92639 52.451811 
L 263.975952 49.651482 
L 264.880747 47.821205 
L 265.676967 46.664711 
L 266.400803 45.985897 
L 267.016064 45.689422 
L 267.595133 45.646474 
L 268.174201 45.832546 
L 268.789462 46.280796 
L 269.477106 47.086116 
L 270.237134 48.347475 
L 271.105737 50.261334 
L 272.046724 52.894306 
L 273.132478 56.639156 
L 274.326808 61.605407 
L 275.665904 68.182095 
L 277.149768 76.639846 
L 278.814591 87.472031 
L 280.696565 101.231006 
L 282.904264 119.080822 
L 285.654841 143.238378 
L 290.359775 186.923119 
L 294.630408 225.726634 
L 297.344793 248.39204 
L 299.588685 265.327013 
L 300.312521 270.379091 
L 300.348712 270.13212 
L 302.230686 258.06628 
L 303.931701 248.545957 
L 305.487948 241.057873 
L 306.899428 235.311289 
L 308.202333 230.903806 
L 309.396663 227.622945 
L 310.482417 225.266852 
L 311.459595 223.649841 
L 312.36439 222.570104 
L 313.16061 221.944757 
L 313.920638 221.624522 
L 314.644474 221.56405 
L 315.36831 221.735023 
L 316.128338 222.155244 
L 316.960749 222.887161 
L 317.865544 223.989381 
L 318.915106 225.643941 
L 320.073244 227.902328 
L 321.412341 231.022471 
L 322.968588 235.241669 
L 324.850562 241.03193 
L 327.275412 249.269097 
L 333.210868 270.379091 
L 333.283251 270.132122 
L 335.780486 262.016382 
L 337.771035 256.268405 
L 339.508241 251.909867 
L 341.028297 248.668298 
L 342.403585 246.23309 
L 343.670298 244.428654 
L 344.828436 243.156779 
L 345.877998 242.319579 
L 346.855177 241.809854 
L 347.796164 241.562852 
L 348.700959 241.547542 
L 349.641945 241.757567 
L 350.619124 242.21221 
L 351.668686 242.958304 
L 352.790632 244.035763 
L 354.057345 245.575932 
L 355.468825 247.659137 
L 357.097456 250.481899 
L 359.015622 254.275801 
L 361.512856 259.75033 
L 366.109215 270.379091 
L 366.181598 270.214384 
L 369.076943 263.905865 
L 371.212259 259.762115 
L 373.021849 256.713644 
L 374.614288 254.444974 
L 376.06196 252.753812 
L 377.401057 251.524199 
L 378.631578 250.68838 
L 379.789716 250.163767 
L 380.911661 249.898914 
L 381.997416 249.86901 
L 383.08317 250.057889 
L 384.205115 250.476446 
L 385.399445 251.161416 
L 386.70235 252.17439 
L 388.11383 253.560504 
L 389.706269 255.446116 
L 391.552051 257.993097 
L 393.795943 261.489175 
L 397.16178 267.198428 
L 399.007562 270.379091 
L 399.043754 270.317297 
L 402.264824 265.037611 
L 404.508716 261.769965 
L 406.390689 259.404443 
L 408.055512 257.653543 
L 409.575568 256.366976 
L 410.987048 255.457464 
L 412.326145 254.858634 
L 413.592858 254.53337 
L 414.823379 254.442607 
L 416.0539 254.571325 
L 417.320613 254.927409 
L 418.65971 255.540602 
L 420.07119 256.434973 
L 421.627438 257.691654 
L 423.364644 259.390189 
L 425.391385 261.697625 
L 427.961003 264.986449 
L 431.905909 270.379091 
L 431.905909 270.379091 
" clip-path="url(#pcae8c0bebe)" style="fill: none; stroke: #d62728; stroke-width: 3; stroke-linecap: square"/>
   </g>
   <g id="line2d_16">
    <path d="M 70.024091 270.379091 
L 76.285272 262.006457 
L 78.529164 259.428545 
L 80.411138 257.595399 
L 82.039769 256.306748 
L 83.523633 255.406519 
L 84.898921 254.826432 
L 86.201826 254.516144 
L 87.468539 254.446352 
L 88.69906 254.602269 
L 89.929581 254.980287 
L 91.196294 255.599911 
L 92.535391 256.503751 
L 93.983063 257.75715 
L 95.539311 259.404443 
L 97.276517 261.57477 
L 99.303258 264.482509 
L 101.800492 268.48279 
L 102.922438 270.379091 
L 102.95863 270.317263 
L 109.726497 258.969274 
L 111.861813 255.917304 
L 113.635211 253.758412 
L 115.191459 252.206297 
L 116.566747 251.137153 
L 117.83346 250.426247 
L 118.991598 250.02026 
L 120.113543 249.858668 
L 121.199298 249.925474 
L 122.285052 250.21538 
L 123.406997 250.750634 
L 124.565135 251.553084 
L 125.795656 252.678983 
L 127.134753 254.213674 
L 128.618617 256.270891 
L 130.247248 258.92492 
L 132.09303 262.371034 
L 134.336921 267.061284 
L 135.820785 270.379091 
L 135.893169 270.214143 
L 143.710598 252.647466 
L 145.664955 248.987525 
L 147.293586 246.386246 
L 148.705066 244.526538 
L 149.971779 243.209366 
L 151.093725 242.34507 
L 152.143287 241.809916 
L 153.120466 241.560131 
L 154.061453 241.553666 
L 154.966248 241.769199 
L 155.907235 242.227681 
L 156.884413 242.95891 
L 157.933976 244.034179 
L 159.055921 245.513008 
L 160.286443 247.518769 
L 161.625539 250.142037 
L 163.109403 253.555511 
L 164.774226 257.965101 
L 166.692391 263.70501 
L 168.719132 270.379091 
L 168.791516 270.131578 
L 172.157353 258.208967 
L 176.572753 242.693604 
L 178.744261 235.874793 
L 180.481468 231.113743 
L 181.965331 227.67245 
L 183.232044 225.269877 
L 184.35399 223.602981 
L 185.331169 222.534841 
L 186.199772 221.904931 
L 186.9598 221.61279 
L 187.683636 221.568205 
L 188.37128 221.743763 
L 189.095116 222.164306 
L 189.855144 222.872474 
L 190.687555 223.968385 
L 191.59235 225.546778 
L 192.569529 227.711722 
L 193.655283 230.684305 
L 194.849613 234.647462 
L 196.152517 239.797266 
L 197.563998 246.336569 
L 199.084053 254.465861 
L 200.748876 264.604527 
L 201.617479 270.379091 
L 201.653671 270.131576 
L 203.608028 255.991965 
L 205.85192 238.075709 
L 208.566305 214.517075 
L 212.583595 177.448277 
L 217.831406 129.35568 
L 220.473408 107.187634 
L 222.644916 90.769954 
L 224.490698 78.425577 
L 226.119329 68.954473 
L 227.567001 61.769376 
L 228.869905 56.366367 
L 230.028043 52.451811 
L 231.077605 49.651482 
L 231.9824 47.821205 
L 232.77862 46.664711 
L 233.502456 45.985897 
L 234.117717 45.689422 
L 234.696785 45.646474 
L 235.275854 45.832546 
L 235.891115 46.280796 
L 236.578759 47.086116 
L 237.338787 48.347475 
L 238.20739 50.261334 
L 239.148377 52.894306 
L 240.234131 56.639156 
L 241.42846 61.605407 
L 242.767557 68.182095 
L 244.251421 76.639846 
L 245.916244 87.472031 
L 247.798217 101.231006 
L 250.005917 119.080822 
L 252.756494 143.238378 
L 257.461428 186.923119 
L 261.732061 225.726634 
L 264.446446 248.39204 
L 266.690338 265.327013 
L 267.414174 270.379091 
L 267.450365 270.13212 
L 269.332339 258.06628 
L 271.033354 248.545957 
L 272.589601 241.057873 
L 274.001081 235.311289 
L 275.303986 230.903806 
L 276.498316 227.622945 
L 277.58407 225.266852 
L 278.561248 223.649841 
L 279.466043 222.570104 
L 280.262263 221.944757 
L 281.022291 221.624522 
L 281.746127 221.56405 
L 282.469963 221.735023 
L 283.229991 222.155244 
L 284.062402 222.887161 
L 284.967197 223.989381 
L 286.016759 225.643941 
L 287.174897 227.902328 
L 288.513994 231.022471 
L 290.070241 235.241669 
L 291.952215 241.03193 
L 294.377065 249.269097 
L 300.312521 270.379091 
L 300.384904 270.132122 
L 302.882139 262.016382 
L 304.872688 256.268405 
L 306.609894 251.909867 
L 308.12995 248.668298 
L 309.505238 246.23309 
L 310.771951 244.428654 
L 311.930089 243.156779 
L 312.979651 242.319579 
L 313.95683 241.809854 
L 314.897816 241.562852 
L 315.802611 241.547542 
L 316.743598 241.757567 
L 317.720777 242.21221 
L 318.770339 242.958304 
L 319.892285 244.035763 
L 321.158998 245.575932 
L 322.570478 247.659137 
L 324.199109 250.481899 
L 326.117275 254.275801 
L 328.614509 259.75033 
L 333.210868 270.379091 
L 333.283251 270.214384 
L 336.178595 263.905865 
L 338.313912 259.762115 
L 340.123502 256.713644 
L 341.715941 254.444974 
L 343.163613 252.753812 
L 344.50271 251.524199 
L 345.733231 250.68838 
L 346.891369 250.163767 
L 348.013314 249.898914 
L 349.099068 249.86901 
L 350.184822 250.057889 
L 351.306768 250.476446 
L 352.501098 251.161416 
L 353.804003 252.17439 
L 355.215483 253.560504 
L 356.807922 255.446116 
L 358.653704 257.993097 
L 360.897596 261.489175 
L 364.263433 267.198428 
L 366.109215 270.379091 
L 366.145407 270.317297 
L 369.366477 265.037611 
L 371.610369 261.769965 
L 373.492342 259.404443 
L 375.157165 257.653543 
L 376.677221 256.366976 
L 378.088701 255.457464 
L 379.427798 254.858634 
L 380.694511 254.53337 
L 381.925032 254.442607 
L 383.155553 254.571325 
L 384.422266 254.927409 
L 385.761363 255.540602 
L 387.172843 256.434973 
L 388.72909 257.691654 
L 390.466297 259.390189 
L 392.493038 261.697625 
L 395.062656 264.986449 
L 399.007562 270.379091 
L 399.116137 270.230846 
L 402.554358 265.725591 
L 404.870634 263.041955 
L 406.824991 261.10378 
L 408.562197 259.683305 
L 410.154637 258.66067 
L 411.638501 257.965269 
L 413.049981 257.543436 
L 414.425269 257.360985 
L 415.800558 257.403816 
L 417.175846 257.667795 
L 418.623518 258.175956 
L 420.143574 258.949345 
L 421.808397 260.05472 
L 423.654178 261.557638 
L 425.789495 263.594102 
L 428.540072 266.547129 
L 431.905909 270.379091 
L 431.905909 270.379091 
" clip-path="url(#pcae8c0bebe)" style="fill: none; stroke: #9467bd; stroke-width: 3; stroke-linecap: square"/>
   </g>
   <g id="line2d_17">
    <path d="M 70.024091 270.379091 
L 76.828149 258.969274 
L 78.963466 255.917304 
L 80.736864 253.758412 
L 82.293111 252.206297 
L 83.6684 251.137153 
L 84.935113 250.426247 
L 86.093251 250.02026 
L 87.215196 249.858668 
L 88.30095 249.925474 
L 89.386704 250.21538 
L 90.50865 250.750634 
L 91.666788 251.553084 
L 92.897309 252.678983 
L 94.236406 254.213674 
L 95.72027 256.270891 
L 97.348901 258.92492 
L 99.194683 262.371034 
L 101.438574 267.061284 
L 102.922438 270.379091 
L 102.994822 270.214143 
L 110.812251 252.647466 
L 112.766608 248.987525 
L 114.395239 246.386246 
L 115.806719 244.526538 
L 117.073432 243.209366 
L 118.195378 242.34507 
L 119.24494 241.809916 
L 120.222119 241.560131 
L 121.163106 241.553666 
L 122.067901 241.769199 
L 123.008888 242.227681 
L 123.986066 242.95891 
L 125.035628 244.034179 
L 126.157574 245.513008 
L 127.388095 247.518769 
L 128.727192 250.142037 
L 130.211056 253.555511 
L 131.875879 257.965101 
L 133.794044 263.70501 
L 135.820785 270.379091 
L 135.893169 270.131578 
L 139.259006 258.208967 
L 143.674406 242.693604 
L 145.845914 235.874793 
L 147.58312 231.113743 
L 149.066984 227.67245 
L 150.333697 225.269877 
L 151.455643 223.602981 
L 152.432822 222.534841 
L 153.301425 221.904931 
L 154.061453 221.61279 
L 154.785289 221.568205 
L 155.472933 221.743763 
L 156.196769 222.164306 
L 156.956797 222.872474 
L 157.789208 223.968385 
L 158.694003 225.546778 
L 159.671182 227.711722 
L 160.756936 230.684305 
L 161.951265 234.647462 
L 163.25417 239.797266 
L 164.665651 246.336569 
L 166.185706 254.465861 
L 167.850529 264.604527 
L 168.719132 270.379091 
L 168.755324 270.131576 
L 170.709681 255.991965 
L 172.953573 238.075709 
L 175.667958 214.517075 
L 179.685248 177.448277 
L 184.933059 129.35568 
L 187.575061 107.187634 
L 189.746569 90.769954 
L 191.59235 78.425577 
L 193.220982 68.954473 
L 194.668654 61.769376 
L 195.971558 56.366367 
L 197.129696 52.451811 
L 198.179258 49.651482 
L 199.084053 47.821205 
L 199.880273 46.664711 
L 200.604109 45.985897 
L 201.21937 45.689422 
L 201.798438 45.646474 
L 202.377507 45.832546 
L 202.992768 46.280796 
L 203.680412 47.086116 
L 204.44044 48.347475 
L 205.309043 50.261334 
L 206.25003 52.894306 
L 207.335784 56.639156 
L 208.530113 61.605407 
L 209.86921 68.182095 
L 211.353074 76.639846 
L 213.017897 87.472031 
L 214.89987 101.231006 
L 217.10757 119.080822 
L 219.858147 143.238378 
L 224.563081 186.923119 
L 228.833714 225.726634 
L 231.548099 248.39204 
L 233.79199 265.327013 
L 234.515826 270.379091 
L 234.552018 270.13212 
L 236.433992 258.06628 
L 238.135007 248.545957 
L 239.691254 241.057873 
L 241.102734 235.311289 
L 242.405639 230.903806 
L 243.599968 227.622945 
L 244.685723 225.266852 
L 245.662901 223.649841 
L 246.567696 222.570104 
L 247.363916 221.944757 
L 248.123944 221.624522 
L 248.84778 221.56405 
L 249.571616 221.735023 
L 250.331643 222.155244 
L 251.164055 222.887161 
L 252.06885 223.989381 
L 253.118412 225.643941 
L 254.27655 227.902328 
L 255.615646 231.022471 
L 257.171894 235.241669 
L 259.053868 241.03193 
L 261.478718 249.269097 
L 267.414174 270.379091 
L 267.486557 270.132122 
L 269.983791 262.016382 
L 271.97434 256.268405 
L 273.711547 251.909867 
L 275.231603 248.668298 
L 276.606891 246.23309 
L 277.873604 244.428654 
L 279.031742 243.156779 
L 280.081304 242.319579 
L 281.058483 241.809854 
L 281.999469 241.562852 
L 282.904264 241.547542 
L 283.845251 241.757567 
L 284.82243 242.21221 
L 285.871992 242.958304 
L 286.993938 244.035763 
L 288.260651 245.575932 
L 289.672131 247.659137 
L 291.300762 250.481899 
L 293.218928 254.275801 
L 295.716162 259.75033 
L 300.312521 270.379091 
L 300.384904 270.214384 
L 303.280248 263.905865 
L 305.415565 259.762115 
L 307.225155 256.713644 
L 308.817594 254.444974 
L 310.265266 252.753812 
L 311.604363 251.524199 
L 312.834884 250.68838 
L 313.993021 250.163767 
L 315.114967 249.898914 
L 316.200721 249.86901 
L 317.286475 250.057889 
L 318.408421 250.476446 
L 319.602751 251.161416 
L 320.905655 252.17439 
L 322.317136 253.560504 
L 323.909575 255.446116 
L 325.755357 257.993097 
L 327.999248 261.489175 
L 331.365086 267.198428 
L 333.210868 270.379091 
L 333.24706 270.317297 
L 336.46813 265.037611 
L 338.712022 261.769965 
L 340.593995 259.404443 
L 342.258818 257.653543 
L 343.778874 256.366976 
L 345.190354 255.457464 
L 346.529451 254.858634 
L 347.796164 254.53337 
L 349.026685 254.442607 
L 350.257206 254.571325 
L 351.523919 254.927409 
L 352.863016 255.540602 
L 354.274496 256.434973 
L 355.830743 257.691654 
L 357.56795 259.390189 
L 359.594691 261.697625 
L 362.164309 264.986449 
L 366.109215 270.379091 
L 366.21779 270.230846 
L 369.656011 265.725591 
L 371.972287 263.041955 
L 373.926644 261.10378 
L 375.66385 259.683305 
L 377.25629 258.66067 
L 378.740153 257.965269 
L 380.151634 257.543436 
L 381.526922 257.360985 
L 382.902211 257.403816 
L 384.277499 257.667795 
L 385.725171 258.175956 
L 387.245227 258.949345 
L 388.91005 260.05472 
L 390.755831 261.557638 
L 392.891148 263.594102 
L 395.641724 266.547129 
L 399.007562 270.379091 
L 399.079946 270.296707 
L 402.771509 266.263704 
L 405.19636 263.937708 
L 407.223101 262.292111 
L 409.032691 261.101282 
L 410.697514 260.265322 
L 412.253761 259.724444 
L 413.773817 259.428859 
L 415.257681 259.364954 
L 416.741544 259.521188 
L 418.2616 259.903068 
L 419.854039 260.531867 
L 421.591246 261.464029 
L 423.509411 262.757086 
L 425.717111 264.527544 
L 428.50388 267.068155 
L 431.905909 270.379091 
L 431.905909 270.379091 
" clip-path="url(#pcae8c0bebe)" style="fill: none; stroke: #8c564b; stroke-width: 3; stroke-linecap: square"/>
   </g>
   <g id="line2d_18">
    <path d="M 70.024091 270.379091 
L 78.022479 252.430968 
L 79.940644 248.862532 
L 81.569275 246.281488 
L 82.980756 244.44198 
L 84.247469 243.144808 
L 85.369415 242.299519 
L 86.418977 241.783081 
L 87.396155 241.551398 
L 88.337142 241.562852 
L 89.241937 241.795948 
L 90.182924 242.272916 
L 91.160103 243.023438 
L 92.209665 244.119362 
L 93.331611 245.619978 
L 94.562132 247.649006 
L 95.901229 250.296481 
L 97.385092 253.734944 
L 99.049915 258.169625 
L 100.968081 263.933665 
L 102.922438 270.379091 
L 102.994822 270.131578 
L 106.360659 258.208967 
L 110.776059 242.693604 
L 112.947567 235.874793 
L 114.684773 231.113743 
L 116.168637 227.67245 
L 117.43535 225.269877 
L 118.557296 223.602981 
L 119.534475 222.534841 
L 120.403078 221.904931 
L 121.163106 221.61279 
L 121.886942 221.568205 
L 122.574586 221.743763 
L 123.298422 222.164306 
L 124.05845 222.872474 
L 124.890861 223.968385 
L 125.795656 225.546778 
L 126.772835 227.711722 
L 127.858589 230.684305 
L 129.052918 234.647462 
L 130.355823 239.797266 
L 131.767303 246.336569 
L 133.287359 254.465861 
L 134.952182 264.604527 
L 135.820785 270.379091 
L 135.856977 270.131576 
L 137.811334 255.991965 
L 140.055226 238.075709 
L 142.769611 214.517075 
L 146.786901 177.448277 
L 152.034712 129.35568 
L 154.676713 107.187634 
L 156.848222 90.769954 
L 158.694003 78.425577 
L 160.322634 68.954473 
L 161.770306 61.769376 
L 163.073211 56.366367 
L 164.231349 52.451811 
L 165.280911 49.651482 
L 166.185706 47.821205 
L 166.981926 46.664711 
L 167.705762 45.985897 
L 168.321022 45.689422 
L 168.900091 45.646474 
L 169.47916 45.832546 
L 170.094421 46.280796 
L 170.782065 47.086116 
L 171.542093 48.347475 
L 172.410696 50.261334 
L 173.351683 52.894306 
L 174.437437 56.639156 
L 175.631766 61.605407 
L 176.970863 68.182095 
L 178.454727 76.639846 
L 180.11955 87.472031 
L 182.001523 101.231006 
L 184.209223 119.080822 
L 186.9598 143.238378 
L 191.664734 186.923119 
L 195.935367 225.726634 
L 198.649752 248.39204 
L 200.893643 265.327013 
L 201.617479 270.379091 
L 201.653671 270.13212 
L 203.535645 258.06628 
L 205.236659 248.545957 
L 206.792907 241.057873 
L 208.204387 235.311289 
L 209.507292 230.903806 
L 210.701621 227.622945 
L 211.787375 225.266852 
L 212.764554 223.649841 
L 213.669349 222.570104 
L 214.465569 221.944757 
L 215.225597 221.624522 
L 215.949433 221.56405 
L 216.673269 221.735023 
L 217.433296 222.155244 
L 218.265708 222.887161 
L 219.170503 223.989381 
L 220.220065 225.643941 
L 221.378203 227.902328 
L 222.717299 231.022471 
L 224.273547 235.241669 
L 226.15552 241.03193 
L 228.580371 249.269097 
L 234.515826 270.379091 
L 234.58821 270.132122 
L 237.085444 262.016382 
L 239.075993 256.268405 
L 240.8132 251.909867 
L 242.333255 248.668298 
L 243.708544 246.23309 
L 244.975257 244.428654 
L 246.133395 243.156779 
L 247.182957 242.319579 
L 248.160135 241.809854 
L 249.101122 241.562852 
L 250.005917 241.547542 
L 250.946904 241.757567 
L 251.924083 242.21221 
L 252.973645 242.958304 
L 254.095591 244.035763 
L 255.362304 245.575932 
L 256.773784 247.659137 
L 258.402415 250.481899 
L 260.320581 254.275801 
L 262.817815 259.75033 
L 267.414174 270.379091 
L 267.486557 270.214384 
L 270.381901 263.905865 
L 272.517217 259.762115 
L 274.326808 256.713644 
L 275.919247 254.444974 
L 277.366919 252.753812 
L 278.706015 251.524199 
L 279.936537 250.68838 
L 281.094674 250.163767 
L 282.21662 249.898914 
L 283.302374 249.86901 
L 284.388128 250.057889 
L 285.510074 250.476446 
L 286.704403 251.161416 
L 288.007308 252.17439 
L 289.418789 253.560504 
L 291.011228 255.446116 
L 292.85701 257.993097 
L 295.100901 261.489175 
L 298.466739 267.198428 
L 300.312521 270.379091 
L 300.348712 270.317297 
L 303.569783 265.037611 
L 305.813674 261.769965 
L 307.695648 259.404443 
L 309.360471 257.653543 
L 310.880527 256.366976 
L 312.292007 255.457464 
L 313.631103 254.858634 
L 314.897816 254.53337 
L 316.128338 254.442607 
L 317.358859 254.571325 
L 318.625572 254.927409 
L 319.964669 255.540602 
L 321.376149 256.434973 
L 322.932396 257.691654 
L 324.669603 259.390189 
L 326.696344 261.697625 
L 329.265961 264.986449 
L 333.210868 270.379091 
L 333.319443 270.230846 
L 336.757664 265.725591 
L 339.07394 263.041955 
L 341.028297 261.10378 
L 342.765503 259.683305 
L 344.357942 258.66067 
L 345.841806 257.965269 
L 347.253287 257.543436 
L 348.628575 257.360985 
L 350.003863 257.403816 
L 351.379152 257.667795 
L 352.826824 258.175956 
L 354.34688 258.949345 
L 356.011702 260.05472 
L 357.857484 261.557638 
L 359.992801 263.594102 
L 362.743377 266.547129 
L 366.109215 270.379091 
L 366.181598 270.296707 
L 369.873162 266.263704 
L 372.298013 263.937708 
L 374.324754 262.292111 
L 376.134344 261.101282 
L 377.799167 260.265322 
L 379.355414 259.724444 
L 380.87547 259.428859 
L 382.359334 259.364954 
L 383.843197 259.521188 
L 385.363253 259.903068 
L 386.955692 260.531867 
L 388.692899 261.464029 
L 390.611064 262.757086 
L 392.818764 264.527544 
L 395.605533 267.068155 
L 399.116137 270.273181 
L 402.98866 266.651206 
L 405.485894 264.614533 
L 407.585019 263.181374 
L 409.466992 262.159372 
L 411.204199 261.462737 
L 412.869022 261.03239 
L 414.497653 260.843579 
L 416.090092 260.882485 
L 417.718723 261.146965 
L 419.383546 261.642511 
L 421.156944 262.403495 
L 423.111301 263.491127 
L 425.319001 264.982903 
L 428.033386 267.098809 
L 431.905909 270.379091 
L 431.905909 270.379091 
" clip-path="url(#pcae8c0bebe)" style="fill: none; stroke: #e377c2; stroke-width: 3; stroke-linecap: square"/>
   </g>
   <g id="line2d_19">
    <path d="M 70.024091 270.379091 
L 73.317545 258.731035 
L 77.877712 242.693604 
L 80.04922 235.874793 
L 81.786426 231.113743 
L 83.27029 227.67245 
L 84.537003 225.269877 
L 85.658949 223.602981 
L 86.636128 222.534841 
L 87.504731 221.904931 
L 88.264759 221.61279 
L 88.988595 221.568205 
L 89.676239 221.743763 
L 90.400075 222.164306 
L 91.160103 222.872474 
L 91.992514 223.968385 
L 92.897309 225.546778 
L 93.874488 227.711722 
L 94.960242 230.684305 
L 96.154571 234.647462 
L 97.457476 239.797266 
L 98.868956 246.336569 
L 100.389012 254.465861 
L 102.053835 264.604527 
L 102.922438 270.379091 
L 102.95863 270.131576 
L 104.912987 255.991965 
L 107.156879 238.075709 
L 109.871264 214.517075 
L 113.888554 177.448277 
L 119.136365 129.35568 
L 121.778366 107.187634 
L 123.949874 90.769954 
L 125.795656 78.425577 
L 127.424287 68.954473 
L 128.871959 61.769376 
L 130.174864 56.366367 
L 131.333002 52.451811 
L 132.382564 49.651482 
L 133.287359 47.821205 
L 134.083579 46.664711 
L 134.807415 45.985897 
L 135.422675 45.689422 
L 136.001744 45.646474 
L 136.580813 45.832546 
L 137.196074 46.280796 
L 137.883718 47.086116 
L 138.643746 48.347475 
L 139.512349 50.261334 
L 140.453336 52.894306 
L 141.53909 56.639156 
L 142.733419 61.605407 
L 144.072516 68.182095 
L 145.55638 76.639846 
L 147.221202 87.472031 
L 149.103176 101.231006 
L 151.310876 119.080822 
L 154.061453 143.238378 
L 158.766387 186.923119 
L 163.037019 225.726634 
L 165.751405 248.39204 
L 167.995296 265.327013 
L 168.719132 270.379091 
L 168.755324 270.13212 
L 170.637298 258.06628 
L 172.338312 248.545957 
L 173.89456 241.057873 
L 175.30604 235.311289 
L 176.608945 230.903806 
L 177.803274 227.622945 
L 178.889028 225.266852 
L 179.866207 223.649841 
L 180.771002 222.570104 
L 181.567222 221.944757 
L 182.327249 221.624522 
L 183.051085 221.56405 
L 183.774921 221.735023 
L 184.534949 222.155244 
L 185.367361 222.887161 
L 186.272156 223.989381 
L 187.321718 225.643941 
L 188.479856 227.902328 
L 189.818952 231.022471 
L 191.3752 235.241669 
L 193.257173 241.03193 
L 195.682024 249.269097 
L 201.617479 270.379091 
L 201.689863 270.132122 
L 204.187097 262.016382 
L 206.177646 256.268405 
L 207.914853 251.909867 
L 209.434908 248.668298 
L 210.810197 246.23309 
L 212.07691 244.428654 
L 213.235047 243.156779 
L 214.28461 242.319579 
L 215.261788 241.809854 
L 216.202775 241.562852 
L 217.10757 241.547542 
L 218.048557 241.757567 
L 219.025736 242.21221 
L 220.075298 242.958304 
L 221.197244 244.035763 
L 222.463957 245.575932 
L 223.875437 247.659137 
L 225.504068 250.481899 
L 227.422233 254.275801 
L 229.919468 259.75033 
L 234.515826 270.379091 
L 234.58821 270.214384 
L 237.483554 263.905865 
L 239.61887 259.762115 
L 241.42846 256.713644 
L 243.0209 254.444974 
L 244.468572 252.753812 
L 245.807668 251.524199 
L 247.03819 250.68838 
L 248.196327 250.163767 
L 249.318273 249.898914 
L 250.404027 249.86901 
L 251.489781 250.057889 
L 252.611727 250.476446 
L 253.806056 251.161416 
L 255.108961 252.17439 
L 256.520441 253.560504 
L 258.112881 255.446116 
L 259.958663 257.993097 
L 262.202554 261.489175 
L 265.568392 267.198428 
L 267.414174 270.379091 
L 267.450365 270.317297 
L 270.671436 265.037611 
L 272.915327 261.769965 
L 274.797301 259.404443 
L 276.462124 257.653543 
L 277.982179 256.366976 
L 279.39366 255.457464 
L 280.732756 254.858634 
L 281.999469 254.53337 
L 283.229991 254.442607 
L 284.460512 254.571325 
L 285.727225 254.927409 
L 287.066321 255.540602 
L 288.477802 256.434973 
L 290.034049 257.691654 
L 291.771256 259.390189 
L 293.797996 261.697625 
L 296.367614 264.986449 
L 300.312521 270.379091 
L 300.421096 270.230846 
L 303.859317 265.725591 
L 306.175592 263.041955 
L 308.12995 261.10378 
L 309.867156 259.683305 
L 311.459595 258.66067 
L 312.943459 257.965269 
L 314.354939 257.543436 
L 315.730228 257.360985 
L 317.105516 257.403816 
L 318.480805 257.667795 
L 319.928477 258.175956 
L 321.448532 258.949345 
L 323.113355 260.05472 
L 324.959137 261.557638 
L 327.094453 263.594102 
L 329.84503 266.547129 
L 333.210868 270.379091 
L 333.283251 270.296707 
L 336.974815 266.263704 
L 339.399666 263.937708 
L 341.426407 262.292111 
L 343.235997 261.101282 
L 344.900819 260.265322 
L 346.457067 259.724444 
L 347.977123 259.428859 
L 349.460986 259.364954 
L 350.94485 259.521188 
L 352.464906 259.903068 
L 354.057345 260.531867 
L 355.794552 261.464029 
L 357.712717 262.757086 
L 359.920417 264.527544 
L 362.707186 267.068155 
L 366.21779 270.273181 
L 370.090313 266.651206 
L 372.587547 264.614533 
L 374.686672 263.181374 
L 376.568645 262.159372 
L 378.305852 261.462737 
L 379.970675 261.03239 
L 381.599306 260.843579 
L 383.191745 260.882485 
L 384.820376 261.146965 
L 386.485199 261.642511 
L 388.258597 262.403495 
L 390.212954 263.491127 
L 392.420654 264.982903 
L 395.135039 267.098809 
L 399.152329 270.255541 
L 403.205811 266.944128 
L 405.775429 265.128807 
L 407.946937 263.860804 
L 409.901294 262.972517 
L 411.710884 262.388526 
L 413.448091 262.057413 
L 415.149105 261.957201 
L 416.85012 262.07859 
L 418.587326 262.42518 
L 420.433108 263.026248 
L 422.387465 263.900407 
L 424.595165 265.140424 
L 427.200975 266.871005 
L 431.037306 269.718595 
L 431.905909 270.379091 
L 431.905909 270.379091 
" clip-path="url(#pcae8c0bebe)" style="fill: none; stroke: #7f7f7f; stroke-width: 3; stroke-linecap: square"/>
   </g>
   <g id="patch_3">
    <path d="M 51.93 282.74 
L 51.93 10.8 
" style="fill: none; stroke: #000000; stroke-width: 0.8; stroke-linejoin: miter; stroke-linecap: square"/>
   </g>
   <g id="patch_4">
    <path d="M 450 282.74 
L 450 10.8 
" style="fill: none; stroke: #000000; stroke-width: 0.8; stroke-linejoin: miter; stroke-linecap: square"/>
   </g>
   <g id="patch_5">
    <path d="M 51.93 282.74 
L 450 282.74 
" style="fill: none; stroke: #000000; stroke-width: 0.8; stroke-linejoin: miter; stroke-linecap: square"/>
   </g>
   <g id="patch_6">
    <path d="M 51.93 10.8 
L 450 10.8 
" style="fill: none; stroke: #000000; stroke-width: 0.8; stroke-linejoin: miter; stroke-linecap: square"/>
   </g>
  </g>
 </g>
 <defs>
  <clipPath id="pcae8c0bebe">
   <rect x="51.93" y="10.8" width="398.07" height="271.94"/>
  </clipPath>
 </defs>
</svg>
