<?xml version="1.0" encoding="utf-8" standalone="no"?>
<!DOCTYPE svg PUBLIC "-//W3C//DTD SVG 1.1//EN"
  "http://www.w3.org/Graphics/SVG/1.1/DTD/svg11.dtd">
<svg xmlns:xlink="http://www.w3.org/1999/xlink" width="720pt" height="432pt" viewBox="0 0 720 432" xmlns="http://www.w3.org/2000/svg" version="1.1">
 <metadata>
  <rdf:RDF xmlns:dc="http://purl.org/dc/elements/1.1/" xmlns:cc="http://creativecommons.org/ns#" xmlns:rdf="http://www.w3.org/1999/02/22-rdf-syntax-ns#">
   <cc:Work>
    <dc:type rdf:resource="http://purl.org/dc/dcmitype/StillImage"/>
    <dc:date>2024-10-07T15:04:51.031591</dc:date>
    <dc:format>image/svg+xml</dc:format>
    <dc:creator>
     <cc:Agent>
      <dc:title>Matplotlib v3.9.1, https://matplotlib.org/</dc:title>
     </cc:Agent>
    </dc:creator>
   </cc:Work>
  </rdf:RDF>
 </metadata>
 <defs>
  <style type="text/css">*{stroke-linejoin: round; stroke-linecap: butt}</style>
 </defs>
 <g id="figure_1">
  <g id="patch_1">
   <path d="M 0 432 
L 720 432 
L 720 0 
L 0 0 
z
" style="fill: #ffffff"/>
  </g>
  <g id="axes_1">
   <g id="patch_2">
    <path d="M 29.2 201.4 
L 709.2 201.4 
L 709.2 32.64 
L 29.2 32.64 
z
" style="fill: #ffffff"/>
   </g>
   <g id="matplotlib.axis_1"/>
   <g id="matplotlib.axis_2">
    <g id="text_1">
     <!-- Spectrum -->
     <g transform="translate(22.080469 153.363359) rotate(-90) scale(0.15 -0.15)">
      <defs>
       <path id="DejaVuSans-53" d="M 3425 4513 
L 3425 3897 
Q 3066 4069 2747 4153 
Q 2428 4238 2131 4238 
Q 1616 4238 1336 4038 
Q 1056 3838 1056 3469 
Q 1056 3159 1242 3001 
Q 1428 2844 1947 2747 
L 2328 2669 
Q 3034 2534 3370 2195 
Q 3706 1856 3706 1288 
Q 3706 609 3251 259 
Q 2797 -91 1919 -91 
Q 1588 -91 1214 -16 
Q 841 59 441 206 
L 441 856 
Q 825 641 1194 531 
Q 1563 422 1919 422 
Q 2459 422 2753 634 
Q 3047 847 3047 1241 
Q 3047 1584 2836 1778 
Q 2625 1972 2144 2069 
L 1759 2144 
Q 1053 2284 737 2584 
Q 422 2884 422 3419 
Q 422 4038 858 4394 
Q 1294 4750 2059 4750 
Q 2388 4750 2728 4690 
Q 3069 4631 3425 4513 
z
" transform="scale(0.015625)"/>
       <path id="DejaVuSans-70" d="M 1159 525 
L 1159 -1331 
L 581 -1331 
L 581 3500 
L 1159 3500 
L 1159 2969 
Q 1341 3281 1617 3432 
Q 1894 3584 2278 3584 
Q 2916 3584 3314 3078 
Q 3713 2572 3713 1747 
Q 3713 922 3314 415 
Q 2916 -91 2278 -91 
Q 1894 -91 1617 61 
Q 1341 213 1159 525 
z
M 3116 1747 
Q 3116 2381 2855 2742 
Q 2594 3103 2138 3103 
Q 1681 3103 1420 2742 
Q 1159 2381 1159 1747 
Q 1159 1113 1420 752 
Q 1681 391 2138 391 
Q 2594 391 2855 752 
Q 3116 1113 3116 1747 
z
" transform="scale(0.015625)"/>
       <path id="DejaVuSans-65" d="M 3597 1894 
L 3597 1613 
L 953 1613 
Q 991 1019 1311 708 
Q 1631 397 2203 397 
Q 2534 397 2845 478 
Q 3156 559 3463 722 
L 3463 178 
Q 3153 47 2828 -22 
Q 2503 -91 2169 -91 
Q 1331 -91 842 396 
Q 353 884 353 1716 
Q 353 2575 817 3079 
Q 1281 3584 2069 3584 
Q 2775 3584 3186 3129 
Q 3597 2675 3597 1894 
z
M 3022 2063 
Q 3016 2534 2758 2815 
Q 2500 3097 2075 3097 
Q 1594 3097 1305 2825 
Q 1016 2553 972 2059 
L 3022 2063 
z
" transform="scale(0.015625)"/>
       <path id="DejaVuSans-63" d="M 3122 3366 
L 3122 2828 
Q 2878 2963 2633 3030 
Q 2388 3097 2138 3097 
Q 1578 3097 1268 2742 
Q 959 2388 959 1747 
Q 959 1106 1268 751 
Q 1578 397 2138 397 
Q 2388 397 2633 464 
Q 2878 531 3122 666 
L 3122 134 
Q 2881 22 2623 -34 
Q 2366 -91 2075 -91 
Q 1284 -91 818 406 
Q 353 903 353 1747 
Q 353 2603 823 3093 
Q 1294 3584 2113 3584 
Q 2378 3584 2631 3529 
Q 2884 3475 3122 3366 
z
" transform="scale(0.015625)"/>
       <path id="DejaVuSans-74" d="M 1172 4494 
L 1172 3500 
L 2356 3500 
L 2356 3053 
L 1172 3053 
L 1172 1153 
Q 1172 725 1289 603 
Q 1406 481 1766 481 
L 2356 481 
L 2356 0 
L 1766 0 
Q 1100 0 847 248 
Q 594 497 594 1153 
L 594 3053 
L 172 3053 
L 172 3500 
L 594 3500 
L 594 4494 
L 1172 4494 
z
" transform="scale(0.015625)"/>
       <path id="DejaVuSans-72" d="M 2631 2963 
Q 2534 3019 2420 3045 
Q 2306 3072 2169 3072 
Q 1681 3072 1420 2755 
Q 1159 2438 1159 1844 
L 1159 0 
L 581 0 
L 581 3500 
L 1159 3500 
L 1159 2956 
Q 1341 3275 1631 3429 
Q 1922 3584 2338 3584 
Q 2397 3584 2469 3576 
Q 2541 3569 2628 3553 
L 2631 2963 
z
" transform="scale(0.015625)"/>
       <path id="DejaVuSans-75" d="M 544 1381 
L 544 3500 
L 1119 3500 
L 1119 1403 
Q 1119 906 1312 657 
Q 1506 409 1894 409 
Q 2359 409 2629 706 
Q 2900 1003 2900 1516 
L 2900 3500 
L 3475 3500 
L 3475 0 
L 2900 0 
L 2900 538 
Q 2691 219 2414 64 
Q 2138 -91 1772 -91 
Q 1169 -91 856 284 
Q 544 659 544 1381 
z
M 1991 3584 
L 1991 3584 
z
" transform="scale(0.015625)"/>
       <path id="DejaVuSans-6d" d="M 3328 2828 
Q 3544 3216 3844 3400 
Q 4144 3584 4550 3584 
Q 5097 3584 5394 3201 
Q 5691 2819 5691 2113 
L 5691 0 
L 5113 0 
L 5113 2094 
Q 5113 2597 4934 2840 
Q 4756 3084 4391 3084 
Q 3944 3084 3684 2787 
Q 3425 2491 3425 1978 
L 3425 0 
L 2847 0 
L 2847 2094 
Q 2847 2600 2669 2842 
Q 2491 3084 2119 3084 
Q 1678 3084 1418 2786 
Q 1159 2488 1159 1978 
L 1159 0 
L 581 0 
L 581 3500 
L 1159 3500 
L 1159 2956 
Q 1356 3278 1631 3431 
Q 1906 3584 2284 3584 
Q 2666 3584 2933 3390 
Q 3200 3197 3328 2828 
z
" transform="scale(0.015625)"/>
      </defs>
      <use xlink:href="#DejaVuSans-53"/>
      <use xlink:href="#DejaVuSans-70" x="63.476562"/>
      <use xlink:href="#DejaVuSans-65" x="126.953125"/>
      <use xlink:href="#DejaVuSans-63" x="188.476562"/>
      <use xlink:href="#DejaVuSans-74" x="243.457031"/>
      <use xlink:href="#DejaVuSans-72" x="282.666016"/>
      <use xlink:href="#DejaVuSans-75" x="323.779297"/>
      <use xlink:href="#DejaVuSans-6d" x="387.158203"/>
     </g>
    </g>
   </g>
   <g id="line2d_1">
    <path d="M 60.109091 193.729091 
L 67.534698 148.113288 
L 71.247502 126.605106 
L 74.341505 109.827928 
L 77.435508 94.376568 
L 79.910711 83.134953 
L 82.385913 73.012348 
L 84.242315 66.216814 
L 86.098717 60.147282 
L 87.955119 54.838307 
L 89.811521 50.320117 
L 91.049122 47.76021 
L 92.286723 45.56977 
L 93.524324 43.754344 
L 94.761926 42.318525 
L 95.999527 41.265948 
L 97.237128 40.599278 
L 98.474729 40.320202 
L 99.712331 40.429426 
L 100.949932 40.926674 
L 102.187533 41.810686 
L 103.425134 43.079227 
L 104.662735 44.729084 
L 105.900337 46.756082 
L 107.137938 49.15509 
L 108.375539 51.920035 
L 110.231941 56.738029 
L 112.088343 62.335992 
L 113.944745 68.682051 
L 115.801147 75.740076 
L 118.276349 86.188263 
L 120.751552 97.724568 
L 123.226754 110.232263 
L 126.320757 127.039269 
L 130.033561 148.574153 
L 134.983966 178.796513 
L 137.459168 193.729091 
L 214.190445 193.729091 
L 214.809246 192.764177 
L 221.616052 150.885087 
L 225.328856 129.219888 
L 228.422859 112.266246 
L 231.516862 96.59989 
L 233.992065 85.1608 
L 236.467267 74.820223 
L 238.323669 67.849078 
L 240.180071 61.59464 
L 242.036473 56.09252 
L 243.892875 51.374043 
L 245.749277 47.466077 
L 246.986878 45.32223 
L 248.224479 43.554023 
L 249.46208 42.16593 
L 250.699681 41.161466 
L 251.937283 40.543173 
L 253.174884 40.312616 
L 254.412485 40.470378 
L 255.650086 41.01606 
L 256.887688 41.948282 
L 258.125289 43.264682 
L 259.36289 44.96193 
L 260.600491 47.035729 
L 261.838093 49.48083 
L 263.075694 52.291045 
L 264.932096 57.175146 
L 266.788498 62.836728 
L 268.644899 69.243555 
L 270.501301 76.35915 
L 272.976504 86.878562 
L 275.451706 98.479107 
L 277.926909 111.043407 
L 281.020912 127.909568 
L 284.733716 149.497219 
L 289.68412 179.75714 
L 291.540522 191.316891 
L 292.159323 193.729091 
L 368.8906 193.729091 
L 369.5094 191.799302 
L 376.316207 149.95941 
L 380.029011 128.345696 
L 383.123014 111.450208 
L 386.217017 95.854902 
L 388.692219 84.481187 
L 391.167422 74.212862 
L 393.023824 67.299982 
L 394.880226 61.106935 
L 396.736628 55.668982 
L 398.593029 51.017085 
L 399.830631 48.365786 
L 401.068232 46.082423 
L 402.305833 44.172775 
L 403.543434 42.641676 
L 404.781036 41.493001 
L 406.018637 40.729658 
L 407.256238 40.353579 
L 408.493839 40.365715 
L 409.731441 40.766036 
L 410.969042 41.55353 
L 412.206643 42.726201 
L 413.444244 44.281083 
L 414.681845 46.21424 
L 415.919447 48.520778 
L 417.157048 51.194859 
L 419.01345 55.880069 
L 420.869852 61.350133 
L 422.726254 67.573906 
L 424.582655 74.515953 
L 427.057858 84.820455 
L 429.53306 96.226914 
L 432.008263 108.619917 
L 435.102266 125.306618 
L 438.81507 146.733417 
L 443.765475 176.877068 
L 446.240677 192.281733 
L 446.859478 193.729091 
L 523.590754 193.729091 
L 524.209555 190.834503 
L 531.016362 149.035465 
L 534.729166 127.474091 
L 537.823169 110.637424 
L 540.917172 95.113785 
L 543.392374 83.805896 
L 545.867577 73.610229 
L 547.723979 66.755887 
L 549.58038 60.624475 
L 551.436782 55.250905 
L 553.293184 50.665771 
L 554.530785 48.060117 
L 555.768387 45.823171 
L 557.005988 43.960597 
L 558.243589 42.477109 
L 559.48119 41.376461 
L 560.718792 40.661441 
L 561.956393 40.333856 
L 563.193994 40.394538 
L 564.431595 40.843331 
L 565.669196 41.679101 
L 566.906798 42.899731 
L 568.144399 44.502132 
L 569.382 46.482248 
L 570.619601 48.835068 
L 571.857203 51.554635 
L 573.713605 56.306331 
L 575.570006 61.840454 
L 577.426408 68.125494 
L 579.28281 75.125669 
L 581.758013 85.502219 
L 584.233215 96.973827 
L 586.708418 109.424423 
L 589.802421 126.171607 
L 593.515224 147.652874 
L 598.465629 177.836476 
L 600.940832 193.246632 
L 601.559632 193.729091 
L 678.290909 193.729091 
L 678.290909 193.729091 
" clip-path="url(#p29d54f27d2)" style="fill: none; stroke: #ff0000; stroke-width: 1.5; stroke-linecap: square"/>
   </g>
   <g id="LineCollection_1">
    <path d="M 98.745455 193.729091 
L 98.745455 40.310909 
" clip-path="url(#p29d54f27d2)" style="fill: none; stroke-dasharray: 1.5,2.475; stroke-dashoffset: 0; stroke: #000000; stroke-width: 1.5"/>
    <path d="M 253.290909 193.729091 
L 253.290909 40.310909 
" clip-path="url(#p29d54f27d2)" style="fill: none; stroke-dasharray: 1.5,2.475; stroke-dashoffset: 0; stroke: #000000; stroke-width: 1.5"/>
    <path d="M 407.836364 193.729091 
L 407.836364 40.310909 
" clip-path="url(#p29d54f27d2)" style="fill: none; stroke-dasharray: 1.5,2.475; stroke-dashoffset: 0; stroke: #000000; stroke-width: 1.5"/>
    <path d="M 562.381818 193.729091 
L 562.381818 40.310909 
" clip-path="url(#p29d54f27d2)" style="fill: none; stroke-dasharray: 1.5,2.475; stroke-dashoffset: 0; stroke: #000000; stroke-width: 1.5"/>
   </g>
   <g id="patch_3">
    <path d="M 29.2 201.4 
L 29.2 32.64 
" style="fill: none; stroke: #000000; stroke-width: 0.8; stroke-linejoin: miter; stroke-linecap: square"/>
   </g>
   <g id="patch_4">
    <path d="M 709.2 201.4 
L 709.2 32.64 
" style="fill: none; stroke: #000000; stroke-width: 0.8; stroke-linejoin: miter; stroke-linecap: square"/>
   </g>
   <g id="patch_5">
    <path d="M 29.2 201.4 
L 709.2 201.4 
" style="fill: none; stroke: #000000; stroke-width: 0.8; stroke-linejoin: miter; stroke-linecap: square"/>
   </g>
   <g id="patch_6">
    <path d="M 29.2 32.64 
L 709.2 32.64 
" style="fill: none; stroke: #000000; stroke-width: 0.8; stroke-linejoin: miter; stroke-linecap: square"/>
   </g>
   <g id="patch_7">
    <path d="M 195.751167 167.624887 
Q 186.488082 179.878759 177.899198 191.240749 
" style="fill: none; stroke: #000000; stroke-linecap: round"/>
    <path d="M 185.914281 187.271059 
L 177.899198 191.240749 
L 179.532496 182.446868 
" style="fill: none; stroke: #000000; stroke-linecap: round"/>
   </g>
   <g id="text_2">
    <g id="patch_8">
     <path d="M 137.381818 165.53392 
L 280.984943 165.53392 
Q 286.984943 165.53392 286.984943 159.53392 
L 286.984943 140.17767 
Q 286.984943 134.17767 280.984943 134.17767 
L 137.381818 134.17767 
Q 131.381818 134.17767 131.381818 140.17767 
L 131.381818 159.53392 
Q 131.381818 165.53392 137.381818 165.53392 
z
" style="fill: #ffffff; stroke: #000000; stroke-linejoin: miter"/>
    </g>
    <!-- Guard interval -->
    <g transform="translate(137.381818 155.374545) scale(0.2 -0.2)">
     <defs>
      <path id="DejaVuSans-47" d="M 3809 666 
L 3809 1919 
L 2778 1919 
L 2778 2438 
L 4434 2438 
L 4434 434 
Q 4069 175 3628 42 
Q 3188 -91 2688 -91 
Q 1594 -91 976 548 
Q 359 1188 359 2328 
Q 359 3472 976 4111 
Q 1594 4750 2688 4750 
Q 3144 4750 3555 4637 
Q 3966 4525 4313 4306 
L 4313 3634 
Q 3963 3931 3569 4081 
Q 3175 4231 2741 4231 
Q 1884 4231 1454 3753 
Q 1025 3275 1025 2328 
Q 1025 1384 1454 906 
Q 1884 428 2741 428 
Q 3075 428 3337 486 
Q 3600 544 3809 666 
z
" transform="scale(0.015625)"/>
      <path id="DejaVuSans-61" d="M 2194 1759 
Q 1497 1759 1228 1600 
Q 959 1441 959 1056 
Q 959 750 1161 570 
Q 1363 391 1709 391 
Q 2188 391 2477 730 
Q 2766 1069 2766 1631 
L 2766 1759 
L 2194 1759 
z
M 3341 1997 
L 3341 0 
L 2766 0 
L 2766 531 
Q 2569 213 2275 61 
Q 1981 -91 1556 -91 
Q 1019 -91 701 211 
Q 384 513 384 1019 
Q 384 1609 779 1909 
Q 1175 2209 1959 2209 
L 2766 2209 
L 2766 2266 
Q 2766 2663 2505 2880 
Q 2244 3097 1772 3097 
Q 1472 3097 1187 3025 
Q 903 2953 641 2809 
L 641 3341 
Q 956 3463 1253 3523 
Q 1550 3584 1831 3584 
Q 2591 3584 2966 3190 
Q 3341 2797 3341 1997 
z
" transform="scale(0.015625)"/>
      <path id="DejaVuSans-64" d="M 2906 2969 
L 2906 4863 
L 3481 4863 
L 3481 0 
L 2906 0 
L 2906 525 
Q 2725 213 2448 61 
Q 2172 -91 1784 -91 
Q 1150 -91 751 415 
Q 353 922 353 1747 
Q 353 2572 751 3078 
Q 1150 3584 1784 3584 
Q 2172 3584 2448 3432 
Q 2725 3281 2906 2969 
z
M 947 1747 
Q 947 1113 1208 752 
Q 1469 391 1925 391 
Q 2381 391 2643 752 
Q 2906 1113 2906 1747 
Q 2906 2381 2643 2742 
Q 2381 3103 1925 3103 
Q 1469 3103 1208 2742 
Q 947 2381 947 1747 
z
" transform="scale(0.015625)"/>
      <path id="DejaVuSans-20" transform="scale(0.015625)"/>
      <path id="DejaVuSans-69" d="M 603 3500 
L 1178 3500 
L 1178 0 
L 603 0 
L 603 3500 
z
M 603 4863 
L 1178 4863 
L 1178 4134 
L 603 4134 
L 603 4863 
z
" transform="scale(0.015625)"/>
      <path id="DejaVuSans-6e" d="M 3513 2113 
L 3513 0 
L 2938 0 
L 2938 2094 
Q 2938 2591 2744 2837 
Q 2550 3084 2163 3084 
Q 1697 3084 1428 2787 
Q 1159 2491 1159 1978 
L 1159 0 
L 581 0 
L 581 3500 
L 1159 3500 
L 1159 2956 
Q 1366 3272 1645 3428 
Q 1925 3584 2291 3584 
Q 2894 3584 3203 3211 
Q 3513 2838 3513 2113 
z
" transform="scale(0.015625)"/>
      <path id="DejaVuSans-76" d="M 191 3500 
L 800 3500 
L 1894 563 
L 2988 3500 
L 3597 3500 
L 2284 0 
L 1503 0 
L 191 3500 
z
" transform="scale(0.015625)"/>
      <path id="DejaVuSans-6c" d="M 603 4863 
L 1178 4863 
L 1178 0 
L 603 0 
L 603 4863 
z
" transform="scale(0.015625)"/>
     </defs>
     <use xlink:href="#DejaVuSans-47"/>
     <use xlink:href="#DejaVuSans-75" x="77.490234"/>
     <use xlink:href="#DejaVuSans-61" x="140.869141"/>
     <use xlink:href="#DejaVuSans-72" x="202.148438"/>
     <use xlink:href="#DejaVuSans-64" x="241.511719"/>
     <use xlink:href="#DejaVuSans-20" x="304.988281"/>
     <use xlink:href="#DejaVuSans-69" x="336.775391"/>
     <use xlink:href="#DejaVuSans-6e" x="364.558594"/>
     <use xlink:href="#DejaVuSans-74" x="427.9375"/>
     <use xlink:href="#DejaVuSans-65" x="467.146484"/>
     <use xlink:href="#DejaVuSans-72" x="528.669922"/>
     <use xlink:href="#DejaVuSans-76" x="569.783203"/>
     <use xlink:href="#DejaVuSans-61" x="628.962891"/>
     <use xlink:href="#DejaVuSans-6c" x="690.242188"/>
    </g>
   </g>
   <g id="text_3">
    <!-- FDM -->
    <g transform="translate(347.120313 26.64) scale(0.2 -0.2)">
     <defs>
      <path id="DejaVuSans-46" d="M 628 4666 
L 3309 4666 
L 3309 4134 
L 1259 4134 
L 1259 2759 
L 3109 2759 
L 3109 2228 
L 1259 2228 
L 1259 0 
L 628 0 
L 628 4666 
z
" transform="scale(0.015625)"/>
      <path id="DejaVuSans-44" d="M 1259 4147 
L 1259 519 
L 2022 519 
Q 2988 519 3436 956 
Q 3884 1394 3884 2338 
Q 3884 3275 3436 3711 
Q 2988 4147 2022 4147 
L 1259 4147 
z
M 628 4666 
L 1925 4666 
Q 3281 4666 3915 4102 
Q 4550 3538 4550 2338 
Q 4550 1131 3912 565 
Q 3275 0 1925 0 
L 628 0 
L 628 4666 
z
" transform="scale(0.015625)"/>
      <path id="DejaVuSans-4d" d="M 628 4666 
L 1569 4666 
L 2759 1491 
L 3956 4666 
L 4897 4666 
L 4897 0 
L 4281 0 
L 4281 4097 
L 3078 897 
L 2444 897 
L 1241 4097 
L 1241 0 
L 628 0 
L 628 4666 
z
" transform="scale(0.015625)"/>
     </defs>
     <use xlink:href="#DejaVuSans-46"/>
     <use xlink:href="#DejaVuSans-44" x="57.519531"/>
     <use xlink:href="#DejaVuSans-4d" x="134.521484"/>
    </g>
   </g>
   <g id="legend_1">
    <g id="patch_9">
     <path d="M 698.2 45.64 
L 702.2 45.64 
Q 704.2 45.64 704.2 43.64 
L 704.2 39.64 
Q 704.2 37.64 702.2 37.64 
L 698.2 37.64 
Q 696.2 37.64 696.2 39.64 
L 696.2 43.64 
Q 696.2 45.64 698.2 45.64 
z
" style="fill: #ffffff; opacity: 0.8; stroke: #cccccc; stroke-linejoin: miter"/>
    </g>
   </g>
  </g>
  <g id="axes_2">
   <g id="patch_10">
    <path d="M 29.2 402.8 
L 709.2 402.8 
L 709.2 234.04 
L 29.2 234.04 
z
" style="fill: #ffffff"/>
   </g>
   <g id="matplotlib.axis_3">
    <g id="text_4">
     <!-- Frequencty -->
     <g transform="translate(327.515234 418.197656) scale(0.15 -0.15)">
      <defs>
       <path id="DejaVuSans-71" d="M 947 1747 
Q 947 1113 1208 752 
Q 1469 391 1925 391 
Q 2381 391 2643 752 
Q 2906 1113 2906 1747 
Q 2906 2381 2643 2742 
Q 2381 3103 1925 3103 
Q 1469 3103 1208 2742 
Q 947 2381 947 1747 
z
M 2906 525 
Q 2725 213 2448 61 
Q 2172 -91 1784 -91 
Q 1150 -91 751 415 
Q 353 922 353 1747 
Q 353 2572 751 3078 
Q 1150 3584 1784 3584 
Q 2172 3584 2448 3432 
Q 2725 3281 2906 2969 
L 2906 3500 
L 3481 3500 
L 3481 -1331 
L 2906 -1331 
L 2906 525 
z
" transform="scale(0.015625)"/>
       <path id="DejaVuSans-79" d="M 2059 -325 
Q 1816 -950 1584 -1140 
Q 1353 -1331 966 -1331 
L 506 -1331 
L 506 -850 
L 844 -850 
Q 1081 -850 1212 -737 
Q 1344 -625 1503 -206 
L 1606 56 
L 191 3500 
L 800 3500 
L 1894 763 
L 2988 3500 
L 3597 3500 
L 2059 -325 
z
" transform="scale(0.015625)"/>
      </defs>
      <use xlink:href="#DejaVuSans-46"/>
      <use xlink:href="#DejaVuSans-72" x="50.269531"/>
      <use xlink:href="#DejaVuSans-65" x="89.132812"/>
      <use xlink:href="#DejaVuSans-71" x="150.65625"/>
      <use xlink:href="#DejaVuSans-75" x="214.132812"/>
      <use xlink:href="#DejaVuSans-65" x="277.511719"/>
      <use xlink:href="#DejaVuSans-6e" x="339.035156"/>
      <use xlink:href="#DejaVuSans-63" x="402.414062"/>
      <use xlink:href="#DejaVuSans-74" x="457.394531"/>
      <use xlink:href="#DejaVuSans-79" x="496.603516"/>
     </g>
    </g>
   </g>
   <g id="matplotlib.axis_4">
    <g id="text_5">
     <!-- Spectrum -->
     <g transform="translate(22.080469 354.763359) rotate(-90) scale(0.15 -0.15)">
      <use xlink:href="#DejaVuSans-53"/>
      <use xlink:href="#DejaVuSans-70" x="63.476562"/>
      <use xlink:href="#DejaVuSans-65" x="126.953125"/>
      <use xlink:href="#DejaVuSans-63" x="188.476562"/>
      <use xlink:href="#DejaVuSans-74" x="243.457031"/>
      <use xlink:href="#DejaVuSans-72" x="282.666016"/>
      <use xlink:href="#DejaVuSans-75" x="323.779297"/>
      <use xlink:href="#DejaVuSans-6d" x="387.158203"/>
     </g>
    </g>
   </g>
   <g id="line2d_2">
    <path d="M 60.109091 395.129091 
L 67.534698 349.513288 
L 71.247502 328.005106 
L 74.341505 311.227928 
L 77.435508 295.776568 
L 79.910711 284.534953 
L 82.385913 274.412348 
L 84.242315 267.616814 
L 86.098717 261.547282 
L 87.955119 256.238307 
L 89.811521 251.720117 
L 91.049122 249.16021 
L 92.286723 246.96977 
L 93.524324 245.154344 
L 94.761926 243.718525 
L 95.999527 242.665948 
L 97.237128 241.999278 
L 98.474729 241.720202 
L 99.712331 241.829426 
L 100.949932 242.326674 
L 102.187533 243.210686 
L 103.425134 244.479227 
L 104.662735 246.129084 
L 105.900337 248.156082 
L 107.137938 250.55509 
L 108.375539 253.320035 
L 110.231941 258.138029 
L 112.088343 263.735992 
L 113.944745 270.082051 
L 115.801147 277.140076 
L 118.276349 287.588263 
L 120.751552 299.124568 
L 123.226754 311.632263 
L 126.320757 328.439269 
L 130.033561 349.974153 
L 134.983966 380.196513 
L 136.840368 391.752144 
L 137.459168 394.646632 
L 144.265975 352.748563 
L 147.978779 331.057944 
L 151.072782 314.075475 
L 154.166785 298.373827 
L 156.641987 286.902219 
L 159.11719 276.525669 
L 160.973592 269.525494 
L 162.829994 263.240454 
L 164.686395 257.706331 
L 166.542797 252.954635 
L 168.399199 249.012421 
L 169.6368 246.845267 
L 170.874402 245.053441 
L 172.112003 243.641478 
L 173.349604 242.612953 
L 174.587205 241.970468 
L 175.824807 241.71565 
L 177.062408 241.849144 
L 178.300009 242.370612 
L 179.53761 243.278733 
L 180.775212 244.57121 
L 182.012813 246.244771 
L 183.250414 248.295179 
L 184.488015 250.717246 
L 185.725617 253.50484 
L 187.582018 258.355912 
L 189.43842 263.985712 
L 191.294822 270.362186 
L 193.151224 277.449031 
L 195.626426 287.932883 
L 198.101629 299.501365 
L 200.576831 312.037424 
L 203.670834 328.874091 
L 207.383638 350.435465 
L 212.334043 380.676755 
L 214.190445 392.234503 
L 214.809246 394.164177 
L 221.616052 352.285087 
L 225.328856 330.619888 
L 228.422859 313.666246 
L 231.516862 297.99989 
L 233.992065 286.5608 
L 236.467267 276.220223 
L 238.323669 269.249078 
L 240.180071 262.99464 
L 242.036473 257.49252 
L 243.892875 252.774043 
L 245.749277 248.866077 
L 246.986878 246.72223 
L 248.224479 244.954023 
L 249.46208 243.56593 
L 250.699681 242.561466 
L 251.937283 241.943173 
L 253.174884 241.712616 
L 254.412485 241.870378 
L 255.650086 242.41606 
L 256.887688 243.348282 
L 258.125289 244.664682 
L 259.36289 246.36193 
L 260.600491 248.435729 
L 261.838093 250.88083 
L 263.075694 253.691045 
L 264.932096 258.575146 
L 266.788498 264.236728 
L 268.644899 270.643555 
L 270.501301 277.75915 
L 272.976504 288.278562 
L 275.451706 299.879107 
L 277.926909 312.443407 
L 281.020912 329.309568 
L 284.733716 350.897219 
L 289.68412 381.15714 
L 291.540522 392.716891 
L 292.159323 393.681733 
L 298.96613 351.822035 
L 302.678933 330.182471 
L 305.772937 313.257822 
L 308.86694 297.626914 
L 311.342142 286.220455 
L 313.817345 275.915953 
L 315.673746 268.973906 
L 317.530148 262.750133 
L 319.38655 257.280069 
L 321.242952 252.594859 
L 322.480553 249.920778 
L 323.718155 247.61424 
L 324.955756 245.681083 
L 326.193357 244.126201 
L 327.430958 242.95353 
L 328.668559 242.166036 
L 329.906161 241.765715 
L 331.143762 241.753579 
L 332.381363 242.129658 
L 333.618964 242.893001 
L 334.856566 244.041676 
L 336.094167 245.572775 
L 337.331768 247.482423 
L 338.569369 249.765786 
L 339.806971 252.417085 
L 341.663372 257.068982 
L 343.519774 262.506935 
L 345.376176 268.699982 
L 347.232578 275.612862 
L 349.707781 285.881187 
L 352.182983 297.254902 
L 354.658185 309.618924 
L 357.752189 326.275137 
L 361.464992 347.674383 
L 366.415397 377.797612 
L 368.8906 393.199302 
L 369.5094 393.199302 
L 376.316207 351.35941 
L 380.029011 329.745696 
L 383.123014 312.850208 
L 386.217017 297.254902 
L 388.692219 285.881187 
L 391.167422 275.612862 
L 393.023824 268.699982 
L 394.880226 262.506935 
L 396.736628 257.068982 
L 398.593029 252.417085 
L 399.830631 249.765786 
L 401.068232 247.482423 
L 402.305833 245.572775 
L 403.543434 244.041676 
L 404.781036 242.893001 
L 406.018637 242.129658 
L 407.256238 241.753579 
L 408.493839 241.765715 
L 409.731441 242.166036 
L 410.969042 242.95353 
L 412.206643 244.126201 
L 413.444244 245.681083 
L 414.681845 247.61424 
L 415.919447 249.920778 
L 417.157048 252.594859 
L 419.01345 257.280069 
L 420.869852 262.750133 
L 422.726254 268.973906 
L 424.582655 275.915953 
L 427.057858 286.220455 
L 429.53306 297.626914 
L 432.008263 310.019917 
L 435.102266 326.706618 
L 438.81507 348.133417 
L 443.765475 378.277068 
L 446.240677 393.681733 
L 446.859478 392.716891 
L 453.666284 350.897219 
L 457.379088 329.309568 
L 460.473091 312.443407 
L 463.567094 296.883857 
L 466.042297 285.543 
L 468.517499 275.310953 
L 470.373901 268.427308 
L 472.230303 262.265048 
L 474.086705 256.85926 
L 475.943107 252.240722 
L 477.180708 249.612232 
L 478.418309 247.352066 
L 479.65591 245.465946 
L 480.893512 243.958645 
L 482.131113 242.833978 
L 483.368714 242.094793 
L 484.606315 241.742959 
L 485.843917 241.779368 
L 487.081518 242.203928 
L 488.319119 243.015563 
L 489.55672 244.21222 
L 490.794322 245.790869 
L 492.031923 247.747515 
L 493.269524 250.077206 
L 494.507125 252.774043 
L 496.363527 257.49252 
L 498.219929 262.99464 
L 500.076331 269.249078 
L 501.932733 276.220223 
L 504.407935 286.5608 
L 506.883138 297.99989 
L 509.35834 310.421751 
L 512.452343 327.138777 
L 516.165147 348.592915 
L 521.115552 378.756691 
L 523.590754 394.164177 
L 524.209555 392.234503 
L 531.016362 350.435465 
L 534.729166 328.874091 
L 537.823169 312.037424 
L 540.917172 296.513785 
L 543.392374 285.205896 
L 545.867577 275.010229 
L 547.723979 268.155887 
L 549.58038 262.024475 
L 551.436782 256.650905 
L 553.293184 252.065771 
L 554.530785 249.460117 
L 555.768387 247.223171 
L 557.005988 245.360597 
L 558.243589 243.877109 
L 559.48119 242.776461 
L 560.718792 242.061441 
L 561.956393 241.733856 
L 563.193994 241.794538 
L 564.431595 242.243331 
L 565.669196 243.079101 
L 566.906798 244.299731 
L 568.144399 245.902132 
L 569.382 247.882248 
L 570.619601 250.235068 
L 571.857203 252.954635 
L 573.713605 257.706331 
L 575.570006 263.240454 
L 577.426408 269.525494 
L 579.28281 276.525669 
L 581.758013 286.902219 
L 584.233215 298.373827 
L 586.708418 310.824423 
L 589.802421 327.571607 
L 593.515224 349.052874 
L 598.465629 379.236476 
L 600.940832 394.646632 
L 601.559632 391.752144 
L 608.366439 349.974153 
L 612.079243 328.439269 
L 615.173246 311.632263 
L 618.267249 296.144687 
L 620.742452 284.869879 
L 623.217654 274.710693 
L 625.074056 267.885721 
L 626.930458 261.785219 
L 628.78686 256.44392 
L 630.643261 251.892236 
L 631.880863 249.309442 
L 633.118464 247.095739 
L 634.356065 245.256729 
L 635.593666 243.797069 
L 636.831268 242.720451 
L 638.068869 242.029602 
L 639.30647 241.726271 
L 640.544071 241.811224 
L 641.781673 242.284247 
L 643.019274 243.144142 
L 644.256875 244.388733 
L 645.494476 246.014871 
L 646.732078 248.018438 
L 647.969679 250.394363 
L 649.20728 253.136633 
L 651.063682 257.921502 
L 652.920084 263.487572 
L 654.776486 269.803153 
L 656.632887 276.832287 
L 659.10809 287.244708 
L 661.583292 298.748721 
L 664.058495 311.227928 
L 667.152498 328.005106 
L 670.865302 349.513288 
L 675.815707 379.716418 
L 678.290909 395.129091 
L 678.290909 395.129091 
" clip-path="url(#p15fc4a17a8)" style="fill: none; stroke: #ff0000; stroke-width: 1.5; stroke-linecap: square"/>
   </g>
   <g id="line2d_3">
    <path d="M 60.109091 241.710909 
L 61.346692 241.905071 
L 62.584293 242.487065 
L 63.821895 243.455418 
L 65.059496 244.80768 
L 66.297097 246.540427 
L 67.534698 248.649273 
L 68.7723 251.128881 
L 70.628701 255.529489 
L 72.485103 260.724919 
L 74.341505 266.685588 
L 76.197907 273.37756 
L 78.054309 280.762734 
L 80.529511 291.614732 
L 83.004714 303.514106 
L 86.098717 319.676863 
L 89.19272 337.031927 
L 93.524324 362.80706 
L 98.474729 393.440515 
L 99.09353 392.958094 
L 105.900337 351.12826 
L 109.61314 329.527551 
L 112.707144 312.646705 
L 115.801147 297.069258 
L 118.276349 285.711958 
L 120.751552 275.46176 
L 122.607953 268.563488 
L 124.464355 262.385827 
L 126.320757 256.96395 
L 128.177159 252.328727 
L 129.41476 249.688829 
L 130.652361 247.417062 
L 131.889963 245.519176 
L 133.127564 243.999974 
L 134.365165 242.863301 
L 135.602766 242.112036 
L 136.840368 241.748079 
L 138.077969 241.772352 
L 139.31557 242.184793 
L 140.553171 242.984358 
L 141.790773 244.169024 
L 143.028374 245.735791 
L 144.265975 247.680695 
L 145.503576 249.998812 
L 146.741178 252.684275 
L 148.597579 257.386124 
L 150.453981 262.872223 
L 152.310383 269.111336 
L 154.166785 276.067941 
L 156.641987 286.390493 
L 159.11719 297.813282 
L 161.592392 310.220729 
L 164.686395 326.922613 
L 168.399199 348.363108 
L 173.349604 378.516859 
L 175.824807 393.922954 
L 176.443607 392.475694 
L 183.250414 350.666287 
L 186.963218 329.091748 
L 190.057221 312.240313 
L 193.151224 296.698699 
L 195.626426 285.374312 
L 198.101629 275.160443 
L 199.958031 268.29144 
L 201.814433 262.144597 
L 203.670834 256.754912 
L 205.527236 252.15307 
L 206.764838 249.535994 
L 208.002439 247.287436 
L 209.24004 245.413086 
L 210.477641 243.91769 
L 211.715243 242.805032 
L 212.952844 242.077927 
L 214.190445 241.738218 
L 215.428046 241.786763 
L 216.665647 242.22344 
L 217.903249 243.047144 
L 219.14085 244.255789 
L 220.378451 245.846316 
L 221.616052 247.8147 
L 222.853654 250.155958 
L 224.091255 252.864163 
L 225.947657 257.599255 
L 227.804059 263.117384 
L 229.66046 269.387131 
L 231.516862 276.372799 
L 233.992065 286.731375 
L 236.467267 298.186739 
L 238.94247 310.622982 
L 242.036473 327.355108 
L 245.749277 348.822837 
L 250.699681 378.996564 
L 253.174884 394.405404 
L 253.793685 391.99332 
L 260.600491 350.204754 
L 264.313295 328.656598 
L 267.407298 311.834741 
L 270.501301 296.329114 
L 272.976504 285.037751 
L 275.451706 274.860313 
L 277.308108 268.020647 
L 279.16451 261.904683 
L 281.020912 256.547242 
L 282.877314 251.978827 
L 284.114915 249.384599 
L 285.352516 247.159272 
L 286.590117 245.308478 
L 287.827719 243.836902 
L 289.06532 242.748268 
L 290.302921 242.045332 
L 291.540522 241.729874 
L 292.778124 241.802691 
L 294.015725 242.2636 
L 295.253326 243.111433 
L 296.490927 244.344046 
L 297.728529 245.958317 
L 298.96613 247.950161 
L 300.203731 250.314536 
L 301.441332 253.045459 
L 303.297734 257.813747 
L 305.154136 263.36385 
L 307.010538 269.664169 
L 308.86694 276.678831 
L 311.342142 287.07333 
L 313.817345 298.561155 
L 316.292547 311.026071 
L 319.38655 327.788273 
L 323.099354 349.283024 
L 328.049759 379.476428 
L 330.524961 394.887861 
L 331.762563 387.653923 
L 337.950569 349.743665 
L 341.663372 328.222105 
L 344.757376 311.429992 
L 347.851379 295.960505 
L 350.326581 284.70228 
L 352.801784 274.561372 
L 354.658185 267.75111 
L 356.514587 261.666085 
L 358.370989 256.340942 
L 360.227391 251.806 
L 361.464992 249.234645 
L 362.702594 247.032571 
L 363.940195 245.205351 
L 365.177796 243.75761 
L 366.415397 242.693011 
L 367.652998 242.014251 
L 368.8906 241.723047 
L 370.128201 241.820135 
L 371.365802 242.305271 
L 372.603403 243.177226 
L 373.841005 244.433794 
L 375.078606 246.071793 
L 376.316207 248.087078 
L 377.553808 250.474548 
L 378.79141 253.228159 
L 380.647811 258.029596 
L 382.504213 263.611619 
L 384.360615 269.942448 
L 386.217017 276.986035 
L 388.692219 287.416352 
L 391.167422 298.936526 
L 393.642624 311.429992 
L 396.736628 328.222105 
L 400.449431 349.743665 
L 405.399836 379.956447 
L 407.875039 394.887861 
L 414.681845 352.980459 
L 418.394649 331.277209 
L 421.488652 314.280391 
L 424.582655 298.561155 
L 427.057858 287.07333 
L 429.53306 276.678831 
L 431.389462 269.664169 
L 433.245864 263.36385 
L 435.102266 257.813747 
L 436.958668 253.045459 
L 438.81507 249.086134 
L 440.052671 246.907335 
L 441.290272 245.103707 
L 442.527873 243.679814 
L 443.765475 242.639262 
L 445.003076 241.984684 
L 446.240677 241.717736 
L 447.478278 241.839095 
L 448.71588 242.348454 
L 449.953481 243.244522 
L 451.191082 244.525032 
L 452.428683 246.186743 
L 453.666284 248.225449 
L 454.903886 250.635989 
L 456.141487 253.412262 
L 457.997889 258.246801 
L 459.854291 263.86069 
L 461.710693 270.221965 
L 463.567094 277.294408 
L 466.042297 287.76044 
L 468.517499 299.312848 
L 470.992702 311.834741 
L 474.086705 328.656598 
L 477.799509 350.204754 
L 482.749914 380.436616 
L 484.606315 391.99332 
L 485.225116 394.405404 
L 492.031923 352.516773 
L 495.744727 330.838837 
L 498.83873 313.87076 
L 501.932733 298.186739 
L 504.407935 286.731375 
L 506.883138 276.372799 
L 508.73954 269.387131 
L 510.595941 263.117384 
L 512.452343 257.599255 
L 514.308745 252.864163 
L 516.165147 248.939068 
L 517.402748 246.783565 
L 518.640349 245.003546 
L 519.877951 243.603517 
L 521.115552 242.587021 
L 522.353153 241.956631 
L 523.590754 241.713944 
L 524.828356 241.859572 
L 526.065957 242.393147 
L 527.303558 243.31332 
L 528.541159 244.61776 
L 529.778761 246.303166 
L 531.016362 248.365273 
L 532.253963 250.79886 
L 533.491564 253.597767 
L 535.347966 258.46536 
L 537.204368 264.111058 
L 539.06077 270.502717 
L 540.917172 277.603945 
L 543.392374 288.10559 
L 545.867577 299.690118 
L 548.342779 312.240313 
L 551.436782 329.091748 
L 555.149586 350.666287 
L 560.099991 380.91693 
L 561.956393 392.475694 
L 562.575193 393.922954 
L 569.382 352.053508 
L 573.094804 330.4011 
L 576.188807 313.461933 
L 579.28281 297.813282 
L 581.758013 286.390493 
L 584.233215 276.067941 
L 586.089617 269.111336 
L 587.946019 262.872223 
L 589.802421 257.386124 
L 591.658822 252.684275 
L 592.896424 249.998812 
L 594.134025 247.680695 
L 595.371626 245.735791 
L 596.609227 244.169024 
L 597.846829 242.984358 
L 599.08443 242.184793 
L 600.322031 241.772352 
L 601.559632 241.748079 
L 602.797234 242.112036 
L 604.034835 242.863301 
L 605.272436 243.999974 
L 606.510037 245.519176 
L 607.747639 247.417062 
L 608.98524 249.688829 
L 610.222841 252.328727 
L 612.079243 256.96395 
L 613.935645 262.385827 
L 615.792047 268.563488 
L 617.648448 275.46176 
L 620.123651 285.711958 
L 622.598853 297.069258 
L 625.074056 309.418745 
L 628.168059 326.059651 
L 631.880863 347.445042 
L 636.831268 377.557948 
L 639.30647 392.958094 
L 639.925271 393.440515 
L 646.732078 351.590669 
L 650.444881 329.964003 
L 653.538884 313.053913 
L 656.632887 297.440787 
L 659.10809 286.050686 
L 661.583292 275.76426 
L 663.439694 268.836788 
L 665.296096 262.62837 
L 667.152498 257.174355 
L 669.0089 252.505796 
L 670.246501 249.843102 
L 671.484102 247.548149 
L 672.721704 245.626744 
L 673.959305 244.083752 
L 675.196906 242.923077 
L 676.434507 242.147658 
L 677.672108 241.759457 
L 678.290909 241.710909 
L 678.290909 241.710909 
" clip-path="url(#p15fc4a17a8)" style="fill: none; stroke: #0000ff; stroke-width: 1.5; stroke-linecap: square"/>
   </g>
   <g id="LineCollection_2">
    <path d="M 98.745455 395.129091 
L 98.745455 241.710909 
" clip-path="url(#p15fc4a17a8)" style="fill: none; stroke-dasharray: 1.5,2.475; stroke-dashoffset: 0; stroke: #000000; stroke-width: 1.5"/>
    <path d="M 137.381818 395.129091 
L 137.381818 241.710909 
" clip-path="url(#p15fc4a17a8)" style="fill: none; stroke-dasharray: 1.5,2.475; stroke-dashoffset: 0; stroke: #000000; stroke-width: 1.5"/>
    <path d="M 176.018182 395.129091 
L 176.018182 241.710909 
" clip-path="url(#p15fc4a17a8)" style="fill: none; stroke-dasharray: 1.5,2.475; stroke-dashoffset: 0; stroke: #000000; stroke-width: 1.5"/>
    <path d="M 214.654545 395.129091 
L 214.654545 241.710909 
" clip-path="url(#p15fc4a17a8)" style="fill: none; stroke-dasharray: 1.5,2.475; stroke-dashoffset: 0; stroke: #000000; stroke-width: 1.5"/>
    <path d="M 253.290909 395.129091 
L 253.290909 241.710909 
" clip-path="url(#p15fc4a17a8)" style="fill: none; stroke-dasharray: 1.5,2.475; stroke-dashoffset: 0; stroke: #000000; stroke-width: 1.5"/>
    <path d="M 291.927273 395.129091 
L 291.927273 241.710909 
" clip-path="url(#p15fc4a17a8)" style="fill: none; stroke-dasharray: 1.5,2.475; stroke-dashoffset: 0; stroke: #000000; stroke-width: 1.5"/>
    <path d="M 330.563636 395.129091 
L 330.563636 241.710909 
" clip-path="url(#p15fc4a17a8)" style="fill: none; stroke-dasharray: 1.5,2.475; stroke-dashoffset: 0; stroke: #000000; stroke-width: 1.5"/>
    <path d="M 369.2 395.129091 
L 369.2 241.710909 
" clip-path="url(#p15fc4a17a8)" style="fill: none; stroke-dasharray: 1.5,2.475; stroke-dashoffset: 0; stroke: #000000; stroke-width: 1.5"/>
    <path d="M 407.836364 395.129091 
L 407.836364 241.710909 
" clip-path="url(#p15fc4a17a8)" style="fill: none; stroke-dasharray: 1.5,2.475; stroke-dashoffset: 0; stroke: #000000; stroke-width: 1.5"/>
    <path d="M 446.472727 395.129091 
L 446.472727 241.710909 
" clip-path="url(#p15fc4a17a8)" style="fill: none; stroke-dasharray: 1.5,2.475; stroke-dashoffset: 0; stroke: #000000; stroke-width: 1.5"/>
    <path d="M 485.109091 395.129091 
L 485.109091 241.710909 
" clip-path="url(#p15fc4a17a8)" style="fill: none; stroke-dasharray: 1.5,2.475; stroke-dashoffset: 0; stroke: #000000; stroke-width: 1.5"/>
    <path d="M 523.745455 395.129091 
L 523.745455 241.710909 
" clip-path="url(#p15fc4a17a8)" style="fill: none; stroke-dasharray: 1.5,2.475; stroke-dashoffset: 0; stroke: #000000; stroke-width: 1.5"/>
    <path d="M 562.381818 395.129091 
L 562.381818 241.710909 
" clip-path="url(#p15fc4a17a8)" style="fill: none; stroke-dasharray: 1.5,2.475; stroke-dashoffset: 0; stroke: #000000; stroke-width: 1.5"/>
    <path d="M 601.018182 395.129091 
L 601.018182 241.710909 
" clip-path="url(#p15fc4a17a8)" style="fill: none; stroke-dasharray: 1.5,2.475; stroke-dashoffset: 0; stroke: #000000; stroke-width: 1.5"/>
    <path d="M 639.654545 395.129091 
L 639.654545 241.710909 
" clip-path="url(#p15fc4a17a8)" style="fill: none; stroke-dasharray: 1.5,2.475; stroke-dashoffset: 0; stroke: #000000; stroke-width: 1.5"/>
   </g>
   <g id="patch_11">
    <path d="M 29.2 402.8 
L 29.2 234.04 
" style="fill: none; stroke: #000000; stroke-width: 0.8; stroke-linejoin: miter; stroke-linecap: square"/>
   </g>
   <g id="patch_12">
    <path d="M 709.2 402.8 
L 709.2 234.04 
" style="fill: none; stroke: #000000; stroke-width: 0.8; stroke-linejoin: miter; stroke-linecap: square"/>
   </g>
   <g id="patch_13">
    <path d="M 29.2 402.8 
L 709.2 402.8 
" style="fill: none; stroke: #000000; stroke-width: 0.8; stroke-linejoin: miter; stroke-linecap: square"/>
   </g>
   <g id="patch_14">
    <path d="M 29.2 234.04 
L 709.2 234.04 
" style="fill: none; stroke: #000000; stroke-width: 0.8; stroke-linejoin: miter; stroke-linecap: square"/>
   </g>
   <g id="text_6">
    <!-- OFDM -->
    <g transform="translate(339.248437 228.04) scale(0.2 -0.2)">
     <defs>
      <path id="DejaVuSans-4f" d="M 2522 4238 
Q 1834 4238 1429 3725 
Q 1025 3213 1025 2328 
Q 1025 1447 1429 934 
Q 1834 422 2522 422 
Q 3209 422 3611 934 
Q 4013 1447 4013 2328 
Q 4013 3213 3611 3725 
Q 3209 4238 2522 4238 
z
M 2522 4750 
Q 3503 4750 4090 4092 
Q 4678 3434 4678 2328 
Q 4678 1225 4090 567 
Q 3503 -91 2522 -91 
Q 1538 -91 948 565 
Q 359 1222 359 2328 
Q 359 3434 948 4092 
Q 1538 4750 2522 4750 
z
" transform="scale(0.015625)"/>
     </defs>
     <use xlink:href="#DejaVuSans-4f"/>
     <use xlink:href="#DejaVuSans-46" x="78.710938"/>
     <use xlink:href="#DejaVuSans-44" x="136.230469"/>
     <use xlink:href="#DejaVuSans-4d" x="213.232422"/>
    </g>
   </g>
   <g id="legend_2">
    <g id="patch_15">
     <path d="M 698.2 247.04 
L 702.2 247.04 
Q 704.2 247.04 704.2 245.04 
L 704.2 241.04 
Q 704.2 239.04 702.2 239.04 
L 698.2 239.04 
Q 696.2 239.04 696.2 241.04 
L 696.2 245.04 
Q 696.2 247.04 698.2 247.04 
z
" style="fill: #ffffff; opacity: 0.8; stroke: #cccccc; stroke-linejoin: miter"/>
    </g>
   </g>
  </g>
 </g>
 <defs>
  <clipPath id="p29d54f27d2">
   <rect x="29.2" y="32.64" width="680" height="168.76"/>
  </clipPath>
  <clipPath id="p15fc4a17a8">
   <rect x="29.2" y="234.04" width="680" height="168.76"/>
  </clipPath>
 </defs>
</svg>
