<?xml version="1.0" encoding="utf-8" standalone="no"?>
<!DOCTYPE svg PUBLIC "-//W3C//DTD SVG 1.1//EN"
  "http://www.w3.org/Graphics/SVG/1.1/DTD/svg11.dtd">
<svg xmlns:xlink="http://www.w3.org/1999/xlink" width="720pt" height="432pt" viewBox="0 0 720 432" xmlns="http://www.w3.org/2000/svg" version="1.1">
 <metadata>
  <rdf:RDF xmlns:dc="http://purl.org/dc/elements/1.1/" xmlns:cc="http://creativecommons.org/ns#" xmlns:rdf="http://www.w3.org/1999/02/22-rdf-syntax-ns#">
   <cc:Work>
    <dc:type rdf:resource="http://purl.org/dc/dcmitype/StillImage"/>
    <dc:date>2024-10-06T22:08:43.208208</dc:date>
    <dc:format>image/svg+xml</dc:format>
    <dc:creator>
     <cc:Agent>
      <dc:title>Matplotlib v3.9.1, https://matplotlib.org/</dc:title>
     </cc:Agent>
    </dc:creator>
   </cc:Work>
  </rdf:RDF>
 </metadata>
 <defs>
  <style type="text/css">*{stroke-linejoin: round; stroke-linecap: butt}</style>
 </defs>
 <g id="figure_1">
  <g id="patch_1">
   <path d="M 0 432 
L 720 432 
L 720 0 
L 0 0 
z
" style="fill: #ffffff"/>
  </g>
  <g id="axes_1">
   <g id="patch_2">
    <path d="M 52.04 201.4 
L 709.2 201.4 
L 709.2 32.64 
L 52.04 32.64 
z
" style="fill: #ffffff"/>
   </g>
   <g id="matplotlib.axis_1"/>
   <g id="matplotlib.axis_2">
    <g id="ytick_1">
     <g id="line2d_1">
      <defs>
       <path id="me3e4e618c9" d="M 0 0 
L -3.5 0 
" style="stroke: #000000; stroke-width: 0.8"/>
      </defs>
      <g>
       <use xlink:href="#me3e4e618c9" x="52.04" y="193.729091" style="stroke: #000000; stroke-width: 0.8"/>
      </g>
     </g>
     <g id="text_1">
      <!-- 0.0 -->
      <g transform="translate(29.136875 197.52831) scale(0.1 -0.1)">
       <defs>
        <path id="DejaVuSans-30" d="M 2034 4250 
Q 1547 4250 1301 3770 
Q 1056 3291 1056 2328 
Q 1056 1369 1301 889 
Q 1547 409 2034 409 
Q 2525 409 2770 889 
Q 3016 1369 3016 2328 
Q 3016 3291 2770 3770 
Q 2525 4250 2034 4250 
z
M 2034 4750 
Q 2819 4750 3233 4129 
Q 3647 3509 3647 2328 
Q 3647 1150 3233 529 
Q 2819 -91 2034 -91 
Q 1250 -91 836 529 
Q 422 1150 422 2328 
Q 422 3509 836 4129 
Q 1250 4750 2034 4750 
z
" transform="scale(0.015625)"/>
        <path id="DejaVuSans-2e" d="M 684 794 
L 1344 794 
L 1344 0 
L 684 0 
L 684 794 
z
" transform="scale(0.015625)"/>
       </defs>
       <use xlink:href="#DejaVuSans-30"/>
       <use xlink:href="#DejaVuSans-2e" x="63.623047"/>
       <use xlink:href="#DejaVuSans-30" x="95.410156"/>
      </g>
     </g>
    </g>
    <g id="ytick_2">
     <g id="line2d_2">
      <g>
       <use xlink:href="#me3e4e618c9" x="52.04" y="163.045455" style="stroke: #000000; stroke-width: 0.8"/>
      </g>
     </g>
     <g id="text_2">
      <!-- 0.2 -->
      <g transform="translate(29.136875 166.844673) scale(0.1 -0.1)">
       <defs>
        <path id="DejaVuSans-32" d="M 1228 531 
L 3431 531 
L 3431 0 
L 469 0 
L 469 531 
Q 828 903 1448 1529 
Q 2069 2156 2228 2338 
Q 2531 2678 2651 2914 
Q 2772 3150 2772 3378 
Q 2772 3750 2511 3984 
Q 2250 4219 1831 4219 
Q 1534 4219 1204 4116 
Q 875 4013 500 3803 
L 500 4441 
Q 881 4594 1212 4672 
Q 1544 4750 1819 4750 
Q 2544 4750 2975 4387 
Q 3406 4025 3406 3419 
Q 3406 3131 3298 2873 
Q 3191 2616 2906 2266 
Q 2828 2175 2409 1742 
Q 1991 1309 1228 531 
z
" transform="scale(0.015625)"/>
       </defs>
       <use xlink:href="#DejaVuSans-30"/>
       <use xlink:href="#DejaVuSans-2e" x="63.623047"/>
       <use xlink:href="#DejaVuSans-32" x="95.410156"/>
      </g>
     </g>
    </g>
    <g id="ytick_3">
     <g id="line2d_3">
      <g>
       <use xlink:href="#me3e4e618c9" x="52.04" y="132.361818" style="stroke: #000000; stroke-width: 0.8"/>
      </g>
     </g>
     <g id="text_3">
      <!-- 0.4 -->
      <g transform="translate(29.136875 136.161037) scale(0.1 -0.1)">
       <defs>
        <path id="DejaVuSans-34" d="M 2419 4116 
L 825 1625 
L 2419 1625 
L 2419 4116 
z
M 2253 4666 
L 3047 4666 
L 3047 1625 
L 3713 1625 
L 3713 1100 
L 3047 1100 
L 3047 0 
L 2419 0 
L 2419 1100 
L 313 1100 
L 313 1709 
L 2253 4666 
z
" transform="scale(0.015625)"/>
       </defs>
       <use xlink:href="#DejaVuSans-30"/>
       <use xlink:href="#DejaVuSans-2e" x="63.623047"/>
       <use xlink:href="#DejaVuSans-34" x="95.410156"/>
      </g>
     </g>
    </g>
    <g id="ytick_4">
     <g id="line2d_4">
      <g>
       <use xlink:href="#me3e4e618c9" x="52.04" y="101.678182" style="stroke: #000000; stroke-width: 0.8"/>
      </g>
     </g>
     <g id="text_4">
      <!-- 0.6 -->
      <g transform="translate(29.136875 105.477401) scale(0.1 -0.1)">
       <defs>
        <path id="DejaVuSans-36" d="M 2113 2584 
Q 1688 2584 1439 2293 
Q 1191 2003 1191 1497 
Q 1191 994 1439 701 
Q 1688 409 2113 409 
Q 2538 409 2786 701 
Q 3034 994 3034 1497 
Q 3034 2003 2786 2293 
Q 2538 2584 2113 2584 
z
M 3366 4563 
L 3366 3988 
Q 3128 4100 2886 4159 
Q 2644 4219 2406 4219 
Q 1781 4219 1451 3797 
Q 1122 3375 1075 2522 
Q 1259 2794 1537 2939 
Q 1816 3084 2150 3084 
Q 2853 3084 3261 2657 
Q 3669 2231 3669 1497 
Q 3669 778 3244 343 
Q 2819 -91 2113 -91 
Q 1303 -91 875 529 
Q 447 1150 447 2328 
Q 447 3434 972 4092 
Q 1497 4750 2381 4750 
Q 2619 4750 2861 4703 
Q 3103 4656 3366 4563 
z
" transform="scale(0.015625)"/>
       </defs>
       <use xlink:href="#DejaVuSans-30"/>
       <use xlink:href="#DejaVuSans-2e" x="63.623047"/>
       <use xlink:href="#DejaVuSans-36" x="95.410156"/>
      </g>
     </g>
    </g>
    <g id="ytick_5">
     <g id="line2d_5">
      <g>
       <use xlink:href="#me3e4e618c9" x="52.04" y="70.994545" style="stroke: #000000; stroke-width: 0.8"/>
      </g>
     </g>
     <g id="text_5">
      <!-- 0.8 -->
      <g transform="translate(29.136875 74.793764) scale(0.1 -0.1)">
       <defs>
        <path id="DejaVuSans-38" d="M 2034 2216 
Q 1584 2216 1326 1975 
Q 1069 1734 1069 1313 
Q 1069 891 1326 650 
Q 1584 409 2034 409 
Q 2484 409 2743 651 
Q 3003 894 3003 1313 
Q 3003 1734 2745 1975 
Q 2488 2216 2034 2216 
z
M 1403 2484 
Q 997 2584 770 2862 
Q 544 3141 544 3541 
Q 544 4100 942 4425 
Q 1341 4750 2034 4750 
Q 2731 4750 3128 4425 
Q 3525 4100 3525 3541 
Q 3525 3141 3298 2862 
Q 3072 2584 2669 2484 
Q 3125 2378 3379 2068 
Q 3634 1759 3634 1313 
Q 3634 634 3220 271 
Q 2806 -91 2034 -91 
Q 1263 -91 848 271 
Q 434 634 434 1313 
Q 434 1759 690 2068 
Q 947 2378 1403 2484 
z
M 1172 3481 
Q 1172 3119 1398 2916 
Q 1625 2713 2034 2713 
Q 2441 2713 2670 2916 
Q 2900 3119 2900 3481 
Q 2900 3844 2670 4047 
Q 2441 4250 2034 4250 
Q 1625 4250 1398 4047 
Q 1172 3844 1172 3481 
z
" transform="scale(0.015625)"/>
       </defs>
       <use xlink:href="#DejaVuSans-30"/>
       <use xlink:href="#DejaVuSans-2e" x="63.623047"/>
       <use xlink:href="#DejaVuSans-38" x="95.410156"/>
      </g>
     </g>
    </g>
    <g id="ytick_6">
     <g id="line2d_6">
      <g>
       <use xlink:href="#me3e4e618c9" x="52.04" y="40.310909" style="stroke: #000000; stroke-width: 0.8"/>
      </g>
     </g>
     <g id="text_6">
      <!-- 1.0 -->
      <g transform="translate(29.136875 44.110128) scale(0.1 -0.1)">
       <defs>
        <path id="DejaVuSans-31" d="M 794 531 
L 1825 531 
L 1825 4091 
L 703 3866 
L 703 4441 
L 1819 4666 
L 2450 4666 
L 2450 531 
L 3481 531 
L 3481 0 
L 794 0 
L 794 531 
z
" transform="scale(0.015625)"/>
       </defs>
       <use xlink:href="#DejaVuSans-31"/>
       <use xlink:href="#DejaVuSans-2e" x="63.623047"/>
       <use xlink:href="#DejaVuSans-30" x="95.410156"/>
      </g>
     </g>
    </g>
    <g id="text_7">
     <!-- Spectrum -->
     <g transform="translate(22.017344 153.363359) rotate(-90) scale(0.15 -0.15)">
      <defs>
       <path id="DejaVuSans-53" d="M 3425 4513 
L 3425 3897 
Q 3066 4069 2747 4153 
Q 2428 4238 2131 4238 
Q 1616 4238 1336 4038 
Q 1056 3838 1056 3469 
Q 1056 3159 1242 3001 
Q 1428 2844 1947 2747 
L 2328 2669 
Q 3034 2534 3370 2195 
Q 3706 1856 3706 1288 
Q 3706 609 3251 259 
Q 2797 -91 1919 -91 
Q 1588 -91 1214 -16 
Q 841 59 441 206 
L 441 856 
Q 825 641 1194 531 
Q 1563 422 1919 422 
Q 2459 422 2753 634 
Q 3047 847 3047 1241 
Q 3047 1584 2836 1778 
Q 2625 1972 2144 2069 
L 1759 2144 
Q 1053 2284 737 2584 
Q 422 2884 422 3419 
Q 422 4038 858 4394 
Q 1294 4750 2059 4750 
Q 2388 4750 2728 4690 
Q 3069 4631 3425 4513 
z
" transform="scale(0.015625)"/>
       <path id="DejaVuSans-70" d="M 1159 525 
L 1159 -1331 
L 581 -1331 
L 581 3500 
L 1159 3500 
L 1159 2969 
Q 1341 3281 1617 3432 
Q 1894 3584 2278 3584 
Q 2916 3584 3314 3078 
Q 3713 2572 3713 1747 
Q 3713 922 3314 415 
Q 2916 -91 2278 -91 
Q 1894 -91 1617 61 
Q 1341 213 1159 525 
z
M 3116 1747 
Q 3116 2381 2855 2742 
Q 2594 3103 2138 3103 
Q 1681 3103 1420 2742 
Q 1159 2381 1159 1747 
Q 1159 1113 1420 752 
Q 1681 391 2138 391 
Q 2594 391 2855 752 
Q 3116 1113 3116 1747 
z
" transform="scale(0.015625)"/>
       <path id="DejaVuSans-65" d="M 3597 1894 
L 3597 1613 
L 953 1613 
Q 991 1019 1311 708 
Q 1631 397 2203 397 
Q 2534 397 2845 478 
Q 3156 559 3463 722 
L 3463 178 
Q 3153 47 2828 -22 
Q 2503 -91 2169 -91 
Q 1331 -91 842 396 
Q 353 884 353 1716 
Q 353 2575 817 3079 
Q 1281 3584 2069 3584 
Q 2775 3584 3186 3129 
Q 3597 2675 3597 1894 
z
M 3022 2063 
Q 3016 2534 2758 2815 
Q 2500 3097 2075 3097 
Q 1594 3097 1305 2825 
Q 1016 2553 972 2059 
L 3022 2063 
z
" transform="scale(0.015625)"/>
       <path id="DejaVuSans-63" d="M 3122 3366 
L 3122 2828 
Q 2878 2963 2633 3030 
Q 2388 3097 2138 3097 
Q 1578 3097 1268 2742 
Q 959 2388 959 1747 
Q 959 1106 1268 751 
Q 1578 397 2138 397 
Q 2388 397 2633 464 
Q 2878 531 3122 666 
L 3122 134 
Q 2881 22 2623 -34 
Q 2366 -91 2075 -91 
Q 1284 -91 818 406 
Q 353 903 353 1747 
Q 353 2603 823 3093 
Q 1294 3584 2113 3584 
Q 2378 3584 2631 3529 
Q 2884 3475 3122 3366 
z
" transform="scale(0.015625)"/>
       <path id="DejaVuSans-74" d="M 1172 4494 
L 1172 3500 
L 2356 3500 
L 2356 3053 
L 1172 3053 
L 1172 1153 
Q 1172 725 1289 603 
Q 1406 481 1766 481 
L 2356 481 
L 2356 0 
L 1766 0 
Q 1100 0 847 248 
Q 594 497 594 1153 
L 594 3053 
L 172 3053 
L 172 3500 
L 594 3500 
L 594 4494 
L 1172 4494 
z
" transform="scale(0.015625)"/>
       <path id="DejaVuSans-72" d="M 2631 2963 
Q 2534 3019 2420 3045 
Q 2306 3072 2169 3072 
Q 1681 3072 1420 2755 
Q 1159 2438 1159 1844 
L 1159 0 
L 581 0 
L 581 3500 
L 1159 3500 
L 1159 2956 
Q 1341 3275 1631 3429 
Q 1922 3584 2338 3584 
Q 2397 3584 2469 3576 
Q 2541 3569 2628 3553 
L 2631 2963 
z
" transform="scale(0.015625)"/>
       <path id="DejaVuSans-75" d="M 544 1381 
L 544 3500 
L 1119 3500 
L 1119 1403 
Q 1119 906 1312 657 
Q 1506 409 1894 409 
Q 2359 409 2629 706 
Q 2900 1003 2900 1516 
L 2900 3500 
L 3475 3500 
L 3475 0 
L 2900 0 
L 2900 538 
Q 2691 219 2414 64 
Q 2138 -91 1772 -91 
Q 1169 -91 856 284 
Q 544 659 544 1381 
z
M 1991 3584 
L 1991 3584 
z
" transform="scale(0.015625)"/>
       <path id="DejaVuSans-6d" d="M 3328 2828 
Q 3544 3216 3844 3400 
Q 4144 3584 4550 3584 
Q 5097 3584 5394 3201 
Q 5691 2819 5691 2113 
L 5691 0 
L 5113 0 
L 5113 2094 
Q 5113 2597 4934 2840 
Q 4756 3084 4391 3084 
Q 3944 3084 3684 2787 
Q 3425 2491 3425 1978 
L 3425 0 
L 2847 0 
L 2847 2094 
Q 2847 2600 2669 2842 
Q 2491 3084 2119 3084 
Q 1678 3084 1418 2786 
Q 1159 2488 1159 1978 
L 1159 0 
L 581 0 
L 581 3500 
L 1159 3500 
L 1159 2956 
Q 1356 3278 1631 3431 
Q 1906 3584 2284 3584 
Q 2666 3584 2933 3390 
Q 3200 3197 3328 2828 
z
" transform="scale(0.015625)"/>
      </defs>
      <use xlink:href="#DejaVuSans-53"/>
      <use xlink:href="#DejaVuSans-70" x="63.476562"/>
      <use xlink:href="#DejaVuSans-65" x="126.953125"/>
      <use xlink:href="#DejaVuSans-63" x="188.476562"/>
      <use xlink:href="#DejaVuSans-74" x="243.457031"/>
      <use xlink:href="#DejaVuSans-72" x="282.666016"/>
      <use xlink:href="#DejaVuSans-75" x="323.779297"/>
      <use xlink:href="#DejaVuSans-6d" x="387.158203"/>
     </g>
    </g>
   </g>
   <g id="line2d_7">
    <path d="M 81.910909 193.729091 
L 89.087103 148.113288 
L 92.675201 126.605106 
L 95.665282 109.827928 
L 98.655363 94.376568 
L 101.047427 83.134953 
L 103.439492 73.012348 
L 105.233541 66.216814 
L 107.027589 60.147282 
L 108.821638 54.838307 
L 110.615687 50.320117 
L 111.811719 47.76021 
L 113.007751 45.56977 
L 114.203784 43.754344 
L 115.399816 42.318525 
L 116.595849 41.265948 
L 117.791881 40.599278 
L 118.987913 40.320202 
L 120.183946 40.429426 
L 121.379978 40.926674 
L 122.576011 41.810686 
L 123.772043 43.079227 
L 124.968075 44.729084 
L 126.164108 46.756082 
L 127.36014 49.15509 
L 129.154189 53.437584 
L 130.948237 58.518838 
L 132.742286 64.369922 
L 134.536335 70.957522 
L 136.928399 80.821276 
L 139.320464 91.827452 
L 141.712529 103.864686 
L 144.70261 120.174713 
L 148.290707 141.256982 
L 152.47682 167.325901 
L 156.662934 193.729091 
L 230.816942 193.729091 
L 231.414959 192.764177 
L 237.993137 150.885087 
L 241.581234 129.219888 
L 244.571315 112.266246 
L 247.561396 96.59989 
L 249.953461 85.1608 
L 252.345526 74.820223 
L 254.139574 67.849078 
L 255.933623 61.59464 
L 257.727671 56.09252 
L 259.52172 51.374043 
L 261.315768 47.466077 
L 262.511801 45.32223 
L 263.707833 43.554023 
L 264.903866 42.16593 
L 266.099898 41.161466 
L 267.29593 40.543173 
L 268.491963 40.312616 
L 269.687995 40.470378 
L 270.884028 41.01606 
L 272.08006 41.948282 
L 273.276092 43.264682 
L 274.472125 44.96193 
L 275.668157 47.035729 
L 276.86419 49.48083 
L 278.658238 53.830883 
L 280.452287 58.977456 
L 282.246335 64.891248 
L 284.040384 71.538588 
L 286.432449 81.476793 
L 288.824514 92.550786 
L 291.216578 104.648519 
L 294.206659 121.022953 
L 297.794757 142.164742 
L 301.98087 168.27694 
L 305.568967 191.316891 
L 306.166983 193.729091 
L 380.320992 193.729091 
L 380.919008 191.799302 
L 387.497186 149.95941 
L 391.085283 128.345696 
L 394.075364 111.450208 
L 397.065445 95.854902 
L 399.45751 84.481187 
L 401.849575 74.212862 
L 403.643624 67.299982 
L 405.437672 61.106935 
L 407.231721 55.668982 
L 409.025769 51.017085 
L 410.819818 47.177729 
L 412.01585 45.08056 
L 413.211883 43.359642 
L 414.407915 42.019331 
L 415.603948 41.063019 
L 416.79998 40.493128 
L 417.996012 40.311099 
L 419.192045 40.517393 
L 420.388077 41.111488 
L 421.58411 42.091881 
L 422.780142 43.456089 
L 423.976174 45.200661 
L 425.172207 47.321179 
L 426.368239 49.812277 
L 428.162288 54.229716 
L 429.956336 59.441405 
L 431.750385 65.41767 
L 433.544434 72.124487 
L 435.936498 82.136749 
L 438.328563 93.278122 
L 440.720628 105.435876 
L 443.710709 121.874069 
L 447.298806 143.074542 
L 451.484919 169.228985 
L 455.073017 192.281733 
L 455.671033 193.729091 
L 529.825041 193.729091 
L 530.423058 190.834503 
L 537.001236 149.035465 
L 540.589333 127.474091 
L 543.579414 110.637424 
L 546.569495 95.113785 
L 548.96156 83.805896 
L 551.353625 73.610229 
L 553.147673 66.755887 
L 554.941722 60.624475 
L 556.73577 55.250905 
L 558.529819 50.665771 
L 559.725851 48.060117 
L 560.921884 45.823171 
L 562.117916 43.960597 
L 563.313948 42.477109 
L 564.509981 41.376461 
L 565.706013 40.661441 
L 566.902046 40.333856 
L 568.098078 40.394538 
L 569.29411 40.843331 
L 570.490143 41.679101 
L 571.686175 42.899731 
L 572.882208 44.502132 
L 574.07824 46.482248 
L 575.274272 48.835068 
L 576.470305 51.554635 
L 578.264353 56.306331 
L 580.058402 61.840454 
L 581.852451 68.125494 
L 583.646499 75.125669 
L 586.038564 85.502219 
L 588.430629 96.973827 
L 590.822694 109.424423 
L 593.812775 126.171607 
L 597.400872 147.652874 
L 602.185001 177.836476 
L 604.577066 193.246632 
L 605.175082 193.729091 
L 679.329091 193.729091 
L 679.329091 193.729091 
" clip-path="url(#p48dcbc9b55)" style="fill: none; stroke: #ff0000; stroke-width: 1.5; stroke-linecap: square"/>
   </g>
   <g id="LineCollection_1">
    <path d="M 119.249545 193.729091 
L 119.249545 40.310909 
" clip-path="url(#p48dcbc9b55)" style="fill: none; stroke-dasharray: 1.5,2.475; stroke-dashoffset: 0; stroke: #000000; stroke-width: 1.5"/>
    <path d="M 268.604091 193.729091 
L 268.604091 40.310909 
" clip-path="url(#p48dcbc9b55)" style="fill: none; stroke-dasharray: 1.5,2.475; stroke-dashoffset: 0; stroke: #000000; stroke-width: 1.5"/>
    <path d="M 417.958636 193.729091 
L 417.958636 40.310909 
" clip-path="url(#p48dcbc9b55)" style="fill: none; stroke-dasharray: 1.5,2.475; stroke-dashoffset: 0; stroke: #000000; stroke-width: 1.5"/>
    <path d="M 567.313182 193.729091 
L 567.313182 40.310909 
" clip-path="url(#p48dcbc9b55)" style="fill: none; stroke-dasharray: 1.5,2.475; stroke-dashoffset: 0; stroke: #000000; stroke-width: 1.5"/>
   </g>
   <g id="patch_3">
    <path d="M 52.04 201.4 
L 52.04 32.64 
" style="fill: none; stroke: #000000; stroke-width: 0.8; stroke-linejoin: miter; stroke-linecap: square"/>
   </g>
   <g id="patch_4">
    <path d="M 709.2 201.4 
L 709.2 32.64 
" style="fill: none; stroke: #000000; stroke-width: 0.8; stroke-linejoin: miter; stroke-linecap: square"/>
   </g>
   <g id="patch_5">
    <path d="M 52.04 201.4 
L 709.2 201.4 
" style="fill: none; stroke: #000000; stroke-width: 0.8; stroke-linejoin: miter; stroke-linecap: square"/>
   </g>
   <g id="patch_6">
    <path d="M 52.04 32.64 
L 709.2 32.64 
" style="fill: none; stroke: #000000; stroke-width: 0.8; stroke-linejoin: miter; stroke-linecap: square"/>
   </g>
   <g id="patch_7">
    <path d="M 214.447874 167.604602 
Q 204.804832 179.880752 195.852424 191.277684 
" style="fill: none; stroke: #000000; stroke-linecap: round"/>
    <path d="M 203.939788 187.457403 
L 195.852424 191.277684 
L 197.648618 182.515625 
" style="fill: none; stroke: #000000; stroke-linecap: round"/>
   </g>
   <g id="text_8">
    <g id="patch_8">
     <path d="M 156.588182 165.53392 
L 300.191307 165.53392 
Q 306.191307 165.53392 306.191307 159.53392 
L 306.191307 140.17767 
Q 306.191307 134.17767 300.191307 134.17767 
L 156.588182 134.17767 
Q 150.588182 134.17767 150.588182 140.17767 
L 150.588182 159.53392 
Q 150.588182 165.53392 156.588182 165.53392 
z
" style="fill: #ffffff; stroke: #000000; stroke-linejoin: miter"/>
    </g>
    <!-- Guard interval -->
    <g transform="translate(156.588182 155.374545) scale(0.2 -0.2)">
     <defs>
      <path id="DejaVuSans-47" d="M 3809 666 
L 3809 1919 
L 2778 1919 
L 2778 2438 
L 4434 2438 
L 4434 434 
Q 4069 175 3628 42 
Q 3188 -91 2688 -91 
Q 1594 -91 976 548 
Q 359 1188 359 2328 
Q 359 3472 976 4111 
Q 1594 4750 2688 4750 
Q 3144 4750 3555 4637 
Q 3966 4525 4313 4306 
L 4313 3634 
Q 3963 3931 3569 4081 
Q 3175 4231 2741 4231 
Q 1884 4231 1454 3753 
Q 1025 3275 1025 2328 
Q 1025 1384 1454 906 
Q 1884 428 2741 428 
Q 3075 428 3337 486 
Q 3600 544 3809 666 
z
" transform="scale(0.015625)"/>
      <path id="DejaVuSans-61" d="M 2194 1759 
Q 1497 1759 1228 1600 
Q 959 1441 959 1056 
Q 959 750 1161 570 
Q 1363 391 1709 391 
Q 2188 391 2477 730 
Q 2766 1069 2766 1631 
L 2766 1759 
L 2194 1759 
z
M 3341 1997 
L 3341 0 
L 2766 0 
L 2766 531 
Q 2569 213 2275 61 
Q 1981 -91 1556 -91 
Q 1019 -91 701 211 
Q 384 513 384 1019 
Q 384 1609 779 1909 
Q 1175 2209 1959 2209 
L 2766 2209 
L 2766 2266 
Q 2766 2663 2505 2880 
Q 2244 3097 1772 3097 
Q 1472 3097 1187 3025 
Q 903 2953 641 2809 
L 641 3341 
Q 956 3463 1253 3523 
Q 1550 3584 1831 3584 
Q 2591 3584 2966 3190 
Q 3341 2797 3341 1997 
z
" transform="scale(0.015625)"/>
      <path id="DejaVuSans-64" d="M 2906 2969 
L 2906 4863 
L 3481 4863 
L 3481 0 
L 2906 0 
L 2906 525 
Q 2725 213 2448 61 
Q 2172 -91 1784 -91 
Q 1150 -91 751 415 
Q 353 922 353 1747 
Q 353 2572 751 3078 
Q 1150 3584 1784 3584 
Q 2172 3584 2448 3432 
Q 2725 3281 2906 2969 
z
M 947 1747 
Q 947 1113 1208 752 
Q 1469 391 1925 391 
Q 2381 391 2643 752 
Q 2906 1113 2906 1747 
Q 2906 2381 2643 2742 
Q 2381 3103 1925 3103 
Q 1469 3103 1208 2742 
Q 947 2381 947 1747 
z
" transform="scale(0.015625)"/>
      <path id="DejaVuSans-20" transform="scale(0.015625)"/>
      <path id="DejaVuSans-69" d="M 603 3500 
L 1178 3500 
L 1178 0 
L 603 0 
L 603 3500 
z
M 603 4863 
L 1178 4863 
L 1178 4134 
L 603 4134 
L 603 4863 
z
" transform="scale(0.015625)"/>
      <path id="DejaVuSans-6e" d="M 3513 2113 
L 3513 0 
L 2938 0 
L 2938 2094 
Q 2938 2591 2744 2837 
Q 2550 3084 2163 3084 
Q 1697 3084 1428 2787 
Q 1159 2491 1159 1978 
L 1159 0 
L 581 0 
L 581 3500 
L 1159 3500 
L 1159 2956 
Q 1366 3272 1645 3428 
Q 1925 3584 2291 3584 
Q 2894 3584 3203 3211 
Q 3513 2838 3513 2113 
z
" transform="scale(0.015625)"/>
      <path id="DejaVuSans-76" d="M 191 3500 
L 800 3500 
L 1894 563 
L 2988 3500 
L 3597 3500 
L 2284 0 
L 1503 0 
L 191 3500 
z
" transform="scale(0.015625)"/>
      <path id="DejaVuSans-6c" d="M 603 4863 
L 1178 4863 
L 1178 0 
L 603 0 
L 603 4863 
z
" transform="scale(0.015625)"/>
     </defs>
     <use xlink:href="#DejaVuSans-47"/>
     <use xlink:href="#DejaVuSans-75" x="77.490234"/>
     <use xlink:href="#DejaVuSans-61" x="140.869141"/>
     <use xlink:href="#DejaVuSans-72" x="202.148438"/>
     <use xlink:href="#DejaVuSans-64" x="241.511719"/>
     <use xlink:href="#DejaVuSans-20" x="304.988281"/>
     <use xlink:href="#DejaVuSans-69" x="336.775391"/>
     <use xlink:href="#DejaVuSans-6e" x="364.558594"/>
     <use xlink:href="#DejaVuSans-74" x="427.9375"/>
     <use xlink:href="#DejaVuSans-65" x="467.146484"/>
     <use xlink:href="#DejaVuSans-72" x="528.669922"/>
     <use xlink:href="#DejaVuSans-76" x="569.783203"/>
     <use xlink:href="#DejaVuSans-61" x="628.962891"/>
     <use xlink:href="#DejaVuSans-6c" x="690.242188"/>
    </g>
   </g>
   <g id="text_9">
    <!-- FDM -->
    <g transform="translate(358.540313 26.64) scale(0.2 -0.2)">
     <defs>
      <path id="DejaVuSans-46" d="M 628 4666 
L 3309 4666 
L 3309 4134 
L 1259 4134 
L 1259 2759 
L 3109 2759 
L 3109 2228 
L 1259 2228 
L 1259 0 
L 628 0 
L 628 4666 
z
" transform="scale(0.015625)"/>
      <path id="DejaVuSans-44" d="M 1259 4147 
L 1259 519 
L 2022 519 
Q 2988 519 3436 956 
Q 3884 1394 3884 2338 
Q 3884 3275 3436 3711 
Q 2988 4147 2022 4147 
L 1259 4147 
z
M 628 4666 
L 1925 4666 
Q 3281 4666 3915 4102 
Q 4550 3538 4550 2338 
Q 4550 1131 3912 565 
Q 3275 0 1925 0 
L 628 0 
L 628 4666 
z
" transform="scale(0.015625)"/>
      <path id="DejaVuSans-4d" d="M 628 4666 
L 1569 4666 
L 2759 1491 
L 3956 4666 
L 4897 4666 
L 4897 0 
L 4281 0 
L 4281 4097 
L 3078 897 
L 2444 897 
L 1241 4097 
L 1241 0 
L 628 0 
L 628 4666 
z
" transform="scale(0.015625)"/>
     </defs>
     <use xlink:href="#DejaVuSans-46"/>
     <use xlink:href="#DejaVuSans-44" x="57.519531"/>
     <use xlink:href="#DejaVuSans-4d" x="134.521484"/>
    </g>
   </g>
   <g id="legend_1">
    <g id="patch_9">
     <path d="M 698.2 45.64 
L 702.2 45.64 
Q 704.2 45.64 704.2 43.64 
L 704.2 39.64 
Q 704.2 37.64 702.2 37.64 
L 698.2 37.64 
Q 696.2 37.64 696.2 39.64 
L 696.2 43.64 
Q 696.2 45.64 698.2 45.64 
z
" style="fill: #ffffff; opacity: 0.8; stroke: #cccccc; stroke-linejoin: miter"/>
    </g>
   </g>
  </g>
  <g id="axes_2">
   <g id="patch_10">
    <path d="M 52.04 402.8 
L 709.2 402.8 
L 709.2 234.04 
L 52.04 234.04 
z
" style="fill: #ffffff"/>
   </g>
   <g id="matplotlib.axis_3">
    <g id="text_10">
     <!-- Frequencty -->
     <g transform="translate(338.935234 418.197656) scale(0.15 -0.15)">
      <defs>
       <path id="DejaVuSans-71" d="M 947 1747 
Q 947 1113 1208 752 
Q 1469 391 1925 391 
Q 2381 391 2643 752 
Q 2906 1113 2906 1747 
Q 2906 2381 2643 2742 
Q 2381 3103 1925 3103 
Q 1469 3103 1208 2742 
Q 947 2381 947 1747 
z
M 2906 525 
Q 2725 213 2448 61 
Q 2172 -91 1784 -91 
Q 1150 -91 751 415 
Q 353 922 353 1747 
Q 353 2572 751 3078 
Q 1150 3584 1784 3584 
Q 2172 3584 2448 3432 
Q 2725 3281 2906 2969 
L 2906 3500 
L 3481 3500 
L 3481 -1331 
L 2906 -1331 
L 2906 525 
z
" transform="scale(0.015625)"/>
       <path id="DejaVuSans-79" d="M 2059 -325 
Q 1816 -950 1584 -1140 
Q 1353 -1331 966 -1331 
L 506 -1331 
L 506 -850 
L 844 -850 
Q 1081 -850 1212 -737 
Q 1344 -625 1503 -206 
L 1606 56 
L 191 3500 
L 800 3500 
L 1894 763 
L 2988 3500 
L 3597 3500 
L 2059 -325 
z
" transform="scale(0.015625)"/>
      </defs>
      <use xlink:href="#DejaVuSans-46"/>
      <use xlink:href="#DejaVuSans-72" x="50.269531"/>
      <use xlink:href="#DejaVuSans-65" x="89.132812"/>
      <use xlink:href="#DejaVuSans-71" x="150.65625"/>
      <use xlink:href="#DejaVuSans-75" x="214.132812"/>
      <use xlink:href="#DejaVuSans-65" x="277.511719"/>
      <use xlink:href="#DejaVuSans-6e" x="339.035156"/>
      <use xlink:href="#DejaVuSans-63" x="402.414062"/>
      <use xlink:href="#DejaVuSans-74" x="457.394531"/>
      <use xlink:href="#DejaVuSans-79" x="496.603516"/>
     </g>
    </g>
   </g>
   <g id="matplotlib.axis_4">
    <g id="ytick_7">
     <g id="line2d_8">
      <g>
       <use xlink:href="#me3e4e618c9" x="52.04" y="395.129091" style="stroke: #000000; stroke-width: 0.8"/>
      </g>
     </g>
     <g id="text_11">
      <!-- 0.0 -->
      <g transform="translate(29.136875 398.92831) scale(0.1 -0.1)">
       <use xlink:href="#DejaVuSans-30"/>
       <use xlink:href="#DejaVuSans-2e" x="63.623047"/>
       <use xlink:href="#DejaVuSans-30" x="95.410156"/>
      </g>
     </g>
    </g>
    <g id="ytick_8">
     <g id="line2d_9">
      <g>
       <use xlink:href="#me3e4e618c9" x="52.04" y="364.445455" style="stroke: #000000; stroke-width: 0.8"/>
      </g>
     </g>
     <g id="text_12">
      <!-- 0.2 -->
      <g transform="translate(29.136875 368.244673) scale(0.1 -0.1)">
       <use xlink:href="#DejaVuSans-30"/>
       <use xlink:href="#DejaVuSans-2e" x="63.623047"/>
       <use xlink:href="#DejaVuSans-32" x="95.410156"/>
      </g>
     </g>
    </g>
    <g id="ytick_9">
     <g id="line2d_10">
      <g>
       <use xlink:href="#me3e4e618c9" x="52.04" y="333.761818" style="stroke: #000000; stroke-width: 0.8"/>
      </g>
     </g>
     <g id="text_13">
      <!-- 0.4 -->
      <g transform="translate(29.136875 337.561037) scale(0.1 -0.1)">
       <use xlink:href="#DejaVuSans-30"/>
       <use xlink:href="#DejaVuSans-2e" x="63.623047"/>
       <use xlink:href="#DejaVuSans-34" x="95.410156"/>
      </g>
     </g>
    </g>
    <g id="ytick_10">
     <g id="line2d_11">
      <g>
       <use xlink:href="#me3e4e618c9" x="52.04" y="303.078182" style="stroke: #000000; stroke-width: 0.8"/>
      </g>
     </g>
     <g id="text_14">
      <!-- 0.6 -->
      <g transform="translate(29.136875 306.877401) scale(0.1 -0.1)">
       <use xlink:href="#DejaVuSans-30"/>
       <use xlink:href="#DejaVuSans-2e" x="63.623047"/>
       <use xlink:href="#DejaVuSans-36" x="95.410156"/>
      </g>
     </g>
    </g>
    <g id="ytick_11">
     <g id="line2d_12">
      <g>
       <use xlink:href="#me3e4e618c9" x="52.04" y="272.394545" style="stroke: #000000; stroke-width: 0.8"/>
      </g>
     </g>
     <g id="text_15">
      <!-- 0.8 -->
      <g transform="translate(29.136875 276.193764) scale(0.1 -0.1)">
       <use xlink:href="#DejaVuSans-30"/>
       <use xlink:href="#DejaVuSans-2e" x="63.623047"/>
       <use xlink:href="#DejaVuSans-38" x="95.410156"/>
      </g>
     </g>
    </g>
    <g id="ytick_12">
     <g id="line2d_13">
      <g>
       <use xlink:href="#me3e4e618c9" x="52.04" y="241.710909" style="stroke: #000000; stroke-width: 0.8"/>
      </g>
     </g>
     <g id="text_16">
      <!-- 1.0 -->
      <g transform="translate(29.136875 245.510128) scale(0.1 -0.1)">
       <use xlink:href="#DejaVuSans-31"/>
       <use xlink:href="#DejaVuSans-2e" x="63.623047"/>
       <use xlink:href="#DejaVuSans-30" x="95.410156"/>
      </g>
     </g>
    </g>
    <g id="text_17">
     <!-- Spectrum -->
     <g transform="translate(22.017344 354.763359) rotate(-90) scale(0.15 -0.15)">
      <use xlink:href="#DejaVuSans-53"/>
      <use xlink:href="#DejaVuSans-70" x="63.476562"/>
      <use xlink:href="#DejaVuSans-65" x="126.953125"/>
      <use xlink:href="#DejaVuSans-63" x="188.476562"/>
      <use xlink:href="#DejaVuSans-74" x="243.457031"/>
      <use xlink:href="#DejaVuSans-72" x="282.666016"/>
      <use xlink:href="#DejaVuSans-75" x="323.779297"/>
      <use xlink:href="#DejaVuSans-6d" x="387.158203"/>
     </g>
    </g>
   </g>
   <g id="line2d_14">
    <path d="M 81.910909 395.129091 
L 89.087103 349.513288 
L 92.675201 328.005106 
L 95.665282 311.227928 
L 98.655363 295.776568 
L 101.047427 284.534953 
L 103.439492 274.412348 
L 105.233541 267.616814 
L 107.027589 261.547282 
L 108.821638 256.238307 
L 110.615687 251.720117 
L 111.811719 249.16021 
L 113.007751 246.96977 
L 114.203784 245.154344 
L 115.399816 243.718525 
L 116.595849 242.665948 
L 117.791881 241.999278 
L 118.987913 241.720202 
L 120.183946 241.829426 
L 121.379978 242.326674 
L 122.576011 243.210686 
L 123.772043 244.479227 
L 124.968075 246.129084 
L 126.164108 248.156082 
L 127.36014 250.55509 
L 129.154189 254.837584 
L 130.948237 259.918838 
L 132.742286 265.769922 
L 134.536335 272.357522 
L 136.928399 282.221276 
L 139.320464 293.227452 
L 141.712529 305.264686 
L 144.70261 321.574713 
L 148.290707 342.656982 
L 152.47682 368.725901 
L 156.064918 391.752144 
L 156.662934 394.646632 
L 163.839128 349.052874 
L 167.427225 327.571607 
L 170.417306 310.824423 
L 173.407387 295.409432 
L 175.799452 284.20112 
L 178.191517 274.115197 
L 179.985566 267.349169 
L 181.779614 261.310665 
L 183.573663 256.034067 
L 185.367711 251.549417 
L 186.563744 249.012421 
L 187.759776 246.845267 
L 188.955809 245.053441 
L 190.151841 243.641478 
L 191.347873 242.612953 
L 192.543906 241.970468 
L 193.739938 241.71565 
L 194.935971 241.849144 
L 196.132003 242.370612 
L 197.328035 243.278733 
L 198.524068 244.57121 
L 199.7201 246.244771 
L 200.916132 248.295179 
L 202.112165 250.717246 
L 203.906213 255.03354 
L 205.700262 260.147479 
L 207.494311 266.029947 
L 209.288359 272.647449 
L 211.680424 282.548478 
L 214.072489 293.588617 
L 216.464554 305.65616 
L 219.454635 321.998472 
L 223.042732 343.110605 
L 227.228845 369.201292 
L 230.816942 392.234503 
L 231.414959 394.164177 
L 237.993137 352.285087 
L 241.581234 330.619888 
L 244.571315 313.666246 
L 247.561396 297.99989 
L 249.953461 286.5608 
L 252.345526 276.220223 
L 254.139574 269.249078 
L 255.933623 262.99464 
L 257.727671 257.49252 
L 259.52172 252.774043 
L 261.315768 248.866077 
L 262.511801 246.72223 
L 263.707833 244.954023 
L 264.903866 243.56593 
L 266.099898 242.561466 
L 267.29593 241.943173 
L 268.491963 241.712616 
L 269.687995 241.870378 
L 270.884028 242.41606 
L 272.08006 243.348282 
L 273.276092 244.664682 
L 274.472125 246.36193 
L 275.668157 248.435729 
L 276.86419 250.88083 
L 278.658238 255.230883 
L 280.452287 260.377456 
L 282.246335 266.291248 
L 284.040384 272.938588 
L 286.432449 282.876793 
L 288.824514 293.950786 
L 291.216578 306.048519 
L 294.206659 322.422953 
L 297.794757 343.564742 
L 301.98087 369.67694 
L 305.568967 392.716891 
L 306.166983 393.681733 
L 312.745162 351.822035 
L 316.333259 330.182471 
L 319.32334 313.257822 
L 322.313421 297.626914 
L 324.705485 286.220455 
L 327.09755 275.915953 
L 328.891599 268.973906 
L 330.685647 262.750133 
L 332.479696 257.280069 
L 334.273745 252.594859 
L 336.067793 248.721179 
L 337.263826 246.600661 
L 338.459858 244.856089 
L 339.65589 243.491881 
L 340.851923 242.511488 
L 342.047955 241.917393 
L 343.243988 241.711099 
L 344.44002 241.893128 
L 345.636052 242.463019 
L 346.832085 243.419331 
L 348.028117 244.759642 
L 349.22415 246.48056 
L 350.420182 248.577729 
L 351.616214 251.045841 
L 353.410263 255.429608 
L 355.204312 260.608765 
L 356.99836 266.553823 
L 358.792409 273.230935 
L 361.184474 283.206218 
L 363.576538 294.313956 
L 365.968603 306.441759 
L 368.958684 322.848154 
L 372.546781 344.019389 
L 376.732895 370.152839 
L 380.320992 393.199302 
L 380.919008 393.199302 
L 387.497186 351.35941 
L 391.085283 329.745696 
L 394.075364 312.850208 
L 397.065445 297.254902 
L 399.45751 285.881187 
L 401.849575 275.612862 
L 403.643624 268.699982 
L 405.437672 262.506935 
L 407.231721 257.068982 
L 409.025769 252.417085 
L 410.819818 248.577729 
L 412.01585 246.48056 
L 413.211883 244.759642 
L 414.407915 243.419331 
L 415.603948 242.463019 
L 416.79998 241.893128 
L 417.996012 241.711099 
L 419.192045 241.917393 
L 420.388077 242.511488 
L 421.58411 243.491881 
L 422.780142 244.856089 
L 423.976174 246.600661 
L 425.172207 248.721179 
L 426.368239 251.212277 
L 428.162288 255.629716 
L 429.956336 260.841405 
L 431.750385 266.81767 
L 433.544434 273.524487 
L 435.936498 283.536749 
L 438.328563 294.678122 
L 440.720628 306.835876 
L 443.710709 323.274069 
L 447.298806 344.474542 
L 451.484919 370.628985 
L 455.073017 393.681733 
L 455.671033 392.716891 
L 462.249211 350.897219 
L 465.837308 329.309568 
L 468.827389 312.443407 
L 471.81747 296.883857 
L 474.209535 285.543 
L 476.6016 275.310953 
L 478.395648 268.427308 
L 480.189697 262.265048 
L 481.983746 256.85926 
L 483.777794 252.240722 
L 485.571843 248.435729 
L 486.767875 246.36193 
L 487.963908 244.664682 
L 489.15994 243.348282 
L 490.355972 242.41606 
L 491.552005 241.870378 
L 492.748037 241.712616 
L 493.94407 241.943173 
L 495.140102 242.561466 
L 496.336134 243.56593 
L 497.532167 244.954023 
L 498.728199 246.72223 
L 499.924232 248.866077 
L 501.120264 251.380136 
L 502.914312 255.831203 
L 504.708361 261.075372 
L 506.50241 267.082786 
L 508.296458 273.819242 
L 510.688523 283.868385 
L 513.080588 295.043282 
L 515.472653 307.230866 
L 518.462734 323.700695 
L 522.050831 344.930195 
L 526.236944 371.105374 
L 529.825041 394.164177 
L 530.423058 392.234503 
L 537.001236 350.435465 
L 540.589333 328.874091 
L 543.579414 312.037424 
L 546.569495 296.513785 
L 548.96156 285.205896 
L 551.353625 275.010229 
L 553.147673 268.155887 
L 554.941722 262.024475 
L 556.73577 256.650905 
L 558.529819 252.065771 
L 559.725851 249.460117 
L 560.921884 247.223171 
L 562.117916 245.360597 
L 563.313948 243.877109 
L 564.509981 242.776461 
L 565.706013 242.061441 
L 566.902046 241.733856 
L 568.098078 241.794538 
L 569.29411 242.243331 
L 570.490143 243.079101 
L 571.686175 244.299731 
L 572.882208 245.902132 
L 574.07824 247.882248 
L 575.274272 250.235068 
L 576.470305 252.954635 
L 578.264353 257.706331 
L 580.058402 263.240454 
L 581.852451 269.525494 
L 583.646499 276.525669 
L 586.038564 286.902219 
L 588.430629 298.373827 
L 590.822694 310.824423 
L 593.812775 327.571607 
L 597.400872 349.052874 
L 602.185001 379.236476 
L 604.577066 394.646632 
L 605.175082 391.752144 
L 611.753261 349.974153 
L 615.341358 328.439269 
L 618.331439 311.632263 
L 621.32152 296.144687 
L 623.713584 284.869879 
L 626.105649 274.710693 
L 627.899698 267.885721 
L 629.693746 261.785219 
L 631.487795 256.44392 
L 633.281844 251.892236 
L 634.477876 249.309442 
L 635.673908 247.095739 
L 636.869941 245.256729 
L 638.065973 243.797069 
L 639.262006 242.720451 
L 640.458038 242.029602 
L 641.65407 241.726271 
L 642.850103 241.811224 
L 644.046135 242.284247 
L 645.242168 243.144142 
L 646.4382 244.388733 
L 647.634232 246.014871 
L 648.830265 248.018438 
L 650.026297 250.394363 
L 651.22233 253.136633 
L 653.016378 257.921502 
L 654.810427 263.487572 
L 656.604475 269.803153 
L 658.398524 276.832287 
L 660.790589 287.244708 
L 663.182654 298.748721 
L 666.172735 314.485506 
L 669.162816 331.496632 
L 672.750913 353.212459 
L 678.133059 387.412989 
L 679.329091 395.129091 
L 679.329091 395.129091 
" clip-path="url(#p3a6d6112e9)" style="fill: none; stroke: #ff0000; stroke-width: 1.5; stroke-linecap: square"/>
   </g>
   <g id="line2d_15">
    <path d="M 81.910909 241.710909 
L 83.106941 241.905071 
L 84.302974 242.487065 
L 85.499006 243.455418 
L 86.695039 244.80768 
L 87.891071 246.540427 
L 89.087103 248.649273 
L 90.283136 251.128881 
L 92.077184 255.529489 
L 93.871233 260.724919 
L 95.665282 266.685588 
L 97.45933 273.37756 
L 99.851395 283.371345 
L 102.24346 294.495915 
L 104.635525 306.638708 
L 107.625606 323.061022 
L 111.213703 344.246903 
L 115.399816 370.390882 
L 118.987913 393.440515 
L 119.58593 392.958094 
L 126.164108 351.12826 
L 129.752205 329.527551 
L 132.742286 312.646705 
L 135.732367 297.069258 
L 138.124432 285.711958 
L 140.516496 275.46176 
L 142.310545 268.563488 
L 144.104594 262.385827 
L 145.898642 256.96395 
L 147.692691 252.328727 
L 149.486739 248.506548 
L 150.682772 246.421061 
L 151.878804 244.711976 
L 153.074837 243.383619 
L 154.270869 242.439351 
L 155.466901 241.881564 
L 156.662934 241.711668 
L 157.858966 241.930094 
L 159.054999 242.536289 
L 160.251031 243.528718 
L 161.447063 244.90487 
L 162.643096 246.661262 
L 163.839128 248.793447 
L 165.035161 251.296029 
L 166.829209 255.730287 
L 168.623258 260.958222 
L 170.417306 266.95007 
L 172.211355 273.671714 
L 174.60342 283.702429 
L 176.995485 294.860578 
L 179.387549 307.033262 
L 182.37763 323.487293 
L 185.965728 344.702306 
L 190.151841 370.86715 
L 193.739938 393.922954 
L 194.337954 392.475694 
L 200.916132 350.666287 
L 204.50423 329.091748 
L 207.494311 312.240313 
L 210.484392 296.698699 
L 212.876456 285.374312 
L 215.268521 275.160443 
L 217.06257 268.29144 
L 218.856618 262.144597 
L 220.650667 256.754912 
L 222.444716 252.15307 
L 224.238764 248.365273 
L 225.434797 246.303166 
L 226.630829 244.61776 
L 227.826861 243.31332 
L 229.022894 242.393147 
L 230.218926 241.859572 
L 231.414959 241.713944 
L 232.610991 241.956631 
L 233.807023 242.587021 
L 235.003056 243.603517 
L 236.199088 245.003546 
L 237.395121 246.783565 
L 238.591153 248.939068 
L 239.787185 251.464599 
L 241.581234 255.932463 
L 243.375283 261.192853 
L 245.169331 267.215819 
L 246.96338 273.96707 
L 249.355445 284.034615 
L 251.747509 295.226234 
L 254.139574 307.428687 
L 257.129655 323.914273 
L 260.717752 345.158208 
L 265.501882 375.163793 
L 268.491963 394.405404 
L 269.089979 391.99332 
L 275.668157 350.204754 
L 279.256254 328.656598 
L 282.246335 311.834741 
L 285.236416 296.329114 
L 287.628481 285.037751 
L 290.020546 274.860313 
L 291.814595 268.020647 
L 293.608643 261.904683 
L 295.402692 256.547242 
L 297.19674 251.978827 
L 298.392773 249.384599 
L 299.588805 247.159272 
L 300.784838 245.308478 
L 301.98087 243.836902 
L 303.176902 242.748268 
L 304.372935 242.045332 
L 305.568967 241.729874 
L 306.765 241.802691 
L 307.961032 242.2636 
L 309.157064 243.111433 
L 310.353097 244.344046 
L 311.549129 245.958317 
L 312.745162 247.950161 
L 313.941194 250.314536 
L 315.137226 253.045459 
L 316.931275 257.813747 
L 318.725324 263.36385 
L 320.519372 269.664169 
L 322.313421 276.678831 
L 324.705485 287.07333 
L 327.09755 298.561155 
L 330.087631 314.280391 
L 333.077712 331.277209 
L 336.665809 352.980459 
L 342.047955 387.172074 
L 343.243988 394.887861 
L 344.44002 387.653923 
L 350.420182 349.743665 
L 354.008279 328.222105 
L 356.99836 311.429992 
L 359.988441 295.960505 
L 362.380506 284.70228 
L 364.772571 274.561372 
L 366.566619 267.75111 
L 368.360668 261.666085 
L 370.154717 256.340942 
L 371.948765 251.806 
L 373.144798 249.234645 
L 374.34083 247.032571 
L 375.536862 245.205351 
L 376.732895 243.75761 
L 377.928927 242.693011 
L 379.12496 242.014251 
L 380.320992 241.723047 
L 381.517024 241.820135 
L 382.713057 242.305271 
L 383.909089 243.177226 
L 385.105121 244.433794 
L 386.301154 246.071793 
L 387.497186 248.087078 
L 388.693219 250.474548 
L 389.889251 253.228159 
L 391.6833 258.029596 
L 393.477348 263.611619 
L 395.271397 269.942448 
L 397.065445 276.986035 
L 399.45751 287.416352 
L 401.849575 298.936526 
L 404.839656 314.690821 
L 407.829737 331.716213 
L 411.417834 353.444562 
L 416.79998 387.653923 
L 417.996012 394.887861 
L 425.172207 349.283024 
L 428.760304 327.788273 
L 431.750385 311.026071 
L 434.740466 295.592877 
L 437.132531 284.3679 
L 439.524596 274.263623 
L 441.318644 267.482834 
L 443.112693 261.428808 
L 444.906741 256.136015 
L 446.70079 251.63459 
L 447.896822 249.086134 
L 449.092855 246.907335 
L 450.288887 245.103707 
L 451.484919 243.679814 
L 452.680952 242.639262 
L 453.876984 241.984684 
L 455.073017 241.717736 
L 456.269049 241.839095 
L 457.465081 242.348454 
L 458.661114 243.244522 
L 459.857146 244.525032 
L 461.053179 246.186743 
L 462.249211 248.225449 
L 463.445243 250.635989 
L 465.239292 254.935389 
L 467.033341 260.032992 
L 468.827389 265.899774 
L 470.621438 272.502334 
L 473.013503 282.384738 
L 475.405567 293.407909 
L 477.797632 305.460312 
L 480.787713 321.786502 
L 484.37581 342.883729 
L 488.561924 368.963564 
L 492.150021 391.99332 
L 492.748037 394.405404 
L 499.924232 348.822837 
L 503.512329 327.355108 
L 506.50241 310.622982 
L 509.492491 295.226234 
L 511.884555 284.034615 
L 514.27662 273.96707 
L 516.070669 267.215819 
L 517.864717 261.192853 
L 519.658766 255.932463 
L 521.452815 251.464599 
L 522.648847 248.939068 
L 523.844879 246.783565 
L 525.040912 245.003546 
L 526.236944 243.603517 
L 527.432977 242.587021 
L 528.629009 241.956631 
L 529.825041 241.713944 
L 531.021074 241.859572 
L 532.217106 242.393147 
L 533.413139 243.31332 
L 534.609171 244.61776 
L 535.805203 246.303166 
L 537.001236 248.365273 
L 538.197268 250.79886 
L 539.991317 255.132038 
L 541.785365 260.262301 
L 543.579414 266.160438 
L 545.373463 272.792867 
L 547.765527 282.712496 
L 550.157592 293.769576 
L 552.549657 305.852229 
L 555.539738 322.210622 
L 559.127835 343.33761 
L 563.313948 369.439084 
L 566.902046 392.475694 
L 567.500062 393.922954 
L 574.07824 352.053508 
L 577.666337 330.4011 
L 580.656418 313.461933 
L 583.646499 297.813282 
L 586.038564 286.390493 
L 588.430629 276.067941 
L 590.224677 269.111336 
L 592.018726 262.872223 
L 593.812775 257.386124 
L 595.606823 252.684275 
L 597.400872 248.793447 
L 598.596904 246.661262 
L 599.792937 244.90487 
L 600.988969 243.528718 
L 602.185001 242.536289 
L 603.381034 241.930094 
L 604.577066 241.711668 
L 605.773099 241.881564 
L 606.969131 242.439351 
L 608.165163 243.383619 
L 609.361196 244.711976 
L 610.557228 246.421061 
L 611.753261 248.506548 
L 612.949293 250.963158 
L 614.743342 255.330073 
L 616.53739 260.492944 
L 618.331439 266.422377 
L 620.125487 273.08461 
L 622.517552 283.041367 
L 624.909617 294.132246 
L 627.301682 306.245029 
L 630.291763 322.635464 
L 633.87986 343.792002 
L 638.065973 369.914858 
L 641.65407 392.958094 
L 642.252087 393.440515 
L 648.830265 351.590669 
L 652.418362 329.964003 
L 655.408443 313.053913 
L 658.398524 297.440787 
L 660.790589 286.050686 
L 663.182654 275.76426 
L 664.976702 268.836788 
L 666.770751 262.62837 
L 668.564799 257.174355 
L 670.358848 252.505796 
L 672.152897 248.649273 
L 673.348929 246.540427 
L 674.544961 244.80768 
L 675.740994 243.455418 
L 676.937026 242.487065 
L 678.133059 241.905071 
L 679.329091 241.710909 
L 679.329091 241.710909 
" clip-path="url(#p3a6d6112e9)" style="fill: none; stroke: #0000ff; stroke-width: 1.5; stroke-linecap: square"/>
   </g>
   <g id="LineCollection_2">
    <path d="M 119.249545 395.129091 
L 119.249545 241.710909 
" clip-path="url(#p3a6d6112e9)" style="fill: none; stroke-dasharray: 1.5,2.475; stroke-dashoffset: 0; stroke: #000000; stroke-width: 1.5"/>
    <path d="M 156.588182 395.129091 
L 156.588182 241.710909 
" clip-path="url(#p3a6d6112e9)" style="fill: none; stroke-dasharray: 1.5,2.475; stroke-dashoffset: 0; stroke: #000000; stroke-width: 1.5"/>
    <path d="M 193.926818 395.129091 
L 193.926818 241.710909 
" clip-path="url(#p3a6d6112e9)" style="fill: none; stroke-dasharray: 1.5,2.475; stroke-dashoffset: 0; stroke: #000000; stroke-width: 1.5"/>
    <path d="M 231.265455 395.129091 
L 231.265455 241.710909 
" clip-path="url(#p3a6d6112e9)" style="fill: none; stroke-dasharray: 1.5,2.475; stroke-dashoffset: 0; stroke: #000000; stroke-width: 1.5"/>
    <path d="M 268.604091 395.129091 
L 268.604091 241.710909 
" clip-path="url(#p3a6d6112e9)" style="fill: none; stroke-dasharray: 1.5,2.475; stroke-dashoffset: 0; stroke: #000000; stroke-width: 1.5"/>
    <path d="M 305.942727 395.129091 
L 305.942727 241.710909 
" clip-path="url(#p3a6d6112e9)" style="fill: none; stroke-dasharray: 1.5,2.475; stroke-dashoffset: 0; stroke: #000000; stroke-width: 1.5"/>
    <path d="M 343.281364 395.129091 
L 343.281364 241.710909 
" clip-path="url(#p3a6d6112e9)" style="fill: none; stroke-dasharray: 1.5,2.475; stroke-dashoffset: 0; stroke: #000000; stroke-width: 1.5"/>
    <path d="M 380.62 395.129091 
L 380.62 241.710909 
" clip-path="url(#p3a6d6112e9)" style="fill: none; stroke-dasharray: 1.5,2.475; stroke-dashoffset: 0; stroke: #000000; stroke-width: 1.5"/>
    <path d="M 417.958636 395.129091 
L 417.958636 241.710909 
" clip-path="url(#p3a6d6112e9)" style="fill: none; stroke-dasharray: 1.5,2.475; stroke-dashoffset: 0; stroke: #000000; stroke-width: 1.5"/>
    <path d="M 455.297273 395.129091 
L 455.297273 241.710909 
" clip-path="url(#p3a6d6112e9)" style="fill: none; stroke-dasharray: 1.5,2.475; stroke-dashoffset: 0; stroke: #000000; stroke-width: 1.5"/>
    <path d="M 492.635909 395.129091 
L 492.635909 241.710909 
" clip-path="url(#p3a6d6112e9)" style="fill: none; stroke-dasharray: 1.5,2.475; stroke-dashoffset: 0; stroke: #000000; stroke-width: 1.5"/>
    <path d="M 529.974545 395.129091 
L 529.974545 241.710909 
" clip-path="url(#p3a6d6112e9)" style="fill: none; stroke-dasharray: 1.5,2.475; stroke-dashoffset: 0; stroke: #000000; stroke-width: 1.5"/>
    <path d="M 567.313182 395.129091 
L 567.313182 241.710909 
" clip-path="url(#p3a6d6112e9)" style="fill: none; stroke-dasharray: 1.5,2.475; stroke-dashoffset: 0; stroke: #000000; stroke-width: 1.5"/>
    <path d="M 604.651818 395.129091 
L 604.651818 241.710909 
" clip-path="url(#p3a6d6112e9)" style="fill: none; stroke-dasharray: 1.5,2.475; stroke-dashoffset: 0; stroke: #000000; stroke-width: 1.5"/>
    <path d="M 641.990455 395.129091 
L 641.990455 241.710909 
" clip-path="url(#p3a6d6112e9)" style="fill: none; stroke-dasharray: 1.5,2.475; stroke-dashoffset: 0; stroke: #000000; stroke-width: 1.5"/>
   </g>
   <g id="patch_11">
    <path d="M 52.04 402.8 
L 52.04 234.04 
" style="fill: none; stroke: #000000; stroke-width: 0.8; stroke-linejoin: miter; stroke-linecap: square"/>
   </g>
   <g id="patch_12">
    <path d="M 709.2 402.8 
L 709.2 234.04 
" style="fill: none; stroke: #000000; stroke-width: 0.8; stroke-linejoin: miter; stroke-linecap: square"/>
   </g>
   <g id="patch_13">
    <path d="M 52.04 402.8 
L 709.2 402.8 
" style="fill: none; stroke: #000000; stroke-width: 0.8; stroke-linejoin: miter; stroke-linecap: square"/>
   </g>
   <g id="patch_14">
    <path d="M 52.04 234.04 
L 709.2 234.04 
" style="fill: none; stroke: #000000; stroke-width: 0.8; stroke-linejoin: miter; stroke-linecap: square"/>
   </g>
   <g id="text_18">
    <!-- OFDM -->
    <g transform="translate(350.668438 228.04) scale(0.2 -0.2)">
     <defs>
      <path id="DejaVuSans-4f" d="M 2522 4238 
Q 1834 4238 1429 3725 
Q 1025 3213 1025 2328 
Q 1025 1447 1429 934 
Q 1834 422 2522 422 
Q 3209 422 3611 934 
Q 4013 1447 4013 2328 
Q 4013 3213 3611 3725 
Q 3209 4238 2522 4238 
z
M 2522 4750 
Q 3503 4750 4090 4092 
Q 4678 3434 4678 2328 
Q 4678 1225 4090 567 
Q 3503 -91 2522 -91 
Q 1538 -91 948 565 
Q 359 1222 359 2328 
Q 359 3434 948 4092 
Q 1538 4750 2522 4750 
z
" transform="scale(0.015625)"/>
     </defs>
     <use xlink:href="#DejaVuSans-4f"/>
     <use xlink:href="#DejaVuSans-46" x="78.710938"/>
     <use xlink:href="#DejaVuSans-44" x="136.230469"/>
     <use xlink:href="#DejaVuSans-4d" x="213.232422"/>
    </g>
   </g>
   <g id="legend_2">
    <g id="patch_15">
     <path d="M 698.2 247.04 
L 702.2 247.04 
Q 704.2 247.04 704.2 245.04 
L 704.2 241.04 
Q 704.2 239.04 702.2 239.04 
L 698.2 239.04 
Q 696.2 239.04 696.2 241.04 
L 696.2 245.04 
Q 696.2 247.04 698.2 247.04 
z
" style="fill: #ffffff; opacity: 0.8; stroke: #cccccc; stroke-linejoin: miter"/>
    </g>
   </g>
  </g>
 </g>
 <defs>
  <clipPath id="p48dcbc9b55">
   <rect x="52.04" y="32.64" width="657.16" height="168.76"/>
  </clipPath>
  <clipPath id="p3a6d6112e9">
   <rect x="52.04" y="234.04" width="657.16" height="168.76"/>
  </clipPath>
 </defs>
</svg>
