<?xml version="1.0" encoding="utf-8" standalone="no"?>
<!DOCTYPE svg PUBLIC "-//W3C//DTD SVG 1.1//EN"
  "http://www.w3.org/Graphics/SVG/1.1/DTD/svg11.dtd">
<svg xmlns:xlink="http://www.w3.org/1999/xlink" width="460.8pt" height="344.88pt" viewBox="0 0 460.8 344.88" xmlns="http://www.w3.org/2000/svg" version="1.1">
 <metadata>
  <rdf:RDF xmlns:dc="http://purl.org/dc/elements/1.1/" xmlns:cc="http://creativecommons.org/ns#" xmlns:rdf="http://www.w3.org/1999/02/22-rdf-syntax-ns#">
   <cc:Work>
    <dc:type rdf:resource="http://purl.org/dc/dcmitype/StillImage"/>
    <dc:date>2024-10-08T15:55:33.255210</dc:date>
    <dc:format>image/svg+xml</dc:format>
    <dc:creator>
     <cc:Agent>
      <dc:title>Matplotlib v3.9.1, https://matplotlib.org/</dc:title>
     </cc:Agent>
    </dc:creator>
   </cc:Work>
  </rdf:RDF>
 </metadata>
 <defs>
  <style type="text/css">*{stroke-linejoin: round; stroke-linecap: butt}</style>
 </defs>
 <g id="figure_1">
  <g id="patch_1">
   <path d="M 0 344.88 
L 460.8 344.88 
L 460.8 0 
L 0 0 
z
" style="fill: #ffffff"/>
  </g>
  <g id="axes_1">
   <g id="patch_2">
    <path d="M 57.6 306.9432 
L 414.72 306.9432 
L 414.72 41.3856 
L 57.6 41.3856 
z
" style="fill: #ffffff"/>
   </g>
   <g id="matplotlib.axis_1">
    <g id="xtick_1">
     <g id="line2d_1">
      <defs>
       <path id="m82760b5cd1" d="M 0 0 
L 0 3.5 
" style="stroke: #000000; stroke-width: 0.8"/>
      </defs>
      <g>
       <use xlink:href="#m82760b5cd1" x="73.832727" y="306.9432" style="stroke: #000000; stroke-width: 0.8"/>
      </g>
     </g>
     <g id="text_1">
      <!-- 0 -->
      <g transform="translate(70.683509 321.433825) scale(0.1 -0.1)">
       <defs>
        <path id="IPAexGothic-30" d="M 2038 4725 
Q 2881 4725 3334 3944 
Q 3694 3325 3694 2344 
Q 3694 1372 3334 741 
Q 2888 -31 2016 -31 
Q 1147 -31 700 741 
Q 341 1372 341 2350 
Q 341 3713 1000 4334 
Q 1419 4725 2038 4725 
z
M 2016 4266 
Q 1516 4266 1228 3759 
Q 934 3247 934 2344 
Q 934 1456 1222 947 
Q 1513 447 2016 447 
Q 2619 447 2909 1153 
Q 3100 1622 3100 2375 
Q 3100 3256 2806 3759 
Q 2509 4266 2016 4266 
z
" transform="scale(0.015625)"/>
       </defs>
       <use xlink:href="#IPAexGothic-30"/>
      </g>
     </g>
    </g>
    <g id="xtick_2">
     <g id="line2d_2">
      <g>
       <use xlink:href="#m82760b5cd1" x="137.490481" y="306.9432" style="stroke: #000000; stroke-width: 0.8"/>
      </g>
     </g>
     <g id="text_2">
      <!-- 50 -->
      <g transform="translate(131.192044 321.433825) scale(0.1 -0.1)">
       <defs>
        <path id="IPAexGothic-35" d="M 1178 2603 
Q 1634 2963 2172 2963 
Q 2816 2963 3241 2528 
Q 3638 2113 3638 1497 
Q 3638 938 3297 513 
Q 2869 -31 2031 -31 
Q 959 -31 469 784 
L 938 1028 
Q 1309 434 2013 434 
Q 2466 434 2769 716 
Q 3081 1013 3081 1503 
Q 3081 1966 2806 2241 
Q 2519 2528 2056 2528 
Q 1406 2528 1072 2028 
L 591 2091 
L 884 4634 
L 3406 4634 
L 3406 4153 
L 1341 4153 
L 1134 2603 
L 1178 2603 
z
" transform="scale(0.015625)"/>
       </defs>
       <use xlink:href="#IPAexGothic-35"/>
       <use xlink:href="#IPAexGothic-30" x="62.988281"/>
      </g>
     </g>
    </g>
    <g id="xtick_3">
     <g id="line2d_3">
      <g>
       <use xlink:href="#m82760b5cd1" x="201.148235" y="306.9432" style="stroke: #000000; stroke-width: 0.8"/>
      </g>
     </g>
     <g id="text_3">
      <!-- 100 -->
      <g transform="translate(191.700579 321.433825) scale(0.1 -0.1)">
       <defs>
        <path id="IPAexGothic-31" d="M 2463 63 
L 1900 63 
L 1900 4103 
Q 1372 3922 788 3797 
L 684 4231 
Q 1519 4441 2106 4731 
L 2463 4731 
L 2463 63 
z
" transform="scale(0.015625)"/>
       </defs>
       <use xlink:href="#IPAexGothic-31"/>
       <use xlink:href="#IPAexGothic-30" x="62.988281"/>
       <use xlink:href="#IPAexGothic-30" x="125.976562"/>
      </g>
     </g>
    </g>
    <g id="xtick_4">
     <g id="line2d_4">
      <g>
       <use xlink:href="#m82760b5cd1" x="264.805989" y="306.9432" style="stroke: #000000; stroke-width: 0.8"/>
      </g>
     </g>
     <g id="text_4">
      <!-- 150 -->
      <g transform="translate(255.358333 321.433825) scale(0.1 -0.1)">
       <use xlink:href="#IPAexGothic-31"/>
       <use xlink:href="#IPAexGothic-35" x="62.988281"/>
       <use xlink:href="#IPAexGothic-30" x="125.976562"/>
      </g>
     </g>
    </g>
    <g id="xtick_5">
     <g id="line2d_5">
      <g>
       <use xlink:href="#m82760b5cd1" x="328.463743" y="306.9432" style="stroke: #000000; stroke-width: 0.8"/>
      </g>
     </g>
     <g id="text_5">
      <!-- 200 -->
      <g transform="translate(319.016087 321.433825) scale(0.1 -0.1)">
       <defs>
        <path id="IPAexGothic-32" d="M 3659 63 
L 447 63 
L 447 594 
Q 825 1475 1894 2203 
L 2072 2322 
Q 2619 2697 2791 2906 
Q 2988 3153 2988 3444 
Q 2988 3772 2756 4003 
Q 2500 4259 2084 4259 
Q 1250 4259 991 3328 
L 497 3506 
Q 853 4725 2116 4725 
Q 2806 4725 3216 4316 
Q 3575 3947 3575 3425 
Q 3575 3038 3344 2722 
Q 3131 2416 2366 1938 
L 2231 1856 
Q 1256 1253 978 569 
L 3659 569 
L 3659 63 
z
" transform="scale(0.015625)"/>
       </defs>
       <use xlink:href="#IPAexGothic-32"/>
       <use xlink:href="#IPAexGothic-30" x="62.988281"/>
       <use xlink:href="#IPAexGothic-30" x="125.976562"/>
      </g>
     </g>
    </g>
    <g id="xtick_6">
     <g id="line2d_6">
      <g>
       <use xlink:href="#m82760b5cd1" x="392.121497" y="306.9432" style="stroke: #000000; stroke-width: 0.8"/>
      </g>
     </g>
     <g id="text_6">
      <!-- 250 -->
      <g transform="translate(382.673841 321.433825) scale(0.1 -0.1)">
       <use xlink:href="#IPAexGothic-32"/>
       <use xlink:href="#IPAexGothic-35" x="62.988281"/>
       <use xlink:href="#IPAexGothic-30" x="125.976562"/>
      </g>
     </g>
    </g>
    <g id="text_7">
     <!-- 時間[s] -->
     <g transform="translate(220.852187 335.283825) scale(0.1 -0.1)">
      <defs>
       <path id="IPAexGothic-6642" d="M 2328 4728 
L 2328 563 
L 934 563 
L 934 56 
L 519 56 
L 519 4728 
L 2328 4728 
z
M 934 4331 
L 934 2881 
L 1906 2881 
L 1906 4331 
L 934 4331 
z
M 934 2497 
L 934 953 
L 1906 953 
L 1906 2497 
L 934 2497 
z
M 3938 4372 
L 3938 5313 
L 4378 5313 
L 4378 4372 
L 5772 4372 
L 5772 3981 
L 4378 3981 
L 4378 3194 
L 6072 3194 
L 6072 2803 
L 5203 2803 
L 5203 2047 
L 5959 2047 
L 5959 1650 
L 5216 1650 
L 5216 31 
Q 5216 -447 4691 -447 
Q 4394 -447 3888 -391 
L 3784 78 
Q 4272 0 4591 0 
Q 4775 0 4775 172 
L 4775 1650 
L 2581 1650 
L 2581 2047 
L 4763 2047 
L 4763 2803 
L 2538 2803 
L 2538 3194 
L 3938 3194 
L 3938 3981 
L 2716 3981 
L 2716 4372 
L 3938 4372 
z
M 3669 384 
Q 3331 950 2956 1325 
L 3291 1575 
Q 3719 1147 4025 659 
L 3669 384 
z
" transform="scale(0.015625)"/>
       <path id="IPAexGothic-9593" d="M 4450 2566 
L 4450 353 
L 2375 353 
L 2375 -25 
L 1953 -25 
L 1953 2566 
L 4450 2566 
z
M 4028 2200 
L 2375 2200 
L 2375 1653 
L 4028 1653 
L 4028 2200 
z
M 4028 1300 
L 2375 1300 
L 2375 719 
L 4028 719 
L 4028 1300 
z
M 2913 5019 
L 2913 3059 
L 1056 3059 
L 1056 -447 
L 609 -447 
L 609 5019 
L 2913 5019 
z
M 1056 4659 
L 1056 4206 
L 2497 4206 
L 2497 4659 
L 1056 4659 
z
M 1056 3881 
L 1056 3413 
L 2497 3413 
L 2497 3881 
L 1056 3881 
z
M 5788 5019 
L 5788 91 
Q 5788 -225 5641 -331 
Q 5525 -409 5231 -409 
Q 4803 -409 4481 -366 
L 4419 97 
Q 4853 38 5128 38 
Q 5341 38 5341 244 
L 5341 3059 
L 3438 3059 
L 3438 5019 
L 5788 5019 
z
M 3853 4659 
L 3853 4206 
L 5341 4206 
L 5341 4659 
L 3853 4659 
z
M 3853 3881 
L 3853 3413 
L 5341 3413 
L 5341 3881 
L 3853 3881 
z
" transform="scale(0.015625)"/>
       <path id="IPAexGothic-5b" d="M 1706 -991 
L 581 -991 
L 581 4750 
L 1706 4750 
L 1706 4438 
L 1028 4438 
L 1028 -678 
L 1706 -678 
L 1706 -991 
z
" transform="scale(0.015625)"/>
       <path id="IPAexGothic-73" d="M 2234 2547 
Q 1938 2931 1484 2931 
Q 891 2931 891 2475 
Q 891 2153 1531 1944 
L 1741 1875 
Q 2650 1578 2650 894 
Q 2650 434 2272 172 
Q 1972 -31 1497 -31 
Q 766 -31 256 503 
L 603 819 
Q 997 397 1516 397 
Q 2131 397 2131 875 
Q 2131 1238 1453 1478 
L 1234 1553 
Q 378 1853 378 2431 
Q 378 2797 628 3047 
Q 928 3347 1453 3347 
Q 2156 3347 2606 2859 
L 2234 2547 
z
" transform="scale(0.015625)"/>
       <path id="IPAexGothic-5d" d="M 1322 -991 
L 197 -991 
L 197 -678 
L 875 -678 
L 875 4438 
L 197 4438 
L 197 4750 
L 1322 4750 
L 1322 -991 
z
" transform="scale(0.015625)"/>
      </defs>
      <use xlink:href="#IPAexGothic-6642"/>
      <use xlink:href="#IPAexGothic-9593" x="100"/>
      <use xlink:href="#IPAexGothic-5b" x="200"/>
      <use xlink:href="#IPAexGothic-73" x="229.980469"/>
      <use xlink:href="#IPAexGothic-5d" x="276.171875"/>
     </g>
    </g>
   </g>
   <g id="matplotlib.axis_2">
    <g id="ytick_1">
     <g id="line2d_7">
      <defs>
       <path id="ma08b4de526" d="M 0 0 
L -3.5 0 
" style="stroke: #000000; stroke-width: 0.8"/>
      </defs>
      <g>
       <use xlink:href="#ma08b4de526" x="57.6" y="276.772504" style="stroke: #000000; stroke-width: 0.8"/>
      </g>
     </g>
     <g id="text_8">
      <!-- −0.15 -->
      <g transform="translate(22.279688 280.517816) scale(0.1 -0.1)">
       <defs>
        <path id="IPAexGothic-2212" d="M 416 2222 
L 3922 2222 
L 3922 1856 
L 416 1856 
L 416 2222 
z
" transform="scale(0.015625)"/>
        <path id="IPAexGothic-2e" d="M 1184 63 
L 494 63 
L 494 753 
L 1184 753 
L 1184 63 
z
" transform="scale(0.015625)"/>
       </defs>
       <use xlink:href="#IPAexGothic-2212"/>
       <use xlink:href="#IPAexGothic-30" x="67.822266"/>
       <use xlink:href="#IPAexGothic-2e" x="130.810547"/>
       <use xlink:href="#IPAexGothic-31" x="157.226562"/>
       <use xlink:href="#IPAexGothic-35" x="220.214844"/>
      </g>
     </g>
    </g>
    <g id="ytick_2">
     <g id="line2d_8">
      <g>
       <use xlink:href="#ma08b4de526" x="57.6" y="240.786214" style="stroke: #000000; stroke-width: 0.8"/>
      </g>
     </g>
     <g id="text_9">
      <!-- −0.10 -->
      <g transform="translate(22.279688 244.531526) scale(0.1 -0.1)">
       <use xlink:href="#IPAexGothic-2212"/>
       <use xlink:href="#IPAexGothic-30" x="67.822266"/>
       <use xlink:href="#IPAexGothic-2e" x="130.810547"/>
       <use xlink:href="#IPAexGothic-31" x="157.226562"/>
       <use xlink:href="#IPAexGothic-30" x="220.214844"/>
      </g>
     </g>
    </g>
    <g id="ytick_3">
     <g id="line2d_9">
      <g>
       <use xlink:href="#ma08b4de526" x="57.6" y="204.799924" style="stroke: #000000; stroke-width: 0.8"/>
      </g>
     </g>
     <g id="text_10">
      <!-- −0.05 -->
      <g transform="translate(22.279688 208.545237) scale(0.1 -0.1)">
       <use xlink:href="#IPAexGothic-2212"/>
       <use xlink:href="#IPAexGothic-30" x="67.822266"/>
       <use xlink:href="#IPAexGothic-2e" x="130.810547"/>
       <use xlink:href="#IPAexGothic-30" x="157.226562"/>
       <use xlink:href="#IPAexGothic-35" x="220.214844"/>
      </g>
     </g>
    </g>
    <g id="ytick_4">
     <g id="line2d_10">
      <g>
       <use xlink:href="#ma08b4de526" x="57.6" y="168.813634" style="stroke: #000000; stroke-width: 0.8"/>
      </g>
     </g>
     <g id="text_11">
      <!-- 0.00 -->
      <g transform="translate(29.0625 172.558947) scale(0.1 -0.1)">
       <use xlink:href="#IPAexGothic-30"/>
       <use xlink:href="#IPAexGothic-2e" x="62.988281"/>
       <use xlink:href="#IPAexGothic-30" x="89.404297"/>
       <use xlink:href="#IPAexGothic-30" x="152.392578"/>
      </g>
     </g>
    </g>
    <g id="ytick_5">
     <g id="line2d_11">
      <g>
       <use xlink:href="#ma08b4de526" x="57.6" y="132.827345" style="stroke: #000000; stroke-width: 0.8"/>
      </g>
     </g>
     <g id="text_12">
      <!-- 0.05 -->
      <g transform="translate(29.0625 136.572657) scale(0.1 -0.1)">
       <use xlink:href="#IPAexGothic-30"/>
       <use xlink:href="#IPAexGothic-2e" x="62.988281"/>
       <use xlink:href="#IPAexGothic-30" x="89.404297"/>
       <use xlink:href="#IPAexGothic-35" x="152.392578"/>
      </g>
     </g>
    </g>
    <g id="ytick_6">
     <g id="line2d_12">
      <g>
       <use xlink:href="#ma08b4de526" x="57.6" y="96.841055" style="stroke: #000000; stroke-width: 0.8"/>
      </g>
     </g>
     <g id="text_13">
      <!-- 0.10 -->
      <g transform="translate(29.0625 100.586367) scale(0.1 -0.1)">
       <use xlink:href="#IPAexGothic-30"/>
       <use xlink:href="#IPAexGothic-2e" x="62.988281"/>
       <use xlink:href="#IPAexGothic-31" x="89.404297"/>
       <use xlink:href="#IPAexGothic-30" x="152.392578"/>
      </g>
     </g>
    </g>
    <g id="ytick_7">
     <g id="line2d_13">
      <g>
       <use xlink:href="#ma08b4de526" x="57.6" y="60.854765" style="stroke: #000000; stroke-width: 0.8"/>
      </g>
     </g>
     <g id="text_14">
      <!-- 0.15 -->
      <g transform="translate(29.0625 64.600078) scale(0.1 -0.1)">
       <use xlink:href="#IPAexGothic-30"/>
       <use xlink:href="#IPAexGothic-2e" x="62.988281"/>
       <use xlink:href="#IPAexGothic-31" x="89.404297"/>
       <use xlink:href="#IPAexGothic-35" x="152.392578"/>
      </g>
     </g>
    </g>
    <g id="text_15">
     <!-- 振幅 -->
     <g transform="translate(16.379688 184.1644) rotate(-90) scale(0.1 -0.1)">
      <defs>
       <path id="IPAexGothic-632f" d="M 1178 4013 
L 1178 5300 
L 1606 5300 
L 1606 4013 
L 2206 4013 
L 2206 3597 
L 1606 3597 
L 1606 2375 
Q 1856 2444 2238 2572 
L 2266 2216 
Q 1894 2066 1650 1991 
Q 1631 1984 1606 1972 
L 1606 0 
Q 1606 -272 1484 -363 
Q 1384 -447 1094 -447 
Q 797 -447 519 -409 
L 441 50 
Q 738 -6 972 -6 
Q 1178 -6 1178 172 
L 1178 1838 
Q 1138 1825 1106 1819 
Q 875 1744 403 1619 
L 275 2047 
Q 613 2116 1178 2259 
L 1178 3597 
L 372 3597 
L 372 4013 
L 1178 4013 
z
M 2925 4441 
L 2925 2681 
L 5984 2681 
L 5984 2284 
L 4647 2284 
Q 4703 1834 4872 1422 
Q 5303 1759 5600 2106 
L 5984 1803 
Q 5584 1431 5044 1069 
Q 5413 488 6088 13 
L 5747 -403 
Q 4394 691 4250 2284 
L 3816 2284 
L 3816 225 
Q 4256 328 4672 466 
L 4731 103 
Q 3981 -203 2988 -403 
L 2834 38 
Q 3172 88 3375 128 
L 3375 2284 
L 2925 2284 
Q 2906 1513 2809 1016 
Q 2656 250 2203 -416 
L 1863 -66 
Q 2300 547 2413 1428 
Q 2478 1928 2478 2809 
L 2478 4831 
L 5909 4831 
L 5909 4441 
L 2925 4441 
z
M 3153 3756 
L 5594 3756 
L 5594 3366 
L 3153 3366 
L 3153 3756 
z
" transform="scale(0.015625)"/>
       <path id="IPAexGothic-5e45" d="M 1222 4084 
L 1222 5313 
L 1625 5313 
L 1625 4084 
L 2491 4084 
L 2491 1250 
Q 2491 878 2125 878 
Q 1956 878 1753 916 
L 1697 1325 
Q 1841 1288 1972 1288 
Q 2094 1288 2094 1422 
L 2094 3681 
L 1625 3681 
L 1625 -447 
L 1222 -447 
L 1222 3681 
L 819 3681 
L 819 800 
L 422 800 
L 422 4084 
L 1222 4084 
z
M 5606 4197 
L 5606 2744 
L 3006 2744 
L 3006 4197 
L 5606 4197 
z
M 3441 3819 
L 3441 3116 
L 5172 3116 
L 5172 3819 
L 3441 3819 
z
M 5950 2297 
L 5950 -447 
L 5528 -447 
L 5528 -172 
L 3116 -172 
L 3116 -447 
L 2700 -447 
L 2700 2297 
L 5950 2297 
z
M 3116 1919 
L 3116 1263 
L 4091 1263 
L 4091 1919 
L 3116 1919 
z
M 3116 897 
L 3116 200 
L 4091 200 
L 4091 897 
L 3116 897 
z
M 5528 200 
L 5528 897 
L 4500 897 
L 4500 200 
L 5528 200 
z
M 5528 1263 
L 5528 1919 
L 4500 1919 
L 4500 1263 
L 5528 1263 
z
M 2528 5019 
L 6078 5019 
L 6078 4622 
L 2528 4622 
L 2528 5019 
z
" transform="scale(0.015625)"/>
      </defs>
      <use xlink:href="#IPAexGothic-632f"/>
      <use xlink:href="#IPAexGothic-5e45" x="100"/>
     </g>
    </g>
   </g>
   <g id="line2d_14">
    <path d="M 73.832727 225.042212 
L 75.105882 149.528482 
L 76.379037 130.003048 
L 77.652193 175.592519 
L 78.925348 148.22333 
L 80.198503 191.748508 
L 81.471658 142.641425 
L 82.744813 251.226898 
L 84.017968 187.437122 
L 85.291123 164.082269 
L 86.564278 148.224817 
L 87.837433 181.252389 
L 89.110588 140.501449 
L 90.383743 113.661857 
L 91.656898 190.94093 
L 92.930053 53.4564 
L 94.203209 294.8724 
L 95.476364 163.445255 
L 96.749519 211.004911 
L 98.022674 219.587519 
L 99.295829 138.412976 
L 100.568984 144.623705 
L 101.842139 133.677905 
L 103.115294 165.204404 
L 104.388449 149.229373 
L 105.661604 208.302743 
L 106.934759 191.057572 
L 108.207914 139.313751 
L 109.48107 113.570488 
L 110.754225 194.048532 
L 112.02738 193.816631 
L 113.300535 204.471381 
L 114.57369 164.837673 
L 115.846845 171.215318 
L 117.12 119.328079 
L 118.393155 212.929871 
L 119.66631 177.529915 
L 120.939465 162.429179 
L 122.21262 191.605925 
L 123.485775 60.911961 
L 124.75893 137.359138 
L 126.032086 227.645889 
L 127.305241 207.443911 
L 128.578396 179.950085 
L 129.851551 145.050731 
L 131.124706 218.781203 
L 132.397861 197.246836 
L 133.671016 109.883508 
L 134.944171 195.345506 
L 136.217326 125.540603 
L 137.490481 130.260863 
L 138.763636 148.917086 
L 140.036791 193.178371 
L 141.309947 204.495168 
L 142.583102 186.667669 
L 145.129412 154.720456 
L 146.402567 200.96338 
L 147.675722 183.350589 
L 148.948877 110.464322 
L 150.222032 163.323827 
L 151.495187 191.288241 
L 152.768342 137.934572 
L 154.041497 205.893715 
L 155.314652 140.699345 
L 156.587807 140.219763 
L 157.860963 208.783519 
L 159.134118 161.787633 
L 160.407273 183.712581 
L 161.680428 223.575866 
L 162.953583 132.481927 
L 164.226738 137.570463 
L 165.499893 171.089117 
L 166.773048 153.854538 
L 168.046203 184.244842 
L 169.319358 179.86628 
L 170.592513 170.257226 
L 171.865668 176.082265 
L 173.138824 152.614085 
L 174.411979 139.766154 
L 175.685134 154.092604 
L 176.958289 213.177277 
L 178.231444 190.911811 
L 179.504599 186.646016 
L 180.777754 173.655777 
L 182.050909 123.577805 
L 183.324064 171.769795 
L 184.597219 154.699788 
L 185.870374 154.121787 
L 187.143529 172.650005 
L 188.416684 183.530933 
L 189.68984 171.162115 
L 190.962995 184.810882 
L 192.23615 170.118521 
L 193.509305 174.215299 
L 194.78246 158.943391 
L 196.055615 172.789595 
L 197.32877 177.454089 
L 198.601925 147.004521 
L 199.87508 154.894686 
L 201.148235 164.679547 
L 202.42139 189.629587 
L 203.694545 154.619087 
L 204.967701 180.279896 
L 206.240856 180.245121 
L 208.787166 162.036838 
L 210.060321 180.038093 
L 211.333476 166.257151 
L 212.606631 143.731767 
L 213.879786 172.565546 
L 215.152941 177.091029 
L 216.426096 165.892614 
L 217.699251 161.492972 
L 218.972406 175.909308 
L 220.245561 173.985759 
L 221.518717 178.21253 
L 222.791872 166.412646 
L 224.065027 161.485219 
L 225.338182 163.095829 
L 226.611337 171.324098 
L 227.884492 172.442367 
L 229.157647 166.179694 
L 230.430802 167.404921 
L 231.703957 169.675642 
L 232.977112 171.269146 
L 234.250267 168.478188 
L 235.523422 168.277553 
L 236.796578 168.813634 
L 238.069733 168.277553 
L 239.342888 168.478188 
L 240.616043 171.269146 
L 241.889198 169.675642 
L 243.162353 167.404921 
L 244.435508 166.179694 
L 245.708663 172.442367 
L 246.981818 171.324098 
L 248.254973 163.095829 
L 249.528128 161.485219 
L 250.801283 166.412646 
L 252.074439 178.21253 
L 253.347594 173.985759 
L 254.620749 175.909308 
L 255.893904 161.492972 
L 257.167059 165.892614 
L 258.440214 177.091029 
L 259.713369 172.565546 
L 260.986524 143.731767 
L 262.259679 166.257151 
L 263.532834 180.038093 
L 264.805989 162.036838 
L 267.352299 180.245121 
L 268.625455 180.279896 
L 269.89861 154.619087 
L 271.171765 189.629587 
L 272.44492 164.679547 
L 273.718075 154.894686 
L 274.99123 147.004521 
L 276.264385 177.454089 
L 277.53754 172.789595 
L 278.810695 158.943391 
L 280.08385 174.215299 
L 281.357005 170.118521 
L 282.63016 184.810882 
L 283.903316 171.162115 
L 285.176471 183.530933 
L 286.449626 172.650005 
L 287.722781 154.121787 
L 288.995936 154.699788 
L 290.269091 171.769795 
L 291.542246 123.577805 
L 292.815401 173.655777 
L 294.088556 186.646016 
L 295.361711 190.911811 
L 296.634866 213.177277 
L 297.908021 154.092604 
L 299.181176 139.766154 
L 300.454332 152.614085 
L 301.727487 176.082265 
L 303.000642 170.257226 
L 304.273797 179.86628 
L 305.546952 184.244842 
L 306.820107 153.854538 
L 308.093262 171.089117 
L 309.366417 137.570463 
L 310.639572 132.481927 
L 311.912727 223.575866 
L 313.185882 183.712581 
L 314.459037 161.787633 
L 315.732193 208.783519 
L 317.005348 140.219763 
L 318.278503 140.699345 
L 319.551658 205.893715 
L 320.824813 137.934572 
L 322.097968 191.288241 
L 323.371123 163.323827 
L 324.644278 110.464322 
L 325.917433 183.350589 
L 327.190588 200.96338 
L 328.463743 154.720456 
L 332.283209 204.495168 
L 333.556364 193.178371 
L 334.829519 148.917086 
L 336.102674 130.260863 
L 337.375829 125.540603 
L 338.648984 195.345506 
L 339.922139 109.883508 
L 341.195294 197.246836 
L 342.468449 218.781203 
L 343.741604 145.050731 
L 345.014759 179.950085 
L 346.287914 207.443911 
L 347.56107 227.645889 
L 348.834225 137.359138 
L 350.10738 60.911961 
L 351.380535 191.605925 
L 352.65369 162.429179 
L 353.926845 177.529915 
L 355.2 212.929871 
L 356.473155 119.328079 
L 357.74631 171.215318 
L 359.019465 164.837673 
L 360.29262 204.471381 
L 361.565775 193.816631 
L 362.83893 194.048532 
L 364.112086 113.570488 
L 365.385241 139.313751 
L 366.658396 191.057572 
L 367.931551 208.302743 
L 369.204706 149.229373 
L 370.477861 165.204404 
L 371.751016 133.677905 
L 373.024171 144.623705 
L 374.297326 138.412976 
L 375.570481 219.587519 
L 376.843636 211.004911 
L 378.116791 163.445255 
L 379.389947 294.8724 
L 380.663102 53.4564 
L 381.936257 190.94093 
L 383.209412 113.661857 
L 384.482567 140.501449 
L 385.755722 181.252389 
L 387.028877 148.224817 
L 388.302032 164.082269 
L 389.575187 187.437122 
L 390.848342 251.226898 
L 392.121497 142.641425 
L 393.394652 191.748508 
L 394.667807 148.22333 
L 395.940963 175.592519 
L 397.214118 130.003048 
L 398.487273 149.528482 
L 398.487273 149.528482 
" clip-path="url(#pa07d2ac166)" style="fill: none; stroke: #1f77b4; stroke-width: 1.5; stroke-linecap: square"/>
   </g>
   <g id="patch_3">
    <path d="M 57.6 306.9432 
L 57.6 41.3856 
" style="fill: none; stroke: #000000; stroke-width: 0.8; stroke-linejoin: miter; stroke-linecap: square"/>
   </g>
   <g id="patch_4">
    <path d="M 414.72 306.9432 
L 414.72 41.3856 
" style="fill: none; stroke: #000000; stroke-width: 0.8; stroke-linejoin: miter; stroke-linecap: square"/>
   </g>
   <g id="patch_5">
    <path d="M 57.6 306.9432 
L 414.72 306.9432 
" style="fill: none; stroke: #000000; stroke-width: 0.8; stroke-linejoin: miter; stroke-linecap: square"/>
   </g>
   <g id="patch_6">
    <path d="M 57.6 41.3856 
L 414.72 41.3856 
" style="fill: none; stroke: #000000; stroke-width: 0.8; stroke-linejoin: miter; stroke-linecap: square"/>
   </g>
   <g id="text_16">
    <!-- 入力信号をIFFTした結果 -->
    <g transform="translate(169.970625 35.3856) scale(0.12 -0.12)">
     <defs>
      <path id="IPAexGothic-5165" d="M 3275 3078 
Q 2806 619 819 -334 
L 447 91 
Q 2934 1156 3000 4550 
L 1472 4550 
L 1472 4984 
L 3525 4984 
L 3525 4728 
Q 3525 3053 4116 2041 
Q 4734 972 6022 275 
L 5650 -200 
Q 3697 1044 3275 3078 
z
" transform="scale(0.015625)"/>
      <path id="IPAexGothic-529b" d="M 3303 3944 
L 5653 3944 
Q 5622 1247 5428 356 
Q 5303 -231 4647 -231 
Q 4159 -231 3456 -147 
L 3381 416 
Q 4022 263 4456 263 
Q 4881 263 4947 616 
Q 5106 1509 5134 3303 
L 5141 3509 
L 3291 3509 
Q 3234 2200 2741 1281 
Q 2194 297 878 -416 
L 525 -6 
Q 2709 963 2778 3450 
L 641 3450 
L 641 3891 
L 2784 3891 
L 2784 5147 
L 3303 5147 
L 3303 3944 
z
" transform="scale(0.015625)"/>
      <path id="IPAexGothic-4fe1" d="M 1572 3809 
L 1572 -447 
L 1119 -447 
L 1119 2847 
Q 856 2372 550 1972 
L 300 2363 
Q 1172 3550 1566 5253 
L 2013 5147 
Q 1819 4428 1572 3809 
z
M 5534 1619 
L 5534 -447 
L 5081 -447 
L 5081 -116 
L 2763 -116 
L 2763 -447 
L 2316 -447 
L 2316 1619 
L 5534 1619 
z
M 2763 1234 
L 2763 269 
L 5081 269 
L 5081 1234 
L 2763 1234 
z
M 2475 4984 
L 5375 4984 
L 5375 4588 
L 2475 4588 
L 2475 4984 
z
M 2475 3297 
L 5375 3297 
L 5375 2906 
L 2475 2906 
L 2475 3297 
z
M 2475 2456 
L 5375 2456 
L 5375 2066 
L 2475 2066 
L 2475 2456 
z
M 1894 4147 
L 6003 4147 
L 6003 3738 
L 1894 3738 
L 1894 4147 
z
" transform="scale(0.015625)"/>
      <path id="IPAexGothic-53f7" d="M 5144 4947 
L 5144 3303 
L 1247 3303 
L 1247 4947 
L 5144 4947 
z
M 1706 4550 
L 1706 3694 
L 4684 3694 
L 4684 4550 
L 1706 4550 
z
M 2328 2350 
L 2309 2291 
Q 2225 2013 2138 1753 
L 5300 1753 
Q 5231 556 4978 19 
Q 4850 -247 4613 -331 
Q 4434 -403 4044 -403 
Q 3466 -403 3006 -359 
L 2906 147 
Q 3544 44 4025 44 
Q 4425 44 4569 397 
Q 4706 731 4775 1344 
L 1978 1344 
Q 1875 1097 1716 788 
L 1241 928 
Q 1631 1603 1850 2350 
L 416 2350 
L 416 2753 
L 6034 2753 
L 6034 2350 
L 2328 2350 
z
" transform="scale(0.015625)"/>
      <path id="IPAexGothic-3092" d="M 1094 4263 
Q 1544 4222 2359 4222 
Q 2581 4734 2700 5163 
L 3175 5028 
Q 2997 4538 2859 4256 
Q 3516 4284 4294 4459 
L 4356 4019 
Q 3603 3869 2656 3819 
Q 2391 3284 2059 2797 
Q 2531 3200 2963 3200 
Q 3638 3200 3859 2378 
Q 4556 2681 5338 2950 
L 5575 2528 
Q 4641 2253 3941 1956 
Q 3981 1678 3994 1028 
L 3513 991 
Q 3513 1456 3494 1753 
Q 2388 1194 2388 716 
Q 2388 428 2753 328 
Q 3066 241 3806 241 
Q 4394 241 5178 344 
L 5216 -128 
Q 4434 -213 3653 -213 
Q 2656 -213 2244 41 
Q 1913 244 1913 631 
Q 1913 1094 2344 1497 
Q 2709 1841 3428 2181 
Q 3266 2797 2878 2797 
Q 2238 2797 1209 1419 
L 838 1694 
Q 1625 2716 2163 3800 
Q 1522 3800 1088 3825 
L 1094 4263 
z
" transform="scale(0.015625)"/>
      <path id="IPAexGothic-49" d="M 1203 63 
L 634 63 
L 634 4634 
L 1203 4634 
L 1203 63 
z
" transform="scale(0.015625)"/>
      <path id="IPAexGothic-46" d="M 3469 4141 
L 1172 4141 
L 1172 2656 
L 3206 2656 
L 3206 2188 
L 1172 2188 
L 1172 63 
L 609 63 
L 609 4634 
L 3469 4634 
L 3469 4141 
z
" transform="scale(0.015625)"/>
      <path id="IPAexGothic-54" d="M 3866 4141 
L 2175 4141 
L 2175 63 
L 1606 63 
L 1606 4141 
L -31 4141 
L -31 4634 
L 3866 4634 
L 3866 4141 
z
" transform="scale(0.015625)"/>
      <path id="IPAexGothic-3057" d="M 1750 4884 
L 2281 4884 
L 2238 1319 
Q 2228 809 2391 569 
Q 2594 281 3128 281 
Q 3772 281 4344 744 
Q 4822 1131 5156 1759 
L 5534 1369 
Q 5094 653 4534 263 
Q 3878 -206 3134 -206 
Q 2341 -206 1994 213 
Q 1697 575 1706 1269 
L 1750 4884 
z
" transform="scale(0.015625)"/>
      <path id="IPAexGothic-305f" d="M 684 3994 
Q 1138 3953 1556 3953 
Q 1797 3953 2106 3975 
Q 2266 4594 2369 5113 
L 2875 5025 
Q 2806 4731 2619 4013 
Q 3209 4084 3656 4191 
L 3688 3719 
Q 3109 3613 2497 3566 
Q 1822 1294 1153 -44 
L 653 172 
Q 1406 1500 1991 3531 
Q 1634 3513 1256 3513 
Q 1106 3513 697 3525 
L 684 3994 
z
M 5753 78 
Q 5059 -13 4597 -13 
Q 3619 -13 3206 334 
Q 2866 625 2766 1222 
L 3213 1388 
Q 3247 1069 3347 903 
Q 3425 775 3578 672 
Q 3866 481 4556 481 
Q 5009 481 5728 575 
L 5753 78 
z
M 3144 2859 
Q 4216 3147 5409 3072 
L 5381 2597 
L 5356 2597 
Q 4263 2663 3194 2419 
L 3144 2859 
z
" transform="scale(0.015625)"/>
      <path id="IPAexGothic-7d50" d="M 1241 3084 
Q 794 3713 378 4128 
L 666 4422 
Q 828 4259 916 4153 
Q 1300 4750 1541 5331 
L 1956 5119 
Q 1547 4363 1150 3859 
Q 1228 3759 1466 3425 
Q 1844 4016 2138 4550 
L 2522 4313 
Q 1853 3213 1313 2572 
Q 1647 2581 2253 2631 
Q 2134 2909 2009 3156 
L 2353 3303 
Q 2656 2775 2878 2106 
L 2494 1925 
Q 2469 2022 2425 2156 
Q 2384 2284 2372 2322 
Q 2334 2319 2222 2300 
Q 1966 2259 1778 2234 
L 1778 -447 
L 1363 -447 
L 1363 2181 
L 1291 2175 
Q 1000 2144 428 2106 
L 281 2534 
Q 672 2547 863 2553 
Q 909 2613 972 2700 
Q 1059 2816 1241 3084 
z
M 4134 4325 
L 4134 5309 
L 4563 5309 
L 4563 4325 
L 6113 4325 
L 6113 3934 
L 4563 3934 
L 4563 3034 
L 5906 3034 
L 5906 2650 
L 2859 2650 
L 2859 3034 
L 4134 3034 
L 4134 3934 
L 2719 3934 
L 2719 4325 
L 4134 4325 
z
M 5631 1997 
L 5631 -450 
L 5203 -450 
L 5203 -103 
L 3550 -103 
L 3550 -450 
L 3122 -450 
L 3122 1997 
L 5631 1997 
z
M 3550 1613 
L 3550 281 
L 5203 281 
L 5203 1613 
L 3550 1613 
z
M 353 197 
Q 581 863 647 1759 
L 1056 1709 
Q 988 709 769 -13 
L 353 197 
z
M 2334 313 
Q 2206 1147 1997 1759 
L 2363 1869 
Q 2609 1253 2766 488 
L 2334 313 
z
" transform="scale(0.015625)"/>
      <path id="IPAexGothic-679c" d="M 3809 1666 
Q 4656 800 6088 297 
L 5784 -131 
Q 4256 494 3406 1563 
L 3406 -447 
L 2947 -447 
L 2947 1519 
Q 2203 425 647 -281 
L 334 109 
Q 1769 697 2575 1666 
L 378 1666 
L 378 2075 
L 2947 2075 
L 2947 2625 
L 1109 2625 
L 1109 5013 
L 5288 5013 
L 5288 2625 
L 3406 2625 
L 3406 2075 
L 6016 2075 
L 6016 1666 
L 3809 1666 
z
M 1556 4628 
L 1556 3994 
L 2959 3994 
L 2959 4628 
L 1556 4628 
z
M 1556 3628 
L 1556 3009 
L 2959 3009 
L 2959 3628 
L 1556 3628 
z
M 4834 3009 
L 4834 3628 
L 3394 3628 
L 3394 3009 
L 4834 3009 
z
M 4834 3994 
L 4834 4628 
L 3394 4628 
L 3394 3994 
L 4834 3994 
z
" transform="scale(0.015625)"/>
     </defs>
     <use xlink:href="#IPAexGothic-5165"/>
     <use xlink:href="#IPAexGothic-529b" x="100"/>
     <use xlink:href="#IPAexGothic-4fe1" x="200"/>
     <use xlink:href="#IPAexGothic-53f7" x="300"/>
     <use xlink:href="#IPAexGothic-3092" x="400"/>
     <use xlink:href="#IPAexGothic-49" x="500"/>
     <use xlink:href="#IPAexGothic-46" x="528.90625"/>
     <use xlink:href="#IPAexGothic-46" x="586.083984"/>
     <use xlink:href="#IPAexGothic-54" x="643.261719"/>
     <use xlink:href="#IPAexGothic-3057" x="703.173828"/>
     <use xlink:href="#IPAexGothic-305f" x="803.173828"/>
     <use xlink:href="#IPAexGothic-7d50" x="903.173828"/>
     <use xlink:href="#IPAexGothic-679c" x="1003.173828"/>
    </g>
   </g>
  </g>
 </g>
 <defs>
  <clipPath id="pa07d2ac166">
   <rect x="57.6" y="41.3856" width="357.12" height="265.5576"/>
  </clipPath>
 </defs>
</svg>
