<?xml version="1.0" encoding="utf-8" standalone="no"?>
<!DOCTYPE svg PUBLIC "-//W3C//DTD SVG 1.1//EN"
  "http://www.w3.org/Graphics/SVG/1.1/DTD/svg11.dtd">
<svg xmlns:xlink="http://www.w3.org/1999/xlink" width="460.8pt" height="344.88pt" viewBox="0 0 460.8 344.88" xmlns="http://www.w3.org/2000/svg" version="1.1">
 <metadata>
  <rdf:RDF xmlns:dc="http://purl.org/dc/elements/1.1/" xmlns:cc="http://creativecommons.org/ns#" xmlns:rdf="http://www.w3.org/1999/02/22-rdf-syntax-ns#">
   <cc:Work>
    <dc:type rdf:resource="http://purl.org/dc/dcmitype/StillImage"/>
    <dc:date>2024-10-08T15:56:48.136994</dc:date>
    <dc:format>image/svg+xml</dc:format>
    <dc:creator>
     <cc:Agent>
      <dc:title>Matplotlib v3.9.1, https://matplotlib.org/</dc:title>
     </cc:Agent>
    </dc:creator>
   </cc:Work>
  </rdf:RDF>
 </metadata>
 <defs>
  <style type="text/css">*{stroke-linejoin: round; stroke-linecap: butt}</style>
 </defs>
 <g id="figure_1">
  <g id="patch_1">
   <path d="M 0 344.88 
L 460.8 344.88 
L 460.8 0 
L 0 0 
z
" style="fill: #ffffff"/>
  </g>
  <g id="axes_1">
   <g id="patch_2">
    <path d="M 57.6 306.9432 
L 414.72 306.9432 
L 414.72 41.3856 
L 57.6 41.3856 
z
" style="fill: #ffffff"/>
   </g>
   <g id="matplotlib.axis_1">
    <g id="xtick_1">
     <g id="line2d_1">
      <defs>
       <path id="mefdeba5fe9" d="M 0 0 
L 0 3.5 
" style="stroke: #000000; stroke-width: 0.8"/>
      </defs>
      <g>
       <use xlink:href="#mefdeba5fe9" x="84.017968" y="306.9432" style="stroke: #000000; stroke-width: 0.8"/>
      </g>
     </g>
     <g id="text_1">
      <!-- −6000 -->
      <g transform="translate(68.029687 321.433825) scale(0.1 -0.1)">
       <defs>
        <path id="IPAexGothic-2212" d="M 416 2222 
L 3922 2222 
L 3922 1856 
L 416 1856 
L 416 2222 
z
" transform="scale(0.015625)"/>
        <path id="IPAexGothic-36" d="M 1056 2328 
Q 1509 2981 2234 2981 
Q 2906 2981 3316 2513 
Q 3675 2106 3675 1522 
Q 3675 884 3272 434 
Q 2853 -31 2178 -31 
Q 1375 -31 922 581 
Q 481 1178 481 2228 
Q 481 3425 1013 4109 
Q 1494 4725 2272 4725 
Q 3191 4725 3609 4025 
L 3150 3775 
Q 2894 4266 2300 4266 
Q 1119 4266 1031 2328 
L 1056 2328 
z
M 2141 2547 
Q 1684 2547 1384 2206 
Q 1116 1900 1116 1541 
Q 1116 1156 1353 844 
Q 1672 428 2159 428 
Q 2669 428 2941 844 
Q 3125 1128 3125 1503 
Q 3125 1944 2881 2228 
Q 2600 2547 2141 2547 
z
" transform="scale(0.015625)"/>
        <path id="IPAexGothic-30" d="M 2038 4725 
Q 2881 4725 3334 3944 
Q 3694 3325 3694 2344 
Q 3694 1372 3334 741 
Q 2888 -31 2016 -31 
Q 1147 -31 700 741 
Q 341 1372 341 2350 
Q 341 3713 1000 4334 
Q 1419 4725 2038 4725 
z
M 2016 4266 
Q 1516 4266 1228 3759 
Q 934 3247 934 2344 
Q 934 1456 1222 947 
Q 1513 447 2016 447 
Q 2619 447 2909 1153 
Q 3100 1622 3100 2375 
Q 3100 3256 2806 3759 
Q 2509 4266 2016 4266 
z
" transform="scale(0.015625)"/>
       </defs>
       <use xlink:href="#IPAexGothic-2212"/>
       <use xlink:href="#IPAexGothic-36" x="67.822266"/>
       <use xlink:href="#IPAexGothic-30" x="130.810547"/>
       <use xlink:href="#IPAexGothic-30" x="193.798828"/>
       <use xlink:href="#IPAexGothic-30" x="256.787109"/>
      </g>
     </g>
    </g>
    <g id="xtick_2">
     <g id="line2d_2">
      <g>
       <use xlink:href="#mefdeba5fe9" x="134.944171" y="306.9432" style="stroke: #000000; stroke-width: 0.8"/>
      </g>
     </g>
     <g id="text_2">
      <!-- −4000 -->
      <g transform="translate(118.95589 321.433825) scale(0.1 -0.1)">
       <defs>
        <path id="IPAexGothic-34" d="M 3813 1159 
L 3059 1159 
L 3059 63 
L 2547 63 
L 2547 1159 
L 197 1159 
L 197 1672 
L 2456 4678 
L 3059 4678 
L 3059 1634 
L 3813 1634 
L 3813 1159 
z
M 2578 4109 
L 2559 4109 
Q 2278 3656 2003 3284 
L 759 1634 
L 2547 1634 
L 2547 3144 
Q 2547 3481 2578 4109 
z
" transform="scale(0.015625)"/>
       </defs>
       <use xlink:href="#IPAexGothic-2212"/>
       <use xlink:href="#IPAexGothic-34" x="67.822266"/>
       <use xlink:href="#IPAexGothic-30" x="130.810547"/>
       <use xlink:href="#IPAexGothic-30" x="193.798828"/>
       <use xlink:href="#IPAexGothic-30" x="256.787109"/>
      </g>
     </g>
    </g>
    <g id="xtick_3">
     <g id="line2d_3">
      <g>
       <use xlink:href="#mefdeba5fe9" x="185.870374" y="306.9432" style="stroke: #000000; stroke-width: 0.8"/>
      </g>
     </g>
     <g id="text_3">
      <!-- −2000 -->
      <g transform="translate(169.882093 321.433825) scale(0.1 -0.1)">
       <defs>
        <path id="IPAexGothic-32" d="M 3659 63 
L 447 63 
L 447 594 
Q 825 1475 1894 2203 
L 2072 2322 
Q 2619 2697 2791 2906 
Q 2988 3153 2988 3444 
Q 2988 3772 2756 4003 
Q 2500 4259 2084 4259 
Q 1250 4259 991 3328 
L 497 3506 
Q 853 4725 2116 4725 
Q 2806 4725 3216 4316 
Q 3575 3947 3575 3425 
Q 3575 3038 3344 2722 
Q 3131 2416 2366 1938 
L 2231 1856 
Q 1256 1253 978 569 
L 3659 569 
L 3659 63 
z
" transform="scale(0.015625)"/>
       </defs>
       <use xlink:href="#IPAexGothic-2212"/>
       <use xlink:href="#IPAexGothic-32" x="67.822266"/>
       <use xlink:href="#IPAexGothic-30" x="130.810547"/>
       <use xlink:href="#IPAexGothic-30" x="193.798828"/>
       <use xlink:href="#IPAexGothic-30" x="256.787109"/>
      </g>
     </g>
    </g>
    <g id="xtick_4">
     <g id="line2d_4">
      <g>
       <use xlink:href="#mefdeba5fe9" x="236.796578" y="306.9432" style="stroke: #000000; stroke-width: 0.8"/>
      </g>
     </g>
     <g id="text_4">
      <!-- 0 -->
      <g transform="translate(233.647359 321.433825) scale(0.1 -0.1)">
       <use xlink:href="#IPAexGothic-30"/>
      </g>
     </g>
    </g>
    <g id="xtick_5">
     <g id="line2d_5">
      <g>
       <use xlink:href="#mefdeba5fe9" x="287.722781" y="306.9432" style="stroke: #000000; stroke-width: 0.8"/>
      </g>
     </g>
     <g id="text_5">
      <!-- 2000 -->
      <g transform="translate(275.125906 321.433825) scale(0.1 -0.1)">
       <use xlink:href="#IPAexGothic-32"/>
       <use xlink:href="#IPAexGothic-30" x="62.988281"/>
       <use xlink:href="#IPAexGothic-30" x="125.976562"/>
       <use xlink:href="#IPAexGothic-30" x="188.964844"/>
      </g>
     </g>
    </g>
    <g id="xtick_6">
     <g id="line2d_6">
      <g>
       <use xlink:href="#mefdeba5fe9" x="338.648984" y="306.9432" style="stroke: #000000; stroke-width: 0.8"/>
      </g>
     </g>
     <g id="text_6">
      <!-- 4000 -->
      <g transform="translate(326.052109 321.433825) scale(0.1 -0.1)">
       <use xlink:href="#IPAexGothic-34"/>
       <use xlink:href="#IPAexGothic-30" x="62.988281"/>
       <use xlink:href="#IPAexGothic-30" x="125.976562"/>
       <use xlink:href="#IPAexGothic-30" x="188.964844"/>
      </g>
     </g>
    </g>
    <g id="xtick_7">
     <g id="line2d_7">
      <g>
       <use xlink:href="#mefdeba5fe9" x="389.575187" y="306.9432" style="stroke: #000000; stroke-width: 0.8"/>
      </g>
     </g>
     <g id="text_7">
      <!-- 6000 -->
      <g transform="translate(376.978312 321.433825) scale(0.1 -0.1)">
       <use xlink:href="#IPAexGothic-36"/>
       <use xlink:href="#IPAexGothic-30" x="62.988281"/>
       <use xlink:href="#IPAexGothic-30" x="125.976562"/>
       <use xlink:href="#IPAexGothic-30" x="188.964844"/>
      </g>
     </g>
    </g>
    <g id="text_8">
     <!-- 周波数[Hz] -->
     <g transform="translate(212.045937 335.283825) scale(0.1 -0.1)">
      <defs>
       <path id="IPAexGothic-5468" d="M 5638 4984 
L 5638 191 
Q 5638 -75 5534 -188 
Q 5409 -341 4975 -341 
Q 4581 -341 3966 -294 
L 3859 209 
Q 4422 134 4850 134 
Q 5069 134 5131 225 
Q 5169 291 5169 441 
L 5169 4575 
L 1378 4575 
L 1378 2750 
Q 1378 1400 1288 800 
Q 1184 78 781 -500 
L 391 -116 
Q 741 350 838 1106 
Q 909 1650 909 2656 
L 909 4984 
L 5638 4984 
z
M 2463 703 
L 2463 222 
L 2022 222 
L 2022 2119 
L 4447 2119 
L 4447 703 
L 2463 703 
z
M 4006 1075 
L 4006 1747 
L 2463 1747 
L 2463 1075 
L 4006 1075 
z
M 3444 3816 
L 4744 3816 
L 4744 3438 
L 3444 3438 
L 3444 2913 
L 4941 2913 
L 4941 2534 
L 1606 2534 
L 1606 2913 
L 3000 2913 
L 3000 3438 
L 1803 3438 
L 1803 3816 
L 3000 3816 
L 3000 4347 
L 3444 4347 
L 3444 3816 
z
" transform="scale(0.015625)"/>
       <path id="IPAexGothic-6ce2" d="M 4641 838 
Q 5219 381 6097 38 
L 5791 -384 
Q 4919 -6 4325 513 
Q 3591 -144 2794 -500 
L 2488 -103 
Q 3350 188 4006 825 
Q 3397 1472 3056 2400 
L 2756 2400 
L 2756 2344 
Q 2747 1263 2513 563 
Q 2344 53 1963 -453 
L 1613 -122 
Q 2113 525 2238 1288 
Q 2316 1756 2316 2503 
L 2316 4378 
L 3866 4378 
L 3866 5313 
L 4306 5313 
L 4306 4378 
L 5753 4378 
L 6016 4141 
Q 5838 3597 5522 3066 
L 5100 3238 
Q 5322 3584 5466 3969 
L 4306 3969 
L 4306 2797 
L 5425 2797 
L 5688 2547 
Q 5231 1469 4641 838 
z
M 4306 1141 
Q 4850 1797 5113 2400 
L 3519 2400 
Q 3838 1638 4306 1141 
z
M 3866 3969 
L 2756 3969 
L 2756 2797 
L 3866 2797 
L 3866 3969 
z
M 409 6 
Q 1013 769 1525 1919 
L 1856 1563 
Q 1388 463 788 -391 
L 409 6 
z
M 1344 2388 
Q 919 2869 384 3238 
L 684 3597 
Q 1225 3234 1672 2759 
L 1344 2388 
z
M 1525 3866 
Q 1047 4381 597 4703 
L 903 5063 
Q 1384 4738 1844 4250 
L 1525 3866 
z
" transform="scale(0.015625)"/>
       <path id="IPAexGothic-6570" d="M 2847 1553 
Q 2741 1006 2425 534 
Q 2625 441 3091 203 
L 2809 -188 
Q 2541 0 2144 209 
Q 1569 -291 703 -500 
L 422 -125 
Q 1263 19 1747 406 
Q 1222 650 734 816 
Q 975 1172 1147 1503 
L 1172 1553 
L 359 1553 
L 359 1925 
L 1344 1925 
Q 1406 2066 1569 2475 
L 1691 2450 
L 1691 3372 
Q 1250 2738 550 2303 
L 275 2663 
Q 1019 3013 1528 3641 
L 378 3641 
L 378 4006 
L 1691 4006 
L 1691 5313 
L 2113 5313 
L 2113 4006 
L 3297 4006 
L 3297 3641 
L 2113 3641 
L 2113 3513 
Q 2659 3291 3175 2963 
L 2956 2584 
Q 2553 2922 2113 3159 
L 2113 2372 
L 1966 2372 
Q 1928 2288 1872 2141 
Q 1806 1975 1784 1925 
L 3378 1925 
L 3378 1553 
L 2847 1553 
z
M 2419 1553 
L 1613 1553 
Q 1478 1269 1313 997 
Q 1559 909 2047 703 
Q 2313 1047 2419 1553 
z
M 4363 1163 
Q 3953 1781 3738 2638 
Q 3575 2281 3428 2016 
L 3103 2406 
Q 3675 3444 3916 5291 
L 4363 5200 
Q 4284 4666 4197 4197 
L 6009 4197 
L 6009 3775 
L 5503 3775 
Q 5397 2275 4869 1191 
Q 5419 503 6144 75 
L 5822 -378 
Q 5188 106 4631 788 
Q 4113 34 3341 -463 
L 3031 -78 
Q 3888 406 4363 1163 
z
M 4588 1594 
Q 4938 2388 5059 3775 
L 4100 3775 
Q 4041 3519 3972 3288 
Q 3981 3250 3991 3194 
Q 4175 2256 4588 1594 
z
M 1003 4116 
Q 878 4544 638 4934 
L 1053 5094 
Q 1247 4788 1438 4269 
L 1003 4116 
z
M 2316 4269 
Q 2550 4688 2688 5131 
L 3128 4997 
Q 2966 4588 2675 4128 
L 2316 4269 
z
" transform="scale(0.015625)"/>
       <path id="IPAexGothic-5b" d="M 1706 -991 
L 581 -991 
L 581 4750 
L 1706 4750 
L 1706 4438 
L 1028 4438 
L 1028 -678 
L 1706 -678 
L 1706 -991 
z
" transform="scale(0.015625)"/>
       <path id="IPAexGothic-48" d="M 4181 63 
L 3619 63 
L 3619 2200 
L 1172 2200 
L 1172 63 
L 609 63 
L 609 4634 
L 1172 4634 
L 1172 2669 
L 3619 2669 
L 3619 4634 
L 4181 4634 
L 4181 63 
z
" transform="scale(0.015625)"/>
       <path id="IPAexGothic-7a" d="M 2778 63 
L 206 63 
L 206 381 
L 1575 2175 
Q 1822 2500 2081 2797 
L 2081 2816 
L 366 2816 
L 366 3250 
L 2703 3250 
L 2703 2900 
L 1378 1138 
Q 1256 975 872 522 
L 872 503 
L 2778 503 
L 2778 63 
z
" transform="scale(0.015625)"/>
       <path id="IPAexGothic-5d" d="M 1322 -991 
L 197 -991 
L 197 -678 
L 875 -678 
L 875 4438 
L 197 4438 
L 197 4750 
L 1322 4750 
L 1322 -991 
z
" transform="scale(0.015625)"/>
      </defs>
      <use xlink:href="#IPAexGothic-5468"/>
      <use xlink:href="#IPAexGothic-6ce2" x="100"/>
      <use xlink:href="#IPAexGothic-6570" x="200"/>
      <use xlink:href="#IPAexGothic-5b" x="300"/>
      <use xlink:href="#IPAexGothic-48" x="329.980469"/>
      <use xlink:href="#IPAexGothic-7a" x="404.980469"/>
      <use xlink:href="#IPAexGothic-5d" x="452.294922"/>
     </g>
    </g>
   </g>
   <g id="matplotlib.axis_2">
    <g id="ytick_1">
     <g id="line2d_8">
      <defs>
       <path id="mf07555f170" d="M 0 0 
L -3.5 0 
" style="stroke: #000000; stroke-width: 0.8"/>
      </defs>
      <g>
       <use xlink:href="#mf07555f170" x="57.6" y="293.560542" style="stroke: #000000; stroke-width: 0.8"/>
      </g>
     </g>
     <g id="text_9">
      <!-- −1.0 -->
      <g transform="translate(28.578125 297.305854) scale(0.1 -0.1)">
       <defs>
        <path id="IPAexGothic-31" d="M 2463 63 
L 1900 63 
L 1900 4103 
Q 1372 3922 788 3797 
L 684 4231 
Q 1519 4441 2106 4731 
L 2463 4731 
L 2463 63 
z
" transform="scale(0.015625)"/>
        <path id="IPAexGothic-2e" d="M 1184 63 
L 494 63 
L 494 753 
L 1184 753 
L 1184 63 
z
" transform="scale(0.015625)"/>
       </defs>
       <use xlink:href="#IPAexGothic-2212"/>
       <use xlink:href="#IPAexGothic-31" x="67.822266"/>
       <use xlink:href="#IPAexGothic-2e" x="130.810547"/>
       <use xlink:href="#IPAexGothic-30" x="157.226562"/>
      </g>
     </g>
    </g>
    <g id="ytick_2">
     <g id="line2d_9">
      <g>
       <use xlink:href="#mf07555f170" x="57.6" y="253.625019" style="stroke: #000000; stroke-width: 0.8"/>
      </g>
     </g>
     <g id="text_10">
      <!-- −0.5 -->
      <g transform="translate(28.578125 257.370331) scale(0.1 -0.1)">
       <defs>
        <path id="IPAexGothic-35" d="M 1178 2603 
Q 1634 2963 2172 2963 
Q 2816 2963 3241 2528 
Q 3638 2113 3638 1497 
Q 3638 938 3297 513 
Q 2869 -31 2031 -31 
Q 959 -31 469 784 
L 938 1028 
Q 1309 434 2013 434 
Q 2466 434 2769 716 
Q 3081 1013 3081 1503 
Q 3081 1966 2806 2241 
Q 2519 2528 2056 2528 
Q 1406 2528 1072 2028 
L 591 2091 
L 884 4634 
L 3406 4634 
L 3406 4153 
L 1341 4153 
L 1134 2603 
L 1178 2603 
z
" transform="scale(0.015625)"/>
       </defs>
       <use xlink:href="#IPAexGothic-2212"/>
       <use xlink:href="#IPAexGothic-30" x="67.822266"/>
       <use xlink:href="#IPAexGothic-2e" x="130.810547"/>
       <use xlink:href="#IPAexGothic-35" x="157.226562"/>
      </g>
     </g>
    </g>
    <g id="ytick_3">
     <g id="line2d_10">
      <g>
       <use xlink:href="#mf07555f170" x="57.6" y="213.689496" style="stroke: #000000; stroke-width: 0.8"/>
      </g>
     </g>
     <g id="text_11">
      <!-- 0.0 -->
      <g transform="translate(35.360937 217.434809) scale(0.1 -0.1)">
       <use xlink:href="#IPAexGothic-30"/>
       <use xlink:href="#IPAexGothic-2e" x="62.988281"/>
       <use xlink:href="#IPAexGothic-30" x="89.404297"/>
      </g>
     </g>
    </g>
    <g id="ytick_4">
     <g id="line2d_11">
      <g>
       <use xlink:href="#mf07555f170" x="57.6" y="173.753974" style="stroke: #000000; stroke-width: 0.8"/>
      </g>
     </g>
     <g id="text_12">
      <!-- 0.5 -->
      <g transform="translate(35.360937 177.499286) scale(0.1 -0.1)">
       <use xlink:href="#IPAexGothic-30"/>
       <use xlink:href="#IPAexGothic-2e" x="62.988281"/>
       <use xlink:href="#IPAexGothic-35" x="89.404297"/>
      </g>
     </g>
    </g>
    <g id="ytick_5">
     <g id="line2d_12">
      <g>
       <use xlink:href="#mf07555f170" x="57.6" y="133.818451" style="stroke: #000000; stroke-width: 0.8"/>
      </g>
     </g>
     <g id="text_13">
      <!-- 1.0 -->
      <g transform="translate(35.360937 137.563764) scale(0.1 -0.1)">
       <use xlink:href="#IPAexGothic-31"/>
       <use xlink:href="#IPAexGothic-2e" x="62.988281"/>
       <use xlink:href="#IPAexGothic-30" x="89.404297"/>
      </g>
     </g>
    </g>
    <g id="ytick_6">
     <g id="line2d_13">
      <g>
       <use xlink:href="#mf07555f170" x="57.6" y="93.882929" style="stroke: #000000; stroke-width: 0.8"/>
      </g>
     </g>
     <g id="text_14">
      <!-- 1.5 -->
      <g transform="translate(35.360937 97.628241) scale(0.1 -0.1)">
       <use xlink:href="#IPAexGothic-31"/>
       <use xlink:href="#IPAexGothic-2e" x="62.988281"/>
       <use xlink:href="#IPAexGothic-35" x="89.404297"/>
      </g>
     </g>
    </g>
    <g id="ytick_7">
     <g id="line2d_14">
      <g>
       <use xlink:href="#mf07555f170" x="57.6" y="53.947406" style="stroke: #000000; stroke-width: 0.8"/>
      </g>
     </g>
     <g id="text_15">
      <!-- 2.0 -->
      <g transform="translate(35.360937 57.692719) scale(0.1 -0.1)">
       <use xlink:href="#IPAexGothic-32"/>
       <use xlink:href="#IPAexGothic-2e" x="62.988281"/>
       <use xlink:href="#IPAexGothic-30" x="89.404297"/>
      </g>
     </g>
    </g>
    <g id="text_16">
     <!-- 振幅 -->
     <g transform="translate(22.678125 184.1644) rotate(-90) scale(0.1 -0.1)">
      <defs>
       <path id="IPAexGothic-632f" d="M 1178 4013 
L 1178 5300 
L 1606 5300 
L 1606 4013 
L 2206 4013 
L 2206 3597 
L 1606 3597 
L 1606 2375 
Q 1856 2444 2238 2572 
L 2266 2216 
Q 1894 2066 1650 1991 
Q 1631 1984 1606 1972 
L 1606 0 
Q 1606 -272 1484 -363 
Q 1384 -447 1094 -447 
Q 797 -447 519 -409 
L 441 50 
Q 738 -6 972 -6 
Q 1178 -6 1178 172 
L 1178 1838 
Q 1138 1825 1106 1819 
Q 875 1744 403 1619 
L 275 2047 
Q 613 2116 1178 2259 
L 1178 3597 
L 372 3597 
L 372 4013 
L 1178 4013 
z
M 2925 4441 
L 2925 2681 
L 5984 2681 
L 5984 2284 
L 4647 2284 
Q 4703 1834 4872 1422 
Q 5303 1759 5600 2106 
L 5984 1803 
Q 5584 1431 5044 1069 
Q 5413 488 6088 13 
L 5747 -403 
Q 4394 691 4250 2284 
L 3816 2284 
L 3816 225 
Q 4256 328 4672 466 
L 4731 103 
Q 3981 -203 2988 -403 
L 2834 38 
Q 3172 88 3375 128 
L 3375 2284 
L 2925 2284 
Q 2906 1513 2809 1016 
Q 2656 250 2203 -416 
L 1863 -66 
Q 2300 547 2413 1428 
Q 2478 1928 2478 2809 
L 2478 4831 
L 5909 4831 
L 5909 4441 
L 2925 4441 
z
M 3153 3756 
L 5594 3756 
L 5594 3366 
L 3153 3366 
L 3153 3756 
z
" transform="scale(0.015625)"/>
       <path id="IPAexGothic-5e45" d="M 1222 4084 
L 1222 5313 
L 1625 5313 
L 1625 4084 
L 2491 4084 
L 2491 1250 
Q 2491 878 2125 878 
Q 1956 878 1753 916 
L 1697 1325 
Q 1841 1288 1972 1288 
Q 2094 1288 2094 1422 
L 2094 3681 
L 1625 3681 
L 1625 -447 
L 1222 -447 
L 1222 3681 
L 819 3681 
L 819 800 
L 422 800 
L 422 4084 
L 1222 4084 
z
M 5606 4197 
L 5606 2744 
L 3006 2744 
L 3006 4197 
L 5606 4197 
z
M 3441 3819 
L 3441 3116 
L 5172 3116 
L 5172 3819 
L 3441 3819 
z
M 5950 2297 
L 5950 -447 
L 5528 -447 
L 5528 -172 
L 3116 -172 
L 3116 -447 
L 2700 -447 
L 2700 2297 
L 5950 2297 
z
M 3116 1919 
L 3116 1263 
L 4091 1263 
L 4091 1919 
L 3116 1919 
z
M 3116 897 
L 3116 200 
L 4091 200 
L 4091 897 
L 3116 897 
z
M 5528 200 
L 5528 897 
L 4500 897 
L 4500 200 
L 5528 200 
z
M 5528 1263 
L 5528 1919 
L 4500 1919 
L 4500 1263 
L 5528 1263 
z
M 2528 5019 
L 6078 5019 
L 6078 4622 
L 2528 4622 
L 2528 5019 
z
" transform="scale(0.015625)"/>
      </defs>
      <use xlink:href="#IPAexGothic-632f"/>
      <use xlink:href="#IPAexGothic-5e45" x="100"/>
     </g>
    </g>
   </g>
   <g id="line2d_15">
    <path d="M 73.832727 213.064894 
L 75.105882 213.103376 
L 76.379037 213.812951 
L 77.652193 213.867225 
L 78.925348 213.376026 
L 80.198503 213.354895 
L 81.471658 213.584725 
L 82.744813 53.4564 
L 84.017968 133.539481 
L 85.291123 133.255192 
L 86.564278 133.926771 
L 87.837433 293.054738 
L 89.110588 134.336232 
L 90.383743 293.457426 
L 91.656898 293.331079 
L 92.930053 293.647615 
L 94.203209 294.148821 
L 95.476364 293.82399 
L 96.749519 292.687011 
L 98.022674 292.614721 
L 99.295829 292.686116 
L 100.568984 293.157614 
L 101.842139 134.82063 
L 103.115294 133.705444 
L 104.388449 133.819745 
L 105.661604 132.851879 
L 106.934759 293.47297 
L 108.207914 294.201852 
L 109.48107 133.824298 
L 110.754225 133.248823 
L 112.02738 294.305084 
L 113.300535 294.828272 
L 114.57369 293.740492 
L 115.846845 292.113593 
L 117.12 293.663767 
L 118.393155 292.597383 
L 119.66631 133.262776 
L 120.939465 133.755706 
L 122.21262 292.927622 
L 123.485775 294.125944 
L 124.75893 53.921617 
L 126.032086 133.55532 
L 127.305241 293.584347 
L 128.578396 134.739878 
L 129.851551 133.502541 
L 131.124706 134.049184 
L 132.397861 293.373939 
L 133.671016 293.681571 
L 134.944171 293.213993 
L 136.217326 294.476867 
L 137.490481 133.831882 
L 138.763636 293.716169 
L 140.036791 134.010773 
L 141.309947 294.260008 
L 142.583102 293.376937 
L 143.856257 133.385235 
L 145.129412 293.722931 
L 146.402567 133.196167 
L 147.675722 294.357317 
L 148.948877 294.268955 
L 150.222032 294.399064 
L 151.495187 293.985652 
L 152.768342 134.253849 
L 154.041497 134.303609 
L 155.314652 293.170165 
L 157.860963 292.751328 
L 159.134118 133.859081 
L 160.407273 293.385318 
L 161.680428 134.419231 
L 162.953583 294.045255 
L 164.226738 133.322675 
L 165.499893 292.840997 
L 166.773048 53.717564 
L 168.046203 293.251281 
L 169.319358 133.495896 
L 170.592513 134.494912 
L 171.865668 294.091041 
L 173.138824 293.862431 
L 174.411979 293.96505 
L 175.685134 134.501901 
L 176.958289 132.906671 
L 178.231444 133.839621 
L 179.504599 294.8724 
L 180.777754 293.747252 
L 182.050909 293.709531 
L 183.324064 293.141914 
L 184.597219 293.937561 
L 185.870374 133.644554 
L 187.143529 134.39114 
L 188.416684 293.414129 
L 189.68984 133.584732 
L 190.962995 134.288988 
L 192.23615 294.689471 
L 193.509305 292.356615 
L 194.78246 133.14812 
L 196.055615 293.307371 
L 197.32877 293.00562 
L 198.601925 293.770906 
L 201.148235 292.486705 
L 202.42139 133.79235 
L 203.694545 133.847753 
L 204.967701 293.847285 
L 206.240856 135.123006 
L 207.514011 293.905029 
L 208.787166 53.862156 
L 210.060321 54.070349 
L 211.333476 213.344481 
L 213.879786 214.249847 
L 215.152941 213.694673 
L 216.426096 213.850985 
L 217.699251 213.655285 
L 218.972406 214.350393 
L 220.245561 214.502494 
L 221.518717 213.544025 
L 222.791872 214.762111 
L 224.065027 213.918232 
L 225.338182 213.789564 
L 226.611337 213.394802 
L 227.884492 213.758673 
L 229.157647 213.894125 
L 230.430802 213.116543 
L 231.703957 213.378408 
L 232.977112 213.927494 
L 234.250267 213.489891 
L 235.523422 214.44902 
L 236.796578 203.695856 
L 238.069733 213.83228 
L 239.342888 214.157898 
L 240.616043 213.795585 
L 241.889198 214.767176 
L 243.162353 214.494964 
L 244.435508 213.81605 
L 245.708663 213.724213 
L 246.981818 214.804217 
L 248.254973 214.287016 
L 249.528128 213.533303 
L 250.801283 213.646068 
L 252.074439 212.745413 
L 253.347594 214.042577 
L 254.620749 213.37617 
L 255.893904 213.550848 
L 257.167059 213.266493 
L 260.986524 213.865831 
L 262.259679 54.625417 
L 263.532834 53.876303 
L 264.805989 293.70546 
L 266.079144 133.665083 
L 267.352299 293.287808 
L 268.625455 134.434447 
L 269.89861 133.792806 
L 271.171765 293.184132 
L 272.44492 294.462022 
L 273.718075 292.1621 
L 274.99123 294.028019 
L 276.264385 292.508966 
L 277.53754 133.638501 
L 278.810695 293.231206 
L 280.08385 293.610214 
L 281.357005 132.643922 
L 282.63016 133.780165 
L 283.903316 293.124667 
L 285.176471 133.657433 
L 286.449626 133.829476 
L 287.722781 292.960607 
L 288.995936 294.099292 
L 290.269091 293.609632 
L 291.542246 294.283531 
L 292.815401 293.498413 
L 294.088556 133.794259 
L 295.361711 133.686588 
L 296.634866 133.114647 
L 297.908021 294.150442 
L 299.181176 293.74262 
L 300.454332 294.456872 
L 301.727487 133.55243 
L 303.000642 133.391393 
L 304.273797 294.073539 
L 305.546952 54.153006 
L 306.820107 293.478745 
L 308.093262 132.700137 
L 309.366417 293.49452 
L 310.639572 134.183314 
L 311.912727 293.892752 
L 313.185882 134.191226 
L 314.459037 294.147478 
L 315.732193 293.492631 
L 317.005348 293.389614 
L 318.278503 133.584225 
L 319.551658 133.405557 
L 320.824813 293.032675 
L 322.097968 293.181256 
L 323.371123 293.166535 
L 324.644278 293.502833 
L 325.917433 132.816759 
L 327.190588 293.429899 
L 328.463743 132.732308 
L 329.736898 293.886896 
L 331.010053 293.808535 
L 332.283209 133.720926 
L 333.556364 293.559363 
L 334.829519 133.670543 
L 336.102674 293.135053 
L 337.375829 293.562239 
L 338.648984 293.414493 
L 339.922139 294.438719 
L 341.195294 133.34288 
L 342.468449 133.773702 
L 343.741604 133.542912 
L 345.014759 293.748392 
L 346.287914 133.906777 
L 347.56107 53.636261 
L 348.834225 293.997338 
L 350.10738 293.068255 
L 351.380535 133.88758 
L 352.65369 134.161626 
L 353.926845 293.319803 
L 355.2 293.80022 
L 356.473155 293.14701 
L 359.019465 293.969862 
L 360.29262 293.488787 
L 361.565775 134.027534 
L 362.83893 133.999904 
L 364.112086 293.923227 
L 365.385241 293.497457 
L 366.658396 134.235299 
L 369.204706 133.797256 
L 370.477861 134.029565 
L 371.751016 292.66776 
L 373.024171 293.27703 
L 374.297326 294.4005 
L 376.843636 293.352016 
L 379.389947 294.01453 
L 380.663102 293.181059 
L 381.936257 293.291195 
L 383.209412 133.423863 
L 384.482567 292.837717 
L 385.755722 134.633759 
L 387.028877 134.21617 
L 388.302032 134.319049 
L 389.575187 55.050415 
L 390.848342 212.250513 
L 392.121497 214.134359 
L 394.667807 213.784688 
L 395.940963 213.739227 
L 397.214118 214.250124 
L 398.487273 213.308603 
L 398.487273 213.308603 
" clip-path="url(#p795360d74e)" style="fill: none; stroke: #1f77b4; stroke-width: 1.5; stroke-linecap: square"/>
   </g>
   <g id="patch_3">
    <path d="M 57.6 306.9432 
L 57.6 41.3856 
" style="fill: none; stroke: #000000; stroke-width: 0.8; stroke-linejoin: miter; stroke-linecap: square"/>
   </g>
   <g id="patch_4">
    <path d="M 414.72 306.9432 
L 414.72 41.3856 
" style="fill: none; stroke: #000000; stroke-width: 0.8; stroke-linejoin: miter; stroke-linecap: square"/>
   </g>
   <g id="patch_5">
    <path d="M 57.6 306.9432 
L 414.72 306.9432 
" style="fill: none; stroke: #000000; stroke-width: 0.8; stroke-linejoin: miter; stroke-linecap: square"/>
   </g>
   <g id="patch_6">
    <path d="M 57.6 41.3856 
L 414.72 41.3856 
" style="fill: none; stroke: #000000; stroke-width: 0.8; stroke-linejoin: miter; stroke-linecap: square"/>
   </g>
   <g id="text_17">
    <!-- 受信信号をFFTした結果 -->
    <g transform="translate(171.705 35.3856) scale(0.12 -0.12)">
     <defs>
      <path id="IPAexGothic-53d7" d="M 1781 3347 
Q 1775 3363 1756 3403 
Q 1738 3441 1728 3463 
Q 1591 3800 1416 4056 
L 1838 4184 
Q 2084 3834 2278 3347 
L 3066 3347 
Q 2928 3744 2675 4172 
L 3103 4281 
Q 3359 3863 3559 3347 
L 4019 3347 
Q 4278 3800 4538 4441 
L 4997 4300 
Q 4769 3788 4484 3347 
L 5747 3347 
L 5747 2078 
L 5278 2078 
L 5278 2944 
L 1116 2944 
L 1116 2078 
L 647 2078 
L 647 3347 
L 1781 3347 
z
M 3663 731 
Q 4431 313 5947 91 
L 5606 -375 
Q 4219 -100 3278 463 
Q 2184 -206 781 -491 
L 500 -63 
Q 1875 150 2894 731 
Q 2244 1228 1734 1947 
L 1384 1947 
L 1384 2350 
L 4725 2350 
L 4953 2144 
Q 4428 1309 3663 731 
z
M 3272 981 
Q 3947 1475 4288 1947 
L 2228 1947 
Q 2656 1419 3272 981 
z
M 775 4647 
Q 3241 4716 4922 5141 
L 5294 4738 
Q 3472 4347 981 4213 
L 775 4647 
z
" transform="scale(0.015625)"/>
      <path id="IPAexGothic-4fe1" d="M 1572 3809 
L 1572 -447 
L 1119 -447 
L 1119 2847 
Q 856 2372 550 1972 
L 300 2363 
Q 1172 3550 1566 5253 
L 2013 5147 
Q 1819 4428 1572 3809 
z
M 5534 1619 
L 5534 -447 
L 5081 -447 
L 5081 -116 
L 2763 -116 
L 2763 -447 
L 2316 -447 
L 2316 1619 
L 5534 1619 
z
M 2763 1234 
L 2763 269 
L 5081 269 
L 5081 1234 
L 2763 1234 
z
M 2475 4984 
L 5375 4984 
L 5375 4588 
L 2475 4588 
L 2475 4984 
z
M 2475 3297 
L 5375 3297 
L 5375 2906 
L 2475 2906 
L 2475 3297 
z
M 2475 2456 
L 5375 2456 
L 5375 2066 
L 2475 2066 
L 2475 2456 
z
M 1894 4147 
L 6003 4147 
L 6003 3738 
L 1894 3738 
L 1894 4147 
z
" transform="scale(0.015625)"/>
      <path id="IPAexGothic-53f7" d="M 5144 4947 
L 5144 3303 
L 1247 3303 
L 1247 4947 
L 5144 4947 
z
M 1706 4550 
L 1706 3694 
L 4684 3694 
L 4684 4550 
L 1706 4550 
z
M 2328 2350 
L 2309 2291 
Q 2225 2013 2138 1753 
L 5300 1753 
Q 5231 556 4978 19 
Q 4850 -247 4613 -331 
Q 4434 -403 4044 -403 
Q 3466 -403 3006 -359 
L 2906 147 
Q 3544 44 4025 44 
Q 4425 44 4569 397 
Q 4706 731 4775 1344 
L 1978 1344 
Q 1875 1097 1716 788 
L 1241 928 
Q 1631 1603 1850 2350 
L 416 2350 
L 416 2753 
L 6034 2753 
L 6034 2350 
L 2328 2350 
z
" transform="scale(0.015625)"/>
      <path id="IPAexGothic-3092" d="M 1094 4263 
Q 1544 4222 2359 4222 
Q 2581 4734 2700 5163 
L 3175 5028 
Q 2997 4538 2859 4256 
Q 3516 4284 4294 4459 
L 4356 4019 
Q 3603 3869 2656 3819 
Q 2391 3284 2059 2797 
Q 2531 3200 2963 3200 
Q 3638 3200 3859 2378 
Q 4556 2681 5338 2950 
L 5575 2528 
Q 4641 2253 3941 1956 
Q 3981 1678 3994 1028 
L 3513 991 
Q 3513 1456 3494 1753 
Q 2388 1194 2388 716 
Q 2388 428 2753 328 
Q 3066 241 3806 241 
Q 4394 241 5178 344 
L 5216 -128 
Q 4434 -213 3653 -213 
Q 2656 -213 2244 41 
Q 1913 244 1913 631 
Q 1913 1094 2344 1497 
Q 2709 1841 3428 2181 
Q 3266 2797 2878 2797 
Q 2238 2797 1209 1419 
L 838 1694 
Q 1625 2716 2163 3800 
Q 1522 3800 1088 3825 
L 1094 4263 
z
" transform="scale(0.015625)"/>
      <path id="IPAexGothic-46" d="M 3469 4141 
L 1172 4141 
L 1172 2656 
L 3206 2656 
L 3206 2188 
L 1172 2188 
L 1172 63 
L 609 63 
L 609 4634 
L 3469 4634 
L 3469 4141 
z
" transform="scale(0.015625)"/>
      <path id="IPAexGothic-54" d="M 3866 4141 
L 2175 4141 
L 2175 63 
L 1606 63 
L 1606 4141 
L -31 4141 
L -31 4634 
L 3866 4634 
L 3866 4141 
z
" transform="scale(0.015625)"/>
      <path id="IPAexGothic-3057" d="M 1750 4884 
L 2281 4884 
L 2238 1319 
Q 2228 809 2391 569 
Q 2594 281 3128 281 
Q 3772 281 4344 744 
Q 4822 1131 5156 1759 
L 5534 1369 
Q 5094 653 4534 263 
Q 3878 -206 3134 -206 
Q 2341 -206 1994 213 
Q 1697 575 1706 1269 
L 1750 4884 
z
" transform="scale(0.015625)"/>
      <path id="IPAexGothic-305f" d="M 684 3994 
Q 1138 3953 1556 3953 
Q 1797 3953 2106 3975 
Q 2266 4594 2369 5113 
L 2875 5025 
Q 2806 4731 2619 4013 
Q 3209 4084 3656 4191 
L 3688 3719 
Q 3109 3613 2497 3566 
Q 1822 1294 1153 -44 
L 653 172 
Q 1406 1500 1991 3531 
Q 1634 3513 1256 3513 
Q 1106 3513 697 3525 
L 684 3994 
z
M 5753 78 
Q 5059 -13 4597 -13 
Q 3619 -13 3206 334 
Q 2866 625 2766 1222 
L 3213 1388 
Q 3247 1069 3347 903 
Q 3425 775 3578 672 
Q 3866 481 4556 481 
Q 5009 481 5728 575 
L 5753 78 
z
M 3144 2859 
Q 4216 3147 5409 3072 
L 5381 2597 
L 5356 2597 
Q 4263 2663 3194 2419 
L 3144 2859 
z
" transform="scale(0.015625)"/>
      <path id="IPAexGothic-7d50" d="M 1241 3084 
Q 794 3713 378 4128 
L 666 4422 
Q 828 4259 916 4153 
Q 1300 4750 1541 5331 
L 1956 5119 
Q 1547 4363 1150 3859 
Q 1228 3759 1466 3425 
Q 1844 4016 2138 4550 
L 2522 4313 
Q 1853 3213 1313 2572 
Q 1647 2581 2253 2631 
Q 2134 2909 2009 3156 
L 2353 3303 
Q 2656 2775 2878 2106 
L 2494 1925 
Q 2469 2022 2425 2156 
Q 2384 2284 2372 2322 
Q 2334 2319 2222 2300 
Q 1966 2259 1778 2234 
L 1778 -447 
L 1363 -447 
L 1363 2181 
L 1291 2175 
Q 1000 2144 428 2106 
L 281 2534 
Q 672 2547 863 2553 
Q 909 2613 972 2700 
Q 1059 2816 1241 3084 
z
M 4134 4325 
L 4134 5309 
L 4563 5309 
L 4563 4325 
L 6113 4325 
L 6113 3934 
L 4563 3934 
L 4563 3034 
L 5906 3034 
L 5906 2650 
L 2859 2650 
L 2859 3034 
L 4134 3034 
L 4134 3934 
L 2719 3934 
L 2719 4325 
L 4134 4325 
z
M 5631 1997 
L 5631 -450 
L 5203 -450 
L 5203 -103 
L 3550 -103 
L 3550 -450 
L 3122 -450 
L 3122 1997 
L 5631 1997 
z
M 3550 1613 
L 3550 281 
L 5203 281 
L 5203 1613 
L 3550 1613 
z
M 353 197 
Q 581 863 647 1759 
L 1056 1709 
Q 988 709 769 -13 
L 353 197 
z
M 2334 313 
Q 2206 1147 1997 1759 
L 2363 1869 
Q 2609 1253 2766 488 
L 2334 313 
z
" transform="scale(0.015625)"/>
      <path id="IPAexGothic-679c" d="M 3809 1666 
Q 4656 800 6088 297 
L 5784 -131 
Q 4256 494 3406 1563 
L 3406 -447 
L 2947 -447 
L 2947 1519 
Q 2203 425 647 -281 
L 334 109 
Q 1769 697 2575 1666 
L 378 1666 
L 378 2075 
L 2947 2075 
L 2947 2625 
L 1109 2625 
L 1109 5013 
L 5288 5013 
L 5288 2625 
L 3406 2625 
L 3406 2075 
L 6016 2075 
L 6016 1666 
L 3809 1666 
z
M 1556 4628 
L 1556 3994 
L 2959 3994 
L 2959 4628 
L 1556 4628 
z
M 1556 3628 
L 1556 3009 
L 2959 3009 
L 2959 3628 
L 1556 3628 
z
M 4834 3009 
L 4834 3628 
L 3394 3628 
L 3394 3009 
L 4834 3009 
z
M 4834 3994 
L 4834 4628 
L 3394 4628 
L 3394 3994 
L 4834 3994 
z
" transform="scale(0.015625)"/>
     </defs>
     <use xlink:href="#IPAexGothic-53d7"/>
     <use xlink:href="#IPAexGothic-4fe1" x="100"/>
     <use xlink:href="#IPAexGothic-4fe1" x="200"/>
     <use xlink:href="#IPAexGothic-53f7" x="300"/>
     <use xlink:href="#IPAexGothic-3092" x="400"/>
     <use xlink:href="#IPAexGothic-46" x="500"/>
     <use xlink:href="#IPAexGothic-46" x="557.177734"/>
     <use xlink:href="#IPAexGothic-54" x="614.355469"/>
     <use xlink:href="#IPAexGothic-3057" x="674.267578"/>
     <use xlink:href="#IPAexGothic-305f" x="774.267578"/>
     <use xlink:href="#IPAexGothic-7d50" x="874.267578"/>
     <use xlink:href="#IPAexGothic-679c" x="974.267578"/>
    </g>
   </g>
  </g>
 </g>
 <defs>
  <clipPath id="p795360d74e">
   <rect x="57.6" y="41.3856" width="357.12" height="265.5576"/>
  </clipPath>
 </defs>
</svg>
